<svg width="289" height="49" viewBox="0 0 289 49" fill="none" xmlns="http://www.w3.org/2000/svg">
<path d="M59.077 10.9544L57.929 13.1094H57.0664L58.2219 10.9717C58.575 10.3191 58.8704 9.87154 59.1008 9.62514C59.3311 9.38007 59.6454 9.20426 60.041 9.09238C59.8269 9.02978 59.6128 8.89925 59.3987 8.6968C59.1834 8.49036 58.9956 8.2 58.8329 7.82307L58.4786 6.98797C58.3283 6.64034 58.1819 6.41525 58.0454 6.30737C57.9052 6.19815 57.7387 6.14354 57.5459 6.14354H57.318V5.42564H57.5597C57.9377 5.42564 58.2294 5.51089 58.441 5.6827C58.6501 5.85585 58.8617 6.17551 59.077 6.64301L59.4601 7.47811C59.6554 7.91497 59.8757 8.23996 60.1186 8.45706C60.3652 8.67283 60.6744 8.78204 61.0387 8.78204H61.3605V5.42564H62.1154V8.78204H62.4371C63.1232 8.78204 63.6465 8.34784 64.0083 7.47811L64.3826 6.64301C64.5729 6.18749 64.7769 5.8705 64.9973 5.69069C65.2164 5.51355 65.5143 5.42564 65.8924 5.42564H66.149V6.14354H65.9074C65.6934 6.14354 65.5218 6.19815 65.3929 6.30737C65.2652 6.41525 65.125 6.65233 64.9722 7.01993L64.6192 7.82307C64.3213 8.53031 63.9194 8.95253 63.4186 9.09238C63.7904 9.19227 64.0959 9.36276 64.34 9.60916C64.5842 9.85423 64.8708 10.2818 65.2001 10.8891L66.3932 13.1094H65.5381L64.3989 10.9544C64.0859 10.375 63.7904 9.97943 63.5125 9.76765C63.2358 9.55721 62.8715 9.45199 62.4208 9.45199H62.1154V13.1094H61.3605V9.45199H61.055C60.6043 9.45199 60.24 9.55721 59.9583 9.76765C59.6792 9.97943 59.385 10.375 59.077 10.9544Z" fill="#2B2A29"/>
<path d="M68.4561 11.8068L73.5113 5.42564H74.0071V13.1094H73.2534V6.84545L68.2207 13.176H67.7012V5.42564H68.4561V11.8068Z" fill="#2B2A29"/>
<path d="M75.9345 13.1094H75.0957L78.213 5.22319H78.5184L81.6432 13.1094H80.8207L78.3632 6.81082L75.9345 13.1094Z" fill="#2B2A29"/>
<path d="M85.9723 5.27515C86.6684 5.27515 87.2931 5.44829 87.8452 5.79592C88.3973 6.14355 88.8317 6.62037 89.1472 7.22506C89.4664 7.82974 89.6241 8.51434 89.6241 9.27486C89.6241 10.0767 89.4551 10.7799 89.1184 11.3846C88.7803 11.9893 88.3334 12.4515 87.7751 12.7764C87.218 13.0988 86.612 13.2613 85.9585 13.2613C85.2287 13.2613 84.5864 13.0814 84.0281 12.7218C83.471 12.3635 83.0391 11.8841 82.7336 11.2847C82.4281 10.6867 82.2754 10.0394 82.2754 9.34279C82.2754 8.56762 82.4319 7.87503 82.7424 7.25835C83.0528 6.64301 83.4897 6.1582 84.0531 5.80524C84.6152 5.45096 85.2562 5.27515 85.9723 5.27515ZM85.9585 12.542C86.5244 12.542 87.0252 12.3995 87.4646 12.1145C87.904 11.8321 88.2445 11.4419 88.4861 10.9464C88.7265 10.4496 88.8479 9.89419 88.8479 9.27486C88.8479 8.6422 88.7215 8.07481 88.4699 7.57535C88.2182 7.07588 87.8689 6.6883 87.4245 6.40993C86.9788 6.13289 86.4806 5.99304 85.926 5.99304C85.3877 5.99304 84.8994 6.13023 84.465 6.40061C84.0318 6.67498 83.6888 7.06256 83.4359 7.56736C83.1843 8.07215 83.0616 8.6422 83.0616 9.27486C83.0616 9.91684 83.1843 10.4842 83.4359 10.9797C83.6888 11.4765 84.0343 11.8588 84.4738 12.1318C84.9132 12.4062 85.4089 12.542 85.9585 12.542Z" fill="#2B2A29"/>
<path d="M92.0811 11.8068L97.1363 5.42564H97.6321V13.1094H96.8784V6.84545L91.8457 13.176H91.3262V5.42564H92.0811V11.8068ZM94.5611 3.44376C94.9705 3.44376 95.2947 3.33588 95.5364 3.11878C95.778 2.90301 95.9645 2.55139 96.1022 2.0719H96.7457C96.6293 2.72586 96.3751 3.23066 95.9833 3.58894C95.5902 3.94855 95.1157 4.12836 94.5611 4.12836C94.0003 4.12836 93.5258 3.94589 93.1377 3.58095C92.7458 3.21601 92.4917 2.71388 92.3715 2.0719H93.0138C93.2604 2.98825 93.7749 3.44376 94.5611 3.44376Z" fill="#2B2A29"/>
<path d="M105.005 8.78204H105.474C105.852 8.78204 106.16 8.66484 106.402 8.43042C106.642 8.19734 106.854 7.86969 107.037 7.44748L107.391 6.62835C107.559 6.22745 107.749 5.92511 107.964 5.72532C108.179 5.52554 108.495 5.42564 108.916 5.42564H109.173V6.14354H108.928C108.707 6.14354 108.533 6.19815 108.409 6.30737C108.286 6.41525 108.152 6.63501 108.012 6.97065L107.643 7.83772C107.345 8.52499 106.943 8.94187 106.442 9.09238C106.839 9.19227 107.152 9.36276 107.382 9.60916C107.613 9.85423 107.889 10.2751 108.207 10.8718L109.433 13.1094H108.562L107.439 10.9717C107.126 10.4043 106.828 10.0074 106.552 9.78497C106.273 9.56254 105.911 9.45199 105.461 9.45199H105.005V13.1094H104.25V5.42564H105.005V8.78204Z" fill="#2B2A29"/>
<path d="M113.981 5.27515C114.677 5.27515 115.302 5.44829 115.854 5.79592C116.406 6.14355 116.84 6.62037 117.156 7.22506C117.475 7.82974 117.634 8.51434 117.634 9.27486C117.634 10.0767 117.465 10.7799 117.127 11.3846C116.789 11.9893 116.342 12.4515 115.784 12.7764C115.226 13.0988 114.621 13.2613 113.967 13.2613C113.238 13.2613 112.595 13.0814 112.038 12.7218C111.479 12.3635 111.049 11.8841 110.743 11.2847C110.438 10.6867 110.285 10.0394 110.285 9.34279C110.285 8.56762 110.44 7.87503 110.751 7.25835C111.061 6.64301 111.498 6.1582 112.062 5.80524C112.624 5.45096 113.265 5.27515 113.981 5.27515ZM113.967 12.542C114.533 12.542 115.034 12.3995 115.473 12.1145C115.913 11.8321 116.253 11.4419 116.495 10.9464C116.735 10.4496 116.856 9.89419 116.856 9.27486C116.856 8.6422 116.73 8.07481 116.478 7.57535C116.227 7.07588 115.877 6.6883 115.433 6.40993C114.989 6.13289 114.489 5.99304 113.934 5.99304C113.396 5.99304 112.908 6.13023 112.475 6.40061C112.04 6.67498 111.697 7.06256 111.444 7.56736C111.193 8.07215 111.07 8.6422 111.07 9.27486C111.07 9.91684 111.193 10.4842 111.444 10.9797C111.697 11.4765 112.043 11.8588 112.482 12.1318C112.922 12.4062 113.417 12.542 113.967 12.542Z" fill="#2B2A29"/>
<path d="M122.814 9.68508L125.47 5.42564H126.207L126.395 13.1094H125.674L125.516 6.71226L122.814 11.1795L120.043 6.72825L119.933 13.1094H119.209L119.384 5.42564H120.129L122.814 9.68508Z" fill="#2B2A29"/>
<path d="M134.308 13.1094H133.553V6.16752H129.174V13.1094H128.418V5.42564H134.308V13.1094Z" fill="#2B2A29"/>
<path d="M136.241 13.1094H135.402L138.52 5.22319H138.825L141.95 13.1094H141.127L138.669 6.81082L136.241 13.1094Z" fill="#2B2A29"/>
<path d="M146.08 13.2613C145.416 13.2613 144.815 13.0961 144.281 12.7684C143.748 12.4395 143.33 11.9693 143.031 11.3593C142.73 10.7493 142.58 10.05 142.58 9.25754C142.58 8.49703 142.712 7.81243 142.979 7.20774C143.247 6.60306 143.625 6.13023 144.112 5.78793C144.603 5.44563 145.16 5.27515 145.79 5.27515C146.708 5.27515 147.431 5.6028 147.965 6.26076C148.5 6.91739 148.787 7.84306 148.83 9.04177H143.379C143.379 9.05243 143.376 9.07507 143.37 9.1097C143.368 9.14167 143.365 9.19761 143.365 9.27486C143.365 9.87155 143.478 10.415 143.701 10.9064C143.926 11.3939 144.253 11.7815 144.676 12.0665C145.099 12.3489 145.597 12.4914 146.166 12.4914C147.098 12.4914 147.953 12.1811 148.733 11.5564V12.3742C148.294 12.6912 147.859 12.919 147.431 13.0561C147.002 13.192 146.551 13.2613 146.08 13.2613ZM145.775 5.99304C145.155 5.99304 144.627 6.22346 144.188 6.68563C143.748 7.14781 143.489 7.75515 143.41 8.50768H148.058C147.965 7.70055 147.723 7.07988 147.337 6.64301C146.948 6.21014 146.428 5.99304 145.775 5.99304Z" fill="#2B2A29"/>
<path d="M151.19 8.78204H151.66C152.038 8.78204 152.346 8.66484 152.588 8.43042C152.828 8.19734 153.04 7.86969 153.222 7.44748L153.577 6.62835C153.744 6.22745 153.935 5.92511 154.15 5.72532C154.364 5.52554 154.681 5.42564 155.101 5.42564H155.358V6.14354H155.114C154.892 6.14354 154.718 6.19815 154.594 6.30737C154.472 6.41525 154.338 6.63501 154.198 6.97065L153.828 7.83772C153.53 8.52499 153.128 8.94187 152.628 9.09238C153.025 9.19227 153.337 9.36276 153.568 9.60916C153.798 9.85423 154.075 10.2751 154.394 10.8718L155.618 13.1094H154.747L153.624 10.9717C153.311 10.4043 153.013 10.0074 152.738 9.78497C152.459 9.56254 152.097 9.45199 151.646 9.45199H151.19V13.1094H150.436V5.42564H151.19V8.78204Z" fill="#2B2A29"/>
<path d="M161.962 5.68537V6.54312C161.633 6.36065 161.319 6.23012 161.016 6.15554C160.716 6.08095 160.4 6.04099 160.071 6.04099C159.51 6.04099 159.02 6.18484 158.593 6.46321C158.17 6.74557 157.841 7.13049 157.604 7.62063C157.369 8.1121 157.254 8.65685 157.254 9.25754C157.254 9.85424 157.369 10.399 157.597 10.8891C157.827 11.3793 158.161 11.7669 158.602 12.0572C159.044 12.3462 159.568 12.4914 160.179 12.4914C160.745 12.4914 161.356 12.3542 162.011 12.0838V12.8843C161.372 13.1361 160.735 13.2613 160.102 13.2613C159.359 13.2613 158.711 13.0814 158.159 12.7218C157.607 12.3635 157.186 11.8841 156.899 11.2847C156.61 10.6867 156.469 10.0327 156.469 9.3268C156.469 8.51967 156.621 7.80976 156.927 7.19975C157.232 6.58841 157.656 6.11558 158.194 5.77861C158.732 5.44297 159.347 5.27515 160.033 5.27515C160.654 5.27515 161.297 5.411 161.962 5.68537Z" fill="#2B2A29"/>
<path d="M81.7048 31.7894C81.7048 33.5555 81.3117 35.207 80.5243 36.7387C79.7368 38.2757 78.6051 39.4984 77.1291 40.4228C75.6531 41.3405 73.9129 41.8026 71.9136 41.8026C70.2085 41.8026 68.6874 41.4164 67.3466 40.6505C66.0046 39.8847 64.9267 38.8325 64.1029 37.5006C63.2804 36.1673 62.7784 34.6929 62.5956 33.0747H59.8039V41.5496H57.1836V22.0718H59.8039V30.4948H62.6219C62.8059 28.9151 63.2892 27.4687 64.0766 26.1594C64.8641 24.8461 65.937 23.7993 67.2928 23.0094C68.6524 22.2143 70.2361 21.8201 72.0426 21.8201C73.9042 21.8201 75.5717 22.2622 77.039 23.148C78.5062 24.0284 79.6517 25.2324 80.4705 26.7601C81.293 28.2825 81.7048 29.958 81.7048 31.7894ZM65.1771 31.8746C65.1771 33.2598 65.4813 34.5118 66.0897 35.6252C66.6969 36.7387 67.5207 37.6098 68.5585 38.2384C69.6001 38.8658 70.7193 39.1801 71.9136 39.1801C73.5724 39.1801 74.937 38.7859 76.0011 37.9947C77.0665 37.2049 77.8352 36.2446 78.3009 35.1071C78.7704 33.9737 79.0032 32.8602 79.0032 31.7614C79.0032 30.6 78.7391 29.4572 78.2108 28.3344C77.6837 27.2063 76.8912 26.2793 75.8446 25.5454C74.798 24.8088 73.5549 24.4412 72.1239 24.4412C70.6029 24.4412 69.3234 24.8128 68.2768 25.56C67.234 26.3032 66.4565 27.2396 65.9457 28.373C65.4312 29.5105 65.1771 30.6759 65.1771 31.8746Z" fill="#2B2A29"/>
<path d="M87.3166 38.0094L85.6515 41.5496H83.0312L84.6675 38.2997C85.2722 37.1197 85.7679 36.3059 86.1623 35.8544C86.5554 35.4068 87.0749 35.0779 87.7234 34.8741C87.2227 34.6969 86.8333 34.4732 86.5554 34.2068C86.2737 33.9457 86.0058 33.5555 85.7416 33.0467L85.1157 31.8746C84.9229 31.495 84.7351 31.2513 84.5561 31.1567C84.3771 31.0568 84.198 31.0089 84.0153 31.0089H83.4869V28.7247H84.0153C84.7489 28.7247 85.3035 28.8579 85.679 29.1296C86.0546 29.396 86.4753 29.958 86.9497 30.8144L87.6696 32.1796C88.0452 32.8509 88.412 33.3024 88.77 33.5408C89.1281 33.7793 89.5925 33.8978 90.1609 33.8978V28.7247H92.5583V33.8978C93.1755 33.8978 93.6863 33.746 94.0844 33.4409C94.4825 33.1413 94.8218 32.7031 95.0997 32.1277L95.7795 30.8144C96.1726 30.0153 96.5757 29.4679 96.9863 29.1669C97.3982 28.8725 97.9616 28.7247 98.6777 28.7247H99.241V31.0089H98.7315C98.4949 31.0089 98.2883 31.0808 98.1056 31.2287C97.9265 31.3712 97.7425 31.6229 97.551 31.9852L96.9863 33.0467C96.7009 33.5741 96.4192 33.9644 96.1463 34.2121C95.8771 34.4545 95.4928 34.6783 94.9958 34.8741C95.5379 35.0206 96.0299 35.3309 96.4768 35.7971C96.92 36.2672 97.3945 36.9958 97.8902 37.9814L99.698 41.5496H97.0677L95.3989 38.0094C95.0233 37.2475 94.6115 36.7015 94.1645 36.3778C93.7126 36.0541 93.1755 35.8877 92.5583 35.8877V41.5496H90.1609V35.8877C89.5387 35.8877 88.9979 36.0541 88.5422 36.3778C88.0815 36.7015 87.6733 37.2475 87.3166 38.0094Z" fill="#2B2A29"/>
<path d="M103.922 33.7832H109.831V28.7247H112.215V41.5496H109.831V36.0728H103.922V41.5496H101.537V28.7247H103.922V33.7832Z" fill="#2B2A29"/>
<path d="M127.515 35.1498C127.515 36.6202 127.183 37.8522 126.531 38.8525C125.874 39.8514 125.055 40.5933 124.075 41.0741C123.091 41.5602 122.08 41.8026 121.038 41.8026C119.704 41.8026 118.546 41.479 117.566 40.8317C116.587 40.1844 115.853 39.3612 115.366 38.3517C114.878 37.3434 114.633 36.3005 114.633 35.235C114.633 33.9604 114.901 32.8123 115.438 31.7854C115.975 30.7571 116.735 29.9473 117.719 29.3573C118.703 28.7673 119.835 28.4729 121.118 28.4729C122.326 28.4729 123.412 28.7539 124.388 29.3147C125.363 29.8767 126.128 30.6612 126.682 31.6708C127.237 32.6791 127.515 33.8405 127.515 35.1498ZM117.07 35.1498C117.07 36.487 117.451 37.5525 118.211 38.3423C118.971 39.1322 119.928 39.5277 121.091 39.5277C122.272 39.5277 123.23 39.1135 123.963 38.2811C124.697 37.4486 125.064 36.3964 125.064 35.1205C125.064 33.7033 124.666 32.6178 123.869 31.8746C123.077 31.1287 122.107 30.7571 120.961 30.7571C119.835 30.7571 118.904 31.1567 118.171 31.9558C117.437 32.7563 117.07 33.8218 117.07 35.1498Z" fill="#2B2A29"/>
<path d="M140.029 35.0965V35.3589H131.553C131.638 36.5776 132.027 37.5525 132.721 38.2811C133.409 39.0096 134.318 39.3759 135.445 39.3759C136.213 39.3759 136.975 39.2427 137.726 38.975C138.477 38.7139 139.175 38.3237 139.819 37.8149V40.2936C139.054 40.8463 138.299 41.2312 137.555 41.4603C136.813 41.6881 135.999 41.8026 135.118 41.8026C134.035 41.8026 133.034 41.5269 132.121 40.9795C131.208 40.4321 130.485 39.6463 129.948 38.6287C129.41 37.6098 129.143 36.4151 129.143 35.0405C129.143 33.8032 129.374 32.6844 129.835 31.6855C130.301 30.6852 130.958 29.9007 131.808 29.3293C132.658 28.7579 133.651 28.4729 134.779 28.4729C135.771 28.4729 136.67 28.734 137.472 29.2574C138.267 29.7862 138.894 30.548 139.349 31.547C139.806 32.5459 140.029 33.7259 140.029 35.0965ZM134.751 30.6759C133.91 30.6759 133.195 30.9809 132.599 31.5896C132.004 32.1996 131.674 32.9455 131.606 33.8405H137.672C137.618 32.8549 137.341 32.0797 136.841 31.519C136.34 30.9569 135.641 30.6759 134.751 30.6759Z" fill="#2B2A29"/>
<path d="M156.399 21.9626H158.247L164.59 39.0416H166.2V45.5519H163.565V41.5496H151.376V45.5519H148.746V39.0416H150.356L156.399 21.9626ZM152.991 39.0416H161.929L157.289 26.0462L152.991 39.0416Z" fill="#2B2A29"/>
<path d="M180.019 35.1498C180.019 36.6202 179.688 37.8522 179.035 38.8525C178.378 39.8514 177.559 40.5933 176.579 41.0741C175.595 41.5602 174.584 41.8026 173.542 41.8026C172.209 41.8026 171.05 41.479 170.071 40.8317C169.091 40.1844 168.357 39.3612 167.87 38.3517C167.382 37.3434 167.137 36.3005 167.137 35.235C167.137 33.9604 167.405 32.8123 167.942 31.7854C168.479 30.7571 169.239 29.9473 170.223 29.3573C171.207 28.7673 172.338 28.4729 173.623 28.4729C174.83 28.4729 175.918 28.7539 176.893 29.3147C177.867 29.8767 178.633 30.6612 179.188 31.6708C179.742 32.6791 180.019 33.8405 180.019 35.1498ZM169.574 35.1498C169.574 36.487 169.955 37.5525 170.715 38.3423C171.476 39.1322 172.432 39.5277 173.595 39.5277C174.777 39.5277 175.734 39.1135 176.467 38.2811C177.201 37.4486 177.568 36.3964 177.568 35.1205C177.568 33.7033 177.17 32.6178 176.373 31.8746C175.582 31.1287 174.611 30.7571 173.466 30.7571C172.338 30.7571 171.408 31.1567 170.675 31.9558C169.941 32.7563 169.574 33.8218 169.574 35.1498Z" fill="#2B2A29"/>
<path d="M188.817 36.6442L192.516 28.7247H194.766L195.634 41.5496H193.379L192.735 32.8656L188.817 41.5496L184.626 32.8656L184.116 41.5496H181.861L182.671 28.7247H184.925L188.817 36.6442Z" fill="#2B2A29"/>
<path d="M210.361 35.1498C210.361 36.6202 210.03 37.8522 209.377 38.8525C208.719 39.8514 207.901 40.5933 206.922 41.0741C205.938 41.5602 204.926 41.8026 203.885 41.8026C202.551 41.8026 201.392 41.479 200.413 40.8317C199.433 40.1844 198.699 39.3612 198.212 38.3517C197.724 37.3434 197.479 36.3005 197.479 35.235C197.479 33.9604 197.746 32.8123 198.283 31.7854C198.821 30.7571 199.58 29.9473 200.564 29.3573C201.548 28.7673 202.68 28.4729 203.965 28.4729C205.173 28.4729 206.259 28.7539 207.235 29.3147C208.21 29.8767 208.975 30.6612 209.529 31.6708C210.084 32.6791 210.361 33.8405 210.361 35.1498ZM199.916 35.1498C199.916 36.487 200.297 37.5525 201.056 38.3423C201.818 39.1322 202.774 39.5277 203.937 39.5277C205.119 39.5277 206.075 39.1135 206.809 38.2811C207.543 37.4486 207.909 36.3964 207.909 35.1205C207.909 33.7033 207.511 32.6178 206.715 31.8746C205.924 31.1287 204.952 30.7571 203.808 30.7571C202.68 30.7571 201.75 31.1567 201.016 31.9558C200.283 32.7563 199.916 33.8218 199.916 35.1498Z" fill="#2B2A29"/>
<path d="M216.905 28.4729H218.243L222.791 39.2653H223.772V45.5519H221.414V41.5496H213.393V45.5519H211.023V39.2653H212.016L216.905 28.4729ZM214.494 39.2653H220.286L217.416 32.5272L214.494 39.2653Z" fill="#2B2A29"/>
<path d="M235.072 35.0965V35.3589H226.595C226.681 36.5776 227.07 37.5525 227.764 38.2811C228.452 39.0096 229.361 39.3759 230.488 39.3759C231.258 39.3759 232.018 39.2427 232.769 38.975C233.52 38.7139 234.218 38.3237 234.862 37.8149V40.2936C234.097 40.8463 233.342 41.2312 232.598 41.4603C231.856 41.6881 231.042 41.8026 230.161 41.8026C229.079 41.8026 228.076 41.5269 227.164 40.9795C226.251 40.4321 225.528 39.6463 224.991 38.6287C224.453 37.6098 224.186 36.4151 224.186 35.0405C224.186 33.8032 224.417 32.6844 224.878 31.6855C225.344 30.6852 226.001 29.9007 226.851 29.3293C227.701 28.7579 228.694 28.4729 229.822 28.4729C230.814 28.4729 231.713 28.734 232.515 29.2574C233.311 29.7862 233.937 30.548 234.392 31.547C234.849 32.5459 235.072 33.7259 235.072 35.0965ZM229.794 30.6759C228.953 30.6759 228.238 30.9809 227.643 31.5896C227.047 32.1996 226.717 32.9455 226.649 33.8405H232.715C232.661 32.8549 232.384 32.0797 231.884 31.519C231.383 30.9569 230.684 30.6759 229.794 30.6759Z" fill="#2B2A29"/>
<path d="M242.051 28.4729H243.388L247.937 39.2653H248.916V45.5519H246.559V41.5496H238.539V45.5519H236.168V39.2653H237.161L242.051 28.4729ZM239.64 39.2653H245.432L242.56 32.5272L239.64 39.2653Z" fill="#2B2A29"/>
<path d="M262.745 35.1498C262.745 36.6202 262.415 37.8522 261.761 38.8525C261.104 39.8514 260.285 40.5933 259.305 41.0741C258.321 41.5602 257.311 41.8026 256.268 41.8026C254.936 41.8026 253.777 41.479 252.798 40.8317C251.818 40.1844 251.084 39.3612 250.597 38.3517C250.109 37.3434 249.863 36.3005 249.863 35.235C249.863 33.9604 250.131 32.8123 250.668 31.7854C251.205 30.7571 251.965 29.9473 252.949 29.3573C253.933 28.7673 255.065 28.4729 256.349 28.4729C257.556 28.4729 258.644 28.7539 259.619 29.3147C260.593 29.8767 261.36 30.6612 261.914 31.6708C262.469 32.6791 262.745 33.8405 262.745 35.1498ZM252.301 35.1498C252.301 36.487 252.681 37.5525 253.441 38.3423C254.202 39.1322 255.159 39.5277 256.322 39.5277C257.504 39.5277 258.46 39.1135 259.194 38.2811C259.927 37.4486 260.294 36.3964 260.294 35.1205C260.294 33.7033 259.896 32.6178 259.1 31.8746C258.309 31.1287 257.337 30.7571 256.193 30.7571C255.065 30.7571 254.135 31.1567 253.401 31.9558C252.668 32.7563 252.301 33.8218 252.301 35.1498Z" fill="#2B2A29"/>
<path d="M273.931 32.1277C273.931 32.7563 273.775 33.3224 273.471 33.8259C273.166 34.3267 272.728 34.7302 272.16 35.0406C273.533 35.5307 274.218 36.511 274.218 37.9814C274.218 39.0856 273.832 39.9606 273.064 40.5933C272.294 41.2313 271.176 41.5496 269.709 41.5496H265.15V28.7247H269.498C270.966 28.7247 272.07 29.0243 272.817 29.625C273.56 30.2244 273.931 31.0568 273.931 32.1277ZM271.48 32.5033C271.48 32.0091 271.31 31.6082 270.974 31.3046C270.639 30.9956 270.129 30.8424 269.449 30.8424H267.534V34.1881H269.422C270.138 34.1881 270.661 34.0363 270.988 33.726C271.315 33.4223 271.48 33.0121 271.48 32.5033ZM271.779 37.8429C271.779 37.3008 271.6 36.8813 271.242 36.5816C270.885 36.2779 270.366 36.1247 269.681 36.1247H267.534V39.4319H269.681C270.366 39.4319 270.885 39.2947 271.242 39.019C271.6 38.7473 271.779 38.3517 271.779 37.8429Z" fill="#2B2A29"/>
<path d="M288.796 35.1498C288.796 36.6202 288.466 37.8522 287.812 38.8525C287.155 39.8514 286.336 40.5933 285.356 41.0741C284.372 41.5602 283.362 41.8026 282.319 41.8026C280.987 41.8026 279.828 41.479 278.849 40.8317C277.868 40.1844 277.135 39.3612 276.648 38.3517C276.159 37.3434 275.914 36.3005 275.914 35.235C275.914 33.9604 276.182 32.8123 276.719 31.7854C277.256 30.7571 278.016 29.9473 279 29.3573C279.984 28.7673 281.116 28.4729 282.4 28.4729C283.607 28.4729 284.695 28.7539 285.67 29.3147C286.644 29.8767 287.41 30.6612 287.965 31.6708C288.52 32.6791 288.796 33.8405 288.796 35.1498ZM278.352 35.1498C278.352 36.487 278.732 37.5525 279.492 38.3423C280.253 39.1322 281.21 39.5277 282.373 39.5277C283.554 39.5277 284.511 39.1135 285.245 38.2811C285.978 37.4486 286.345 36.3964 286.345 35.1205C286.345 33.7033 285.947 32.6178 285.151 31.8746C284.359 31.1287 283.388 30.7571 282.244 30.7571C281.116 30.7571 280.186 31.1567 279.452 31.9558C278.718 32.7563 278.352 33.8218 278.352 35.1498Z" fill="#2B2A29"/>
<path fill-rule="evenodd" clip-rule="evenodd" d="M32.8895 31.6762C31.2758 33.2412 29.5757 34.7049 27.3523 35.3589C24.851 36.0941 22.2896 35.9489 19.8483 34.9327C17.0478 33.702 14.9108 31.8267 14.1096 28.4663C13.8654 27.5766 13.5324 26.583 13.2883 25.6906C13.0429 24.8009 13.1656 23.9298 13.1982 22.9575C13.4486 21.0223 13.9631 19.3933 14.9383 17.6952C15.23 17.2237 15.4328 16.6509 15.7233 16.1795C16.4344 14.1736 18.291 13.4983 19.8771 12.7112C20.2502 12.538 20.7109 12.4661 21.0026 11.9959C21.0978 11.904 21.1916 11.8108 21.3757 11.8215C22.9343 11.8121 24.4253 11.1169 25.9715 11.4978C26.337 11.5178 26.7915 11.6417 27.1645 11.4672C27.9983 11.2221 28.6017 12.3289 28.2975 13.188C28.29 13.3838 28.1961 13.4757 28.0121 13.465C27.0982 13.4131 26.3383 14.1496 25.3417 13.8007C25.159 13.79 24.9762 13.7794 24.6983 13.8619C22.9293 14.6384 20.9901 15.0167 19.3839 16.3872C19.0046 16.7562 18.7141 17.2263 18.4224 17.6978C17.5548 18.9152 16.7837 20.0406 16.9063 21.8028C16.9739 22.4887 16.5808 23.2465 16.6497 23.9325C16.6021 25.295 17.2068 26.4005 17.9054 27.4154C19.3025 29.4439 21.283 30.5307 23.365 31.3312C23.6354 31.4431 23.8194 31.4537 24.0085 31.2699C25.2078 31.0448 26.3195 30.7185 27.4312 30.3922C28.5429 30.0646 29.0311 29.2148 29.8774 28.5808C31.0167 27.4753 31.3409 26.0316 31.8479 24.5984C32.2548 23.4517 31.8267 22.5513 31.3109 21.547C31.2232 21.4445 31.1356 21.3419 31.1419 21.1475C30.1979 19.2415 28.7607 18.3811 26.7339 18.6555C25.8125 18.798 24.8973 18.746 24.056 19.1869C22.565 19.8821 21.6849 21.4884 21.8076 23.2505C21.924 25.2058 22.9894 26.2407 24.9148 26.2527C26.0128 26.3153 26.7777 25.3842 26.7226 24.3081C26.655 23.6221 26.3908 23.3145 25.6522 23.4676C25.1903 23.5396 24.9136 23.6208 24.4516 23.6927C24.175 23.774 23.8081 23.754 23.5427 23.4463C23.3737 23.0468 23.3875 22.6578 23.5841 22.2782C23.882 21.6136 24.5318 21.3579 25.0876 21.1941C25.5496 21.1222 26.1054 20.9597 26.5661 20.8877C27.942 20.8691 28.7419 21.5963 29.2515 22.795C29.4142 23.3891 29.4893 23.8805 29.7472 24.3827C29.9976 25.0792 29.7885 25.8464 29.4092 26.2154C28.454 27.3302 27.4988 28.4463 26.0203 28.7526C22.6038 29.4359 19.6343 27.8057 19.1172 24.1696C18.8794 23.084 18.8243 22.0092 19.2311 20.8624C19.9485 18.6608 21.283 17.177 23.2423 16.2154C24.9224 15.3364 26.7664 15.0513 28.5279 14.4693C28.9009 14.2948 29.1651 14.6025 29.6195 14.725C31.9857 15.2498 33.5806 16.9 34.7937 18.9178C36.9658 22.4527 36.5677 26.0356 34.7924 29.6397C34.2103 30.5813 33.4579 31.1234 32.8895 31.6762Z" fill="#FFED00" fill-opacity="0.941176"/>
<path fill-rule="evenodd" clip-rule="evenodd" d="M11.5317 12.7671C11.8221 13.1747 12.0399 13.4797 12.2365 13.9631C12.5332 15.0047 11.8083 16.0676 10.8081 15.9117C9.54613 15.8038 8.23287 15.4176 7.15247 14.5252C6.4564 13.9631 5.74531 14.2135 4.88901 14.2615C4.7225 14.2349 4.53346 14.3867 4.27306 14.436C3.7723 14.3574 3.34414 14.3814 3.09752 13.6195C2.85089 12.8563 3.01113 12.2477 3.26402 11.5631C3.40173 11.1328 3.63459 10.6254 3.60454 10.1685C3.66964 9.63578 3.95257 9.40936 4.45334 9.48661C6.43387 9.97808 8.48576 10.5708 10.306 11.6696C10.952 11.952 11.2425 12.3595 11.5317 12.7671Z" fill="#FFED00" fill-opacity="0.941176"/>
<path fill-rule="evenodd" clip-rule="evenodd" d="M37.8094 43.2611C37.7143 43.353 37.5252 43.5381 37.2473 43.6194C36.5087 43.7725 35.8577 44.0283 35.2067 44.2826C34.0887 44.8048 34.0011 44.7022 33.3013 43.6873C32.6916 42.7763 31.8841 42.2435 31.3683 41.2392C30.9414 40.3375 30.3305 39.4252 29.9023 38.5235C29.7333 38.1253 29.7471 37.7363 29.8485 37.4486C29.9624 36.7734 30.6134 36.5176 30.7286 35.8424C30.7286 35.8424 30.8237 35.7505 30.9189 35.6572C32.6678 35.4641 33.7457 36.1101 34.5119 37.8109C35.0214 39.0096 35.7125 40.2177 36.9806 40.6798C37.4351 40.8024 37.7005 41.11 37.9647 41.4177C38.3991 42.125 38.379 42.7083 37.8094 43.2611Z" fill="#FFED00" fill-opacity="0.941176"/>
<path fill-rule="evenodd" clip-rule="evenodd" d="M18.9117 9.96877C18.635 10.05 18.5199 10.7266 18.1606 10.5109C17.5296 10.1832 16.791 10.335 16.1675 9.81293C15.3663 9.08571 15.2173 8.10277 14.8781 7.30363C14.4637 6.01301 14.0418 4.91685 12.9714 4.07642C12.5232 3.75809 12.0825 3.24531 12.3805 2.58069C12.6784 1.91474 13.1467 1.64969 13.7901 1.58842C14.1557 1.6084 14.6164 1.53781 14.9832 1.55912C16.0887 1.42593 17.0839 1.77489 17.6886 2.8817C18.6451 4.39741 19.1333 6.1795 19.5277 8.05349C19.9621 8.76073 19.5702 9.51858 18.9117 9.96877Z" fill="#FFED00" fill-opacity="0.941176"/>
<path fill-rule="evenodd" clip-rule="evenodd" d="M37.3148 33.5834C36.2557 32.3541 36.3032 30.9916 37.2585 29.8768C37.4475 29.693 37.6315 29.7023 37.7192 29.8048C38.8985 30.1644 40.079 30.5241 41.1569 31.17C41.7866 31.4977 42.5265 31.3445 43.1637 31.4777C43.5293 31.499 43.801 31.6122 44.1665 31.6322C44.8926 31.868 44.974 32.165 44.7637 32.9335C44.5546 33.7007 44.3443 34.4692 44.2229 35.3402C44.2028 35.9236 43.4504 36.4657 42.9084 36.2393C41.0029 35.6439 39.1864 35.1511 37.5789 33.8911C37.4901 33.7886 37.4024 33.686 37.3148 33.5834Z" fill="#FFED00" fill-opacity="0.941176"/>
<path fill-rule="evenodd" clip-rule="evenodd" d="M23.5782 40.4121C24.1478 39.8594 25.53 39.6463 26.0658 40.0658C26.3374 40.179 26.2348 40.4654 26.3174 40.7624C26.4539 42.1343 26.2235 43.4861 26.36 44.858C26.4276 45.5453 26.6792 46.2419 26.8357 47.0303C27.1549 48.4129 26.8695 48.6886 25.6764 48.7192C25.1281 48.6872 24.5785 48.6566 24.0227 48.8204C23.284 48.9736 22.5717 48.3476 22.4152 47.5591C22.2925 45.7983 22.2575 44.1388 22.5955 42.3061C22.8058 41.5376 23.1037 40.873 23.5782 40.4121Z" fill="#FFED00" fill-opacity="0.941176"/>
<path fill-rule="evenodd" clip-rule="evenodd" d="M24.7284 7.62461C24.3754 7.21571 24.2064 6.81614 24.1375 6.13021C23.9197 4.46 24.1638 2.7192 24.4943 1.08096C24.5144 0.497584 25.2605 0.149957 25.7149 0.273824C26.4398 0.509571 27.077 0.642762 27.8094 0.684051C28.359 0.716017 28.6231 1.02235 28.4203 1.59641C28.2163 2.16913 28.0135 2.74318 27.9058 3.22399C27.703 3.79805 27.5002 4.37077 27.6629 4.9648C27.8119 5.94774 27.3249 6.7975 27.2911 7.76979C27.2836 7.96558 27.1897 8.05748 27.0069 8.04682C26.3484 8.49701 25.258 8.23995 24.7284 7.62461Z" fill="#FFED00" fill-opacity="0.941176"/>
<path fill-rule="evenodd" clip-rule="evenodd" d="M6.78296 21.527C8.23393 21.9999 8.92624 23.2092 8.69589 24.5598C8.68963 24.7556 8.59448 24.8475 8.31656 24.9287C7.20485 25.255 5.99801 25.6746 4.70979 25.7971C4.0663 25.8571 3.49668 26.4098 2.84694 26.6655C2.56901 26.7468 2.28358 27.0238 2.00565 27.1051C1.35591 27.3608 0.99661 27.145 0.84012 26.3565C0.683631 25.568 0.527141 24.7796 0.092727 24.0723C-0.165167 23.5702 0.1403 22.7111 0.694898 22.5473C2.45759 21.9652 4.31418 21.29 6.32851 21.4045C6.41615 21.5071 6.59893 21.5177 6.78296 21.527Z" fill="#FFED00" fill-opacity="0.941176"/>
<path fill-rule="evenodd" clip-rule="evenodd" d="M41.3046 25.4016C41.5637 25.9037 42.0169 26.0262 42.5602 26.2527C44.0988 26.8267 45.7526 26.7255 47.3125 26.7175C47.8608 26.7481 48.3416 26.0928 48.1788 25.4988C48.0236 24.7103 48.0499 23.9325 48.0699 23.3491C48.0899 22.7644 47.8258 22.4567 47.2699 22.6206C46.7141 22.7844 46.1645 22.7537 45.6086 22.9162C45.0528 23.0801 44.5032 23.0494 43.8672 22.9149C42.9583 22.6685 42.1246 22.9136 41.2094 22.8616C41.0266 22.8523 40.9315 22.9442 40.8363 23.0361C40.6335 23.6088 40.7762 24.7876 41.3046 25.4016Z" fill="#FFED00" fill-opacity="0.941176"/>
<path fill-rule="evenodd" clip-rule="evenodd" d="M9.07302 30.9303C9.56878 30.8983 9.9406 30.873 10.4451 30.9476C11.4592 31.2007 11.9074 32.2422 11.2113 32.9308C10.4051 33.8418 9.34344 34.661 8.00263 35.0712C7.15133 35.3429 6.94977 35.9982 6.49908 36.6708C6.38391 36.7854 6.39893 36.9985 6.29001 37.2196C5.94198 37.5645 5.71664 37.9015 4.95798 37.7363C4.19932 37.5725 3.7962 37.1716 3.38682 36.6628C3.11516 36.3591 2.83723 35.9489 2.44914 35.7611C2.05479 35.4654 2.031 35.1458 2.38028 34.8008C3.90637 33.5222 5.55639 32.2342 7.48559 31.3565C8.08276 30.9969 8.57726 30.9636 9.07302 30.9303Z" fill="#FFED00" fill-opacity="0.941176"/>
<path fill-rule="evenodd" clip-rule="evenodd" d="M15.2532 37.8935C16.6278 37.2462 17.8872 37.691 18.5469 38.8871C18.6609 39.0403 18.6471 39.1774 18.4894 39.4332C17.8596 40.4574 17.2162 41.6162 16.3285 42.6058C15.8854 43.0999 15.8002 43.919 15.471 44.5677C15.3132 44.8234 15.2707 45.2336 15.1129 45.4893C14.7837 46.1366 14.3831 46.2219 13.7822 45.7264C13.18 45.231 12.5778 44.7355 11.8192 44.4957C11.3184 44.2906 11.0167 43.4196 11.3322 42.9081C12.2899 41.2366 13.2626 39.4278 14.8375 38.1159C14.9665 38.1332 15.1092 38.0134 15.2532 37.8935Z" fill="#FFED00" fill-opacity="0.941176"/>
<path fill-rule="evenodd" clip-rule="evenodd" d="M40.6758 18.4503C39.325 18.8845 38.4011 18.152 38.2108 16.7215C38.1607 16.5324 38.2146 16.3872 38.4236 16.1395C39.2624 15.1512 40.1563 14.0164 41.2016 13.1161C41.7237 12.6659 42.0442 11.7922 42.5174 11.1515C42.7265 10.9051 42.8867 10.4682 43.097 10.2218C43.5702 9.58119 43.9333 9.56787 44.2876 10.2245C44.6431 10.8825 44.9987 11.5391 45.5633 11.9493C45.9213 12.2716 45.9101 13.2772 45.4907 13.7727C44.1787 15.4003 42.8128 17.1744 41.0915 18.2918C40.9888 18.2479 40.8323 18.3491 40.6758 18.4503Z" fill="#FFED00" fill-opacity="0.941176"/>
<path fill-rule="evenodd" clip-rule="evenodd" d="M32.8364 11.8854C32.5823 11.4006 32.5047 10.9717 32.5898 10.2897C32.7463 8.6182 33.3672 6.99328 34.0533 5.48956C34.2023 4.92882 35.006 4.77832 35.4216 5.0114C36.0764 5.42163 36.6685 5.70932 37.3746 5.93308C37.9029 6.1009 38.0932 6.46451 37.7677 6.9693C37.4435 7.47276 37.1192 7.97755 36.9064 8.41708C36.5822 8.92188 36.2567 9.42667 36.2854 10.042C36.2141 11.0316 35.5506 11.7335 35.3027 12.6672C35.2539 12.8537 35.1412 12.9189 34.9647 12.863C34.2235 13.1347 33.2158 12.6139 32.8364 11.8854Z" fill="#FFED00" fill-opacity="0.941176"/>
</svg>
