<svg width="60" height="60" viewBox="0 0 49 49" fill="none" xmlns="http://www.w3.org/2000/svg">
<path fill-rule="evenodd" clip-rule="evenodd" d="M32.8895 31.6762C31.2758 33.2412 29.5757 34.7049 27.3523 35.3589C24.851 36.0941 22.2896 35.9489 19.8483 34.9327C17.0478 33.702 14.9108 31.8267 14.1096 28.4663C13.8654 27.5766 13.5324 26.583 13.2883 25.6906C13.0429 24.8009 13.1656 23.9298 13.1982 22.9575C13.4486 21.0223 13.9631 19.3933 14.9383 17.6952C15.23 17.2237 15.4328 16.6509 15.7233 16.1795C16.4344 14.1736 18.291 13.4983 19.8771 12.7112C20.2502 12.538 20.7109 12.4661 21.0026 11.9959C21.0978 11.904 21.1916 11.8108 21.3757 11.8215C22.9343 11.8121 24.4253 11.1169 25.9715 11.4978C26.337 11.5178 26.7915 11.6417 27.1645 11.4672C27.9983 11.2221 28.6017 12.3289 28.2975 13.188C28.29 13.3838 28.1961 13.4757 28.0121 13.465C27.0982 13.4131 26.3383 14.1496 25.3417 13.8007C25.159 13.79 24.9762 13.7794 24.6983 13.8619C22.9293 14.6384 20.9901 15.0167 19.3839 16.3872C19.0046 16.7562 18.7141 17.2263 18.4224 17.6978C17.5548 18.9152 16.7837 20.0406 16.9063 21.8028C16.9739 22.4887 16.5808 23.2465 16.6497 23.9325C16.6021 25.295 17.2068 26.4005 17.9054 27.4154C19.3025 29.4439 21.283 30.5307 23.365 31.3312C23.6354 31.4431 23.8194 31.4537 24.0085 31.2699C25.2078 31.0448 26.3195 30.7185 27.4312 30.3922C28.5429 30.0646 29.0311 29.2148 29.8774 28.5808C31.0167 27.4753 31.3409 26.0316 31.8479 24.5984C32.2548 23.4517 31.8267 22.5513 31.3109 21.547C31.2232 21.4445 31.1356 21.3419 31.1419 21.1475C30.1979 19.2415 28.7607 18.3811 26.7339 18.6555C25.8125 18.798 24.8973 18.746 24.056 19.1869C22.565 19.8821 21.6849 21.4884 21.8076 23.2505C21.924 25.2058 22.9894 26.2407 24.9148 26.2527C26.0128 26.3153 26.7777 25.3842 26.7226 24.3081C26.655 23.6221 26.3908 23.3145 25.6522 23.4676C25.1903 23.5396 24.9136 23.6208 24.4516 23.6927C24.175 23.774 23.8081 23.754 23.5427 23.4463C23.3737 23.0468 23.3875 22.6578 23.5841 22.2782C23.882 21.6136 24.5318 21.3579 25.0876 21.1941C25.5496 21.1222 26.1054 20.9597 26.5661 20.8877C27.942 20.8691 28.7419 21.5963 29.2515 22.795C29.4142 23.3891 29.4893 23.8805 29.7472 24.3827C29.9976 25.0792 29.7885 25.8464 29.4092 26.2154C28.454 27.3302 27.4988 28.4463 26.0203 28.7526C22.6038 29.4359 19.6343 27.8057 19.1172 24.1696C18.8794 23.084 18.8243 22.0092 19.2311 20.8624C19.9485 18.6608 21.283 17.177 23.2423 16.2154C24.9224 15.3364 26.7664 15.0513 28.5279 14.4693C28.9009 14.2948 29.1651 14.6025 29.6195 14.725C31.9857 15.2498 33.5806 16.9 34.7937 18.9178C36.9658 22.4527 36.5677 26.0356 34.7924 29.6397C34.2103 30.5813 33.4579 31.1234 32.8895 31.6762Z" fill="#FFED00" fill-opacity="0.941176"/>
<path fill-rule="evenodd" clip-rule="evenodd" d="M11.5317 12.7671C11.8221 13.1747 12.0399 13.4797 12.2365 13.9631C12.5332 15.0047 11.8083 16.0676 10.8081 15.9117C9.54613 15.8038 8.23287 15.4176 7.15247 14.5252C6.4564 13.9631 5.74531 14.2135 4.88901 14.2615C4.7225 14.2349 4.53346 14.3867 4.27306 14.436C3.7723 14.3574 3.34414 14.3814 3.09752 13.6195C2.85089 12.8563 3.01113 12.2477 3.26402 11.5631C3.40173 11.1328 3.63459 10.6254 3.60454 10.1685C3.66964 9.63578 3.95257 9.40936 4.45334 9.48661C6.43387 9.97808 8.48576 10.5708 10.306 11.6696C10.952 11.952 11.2425 12.3595 11.5317 12.7671Z" fill="#FFED00" fill-opacity="0.941176"/>
<path fill-rule="evenodd" clip-rule="evenodd" d="M37.8094 43.2611C37.7143 43.353 37.5252 43.5381 37.2473 43.6194C36.5087 43.7725 35.8577 44.0283 35.2067 44.2826C34.0887 44.8048 34.0011 44.7022 33.3013 43.6873C32.6916 42.7763 31.8841 42.2435 31.3683 41.2392C30.9414 40.3375 30.3305 39.4252 29.9023 38.5235C29.7333 38.1253 29.7471 37.7363 29.8485 37.4486C29.9624 36.7734 30.6134 36.5176 30.7286 35.8424C30.7286 35.8424 30.8237 35.7505 30.9189 35.6572C32.6678 35.4641 33.7457 36.1101 34.5119 37.8109C35.0214 39.0096 35.7125 40.2177 36.9806 40.6798C37.4351 40.8024 37.7005 41.11 37.9647 41.4177C38.3991 42.125 38.379 42.7083 37.8094 43.2611Z" fill="#FFED00" fill-opacity="0.941176"/>
<path fill-rule="evenodd" clip-rule="evenodd" d="M18.9117 9.96877C18.635 10.05 18.5199 10.7266 18.1606 10.5109C17.5296 10.1832 16.791 10.335 16.1675 9.81293C15.3663 9.08571 15.2173 8.10277 14.8781 7.30363C14.4637 6.01301 14.0418 4.91685 12.9714 4.07642C12.5232 3.75809 12.0825 3.24531 12.3805 2.58069C12.6784 1.91474 13.1467 1.64969 13.7901 1.58842C14.1557 1.6084 14.6164 1.53781 14.9832 1.55912C16.0887 1.42593 17.0839 1.77489 17.6886 2.8817C18.6451 4.39741 19.1333 6.1795 19.5277 8.05349C19.9621 8.76073 19.5702 9.51858 18.9117 9.96877Z" fill="#FFED00" fill-opacity="0.941176"/>
<path fill-rule="evenodd" clip-rule="evenodd" d="M37.3148 33.5834C36.2557 32.3541 36.3032 30.9916 37.2585 29.8768C37.4475 29.693 37.6315 29.7023 37.7192 29.8048C38.8985 30.1644 40.079 30.5241 41.1569 31.17C41.7866 31.4977 42.5265 31.3445 43.1637 31.4777C43.5293 31.499 43.801 31.6122 44.1665 31.6322C44.8926 31.868 44.974 32.165 44.7637 32.9335C44.5546 33.7007 44.3443 34.4692 44.2229 35.3402C44.2028 35.9236 43.4504 36.4657 42.9084 36.2393C41.0029 35.6439 39.1864 35.1511 37.5789 33.8911C37.4901 33.7886 37.4024 33.686 37.3148 33.5834Z" fill="#FFED00" fill-opacity="0.941176"/>
<path fill-rule="evenodd" clip-rule="evenodd" d="M23.5782 40.4121C24.1478 39.8594 25.53 39.6463 26.0658 40.0658C26.3374 40.179 26.2348 40.4654 26.3174 40.7624C26.4539 42.1343 26.2235 43.4861 26.36 44.858C26.4276 45.5453 26.6792 46.2419 26.8357 47.0303C27.1549 48.4129 26.8695 48.6886 25.6764 48.7192C25.1281 48.6872 24.5785 48.6566 24.0227 48.8204C23.284 48.9736 22.5717 48.3476 22.4152 47.5591C22.2925 45.7983 22.2575 44.1388 22.5955 42.3061C22.8058 41.5376 23.1037 40.873 23.5782 40.4121Z" fill="#FFED00" fill-opacity="0.941176"/>
<path fill-rule="evenodd" clip-rule="evenodd" d="M24.7284 7.62461C24.3754 7.21571 24.2064 6.81614 24.1375 6.13021C23.9197 4.46 24.1638 2.7192 24.4943 1.08096C24.5144 0.497584 25.2605 0.149957 25.7149 0.273824C26.4398 0.509571 27.077 0.642762 27.8094 0.684051C28.359 0.716017 28.6231 1.02235 28.4203 1.59641C28.2163 2.16913 28.0135 2.74318 27.9058 3.22399C27.703 3.79805 27.5002 4.37077 27.6629 4.9648C27.8119 5.94774 27.3249 6.7975 27.2911 7.76979C27.2836 7.96558 27.1897 8.05748 27.0069 8.04682C26.3484 8.49701 25.258 8.23995 24.7284 7.62461Z" fill="#FFED00" fill-opacity="0.941176"/>
<path fill-rule="evenodd" clip-rule="evenodd" d="M6.78296 21.527C8.23393 21.9999 8.92624 23.2092 8.69589 24.5598C8.68963 24.7556 8.59448 24.8475 8.31656 24.9287C7.20485 25.255 5.99801 25.6746 4.70979 25.7971C4.0663 25.8571 3.49668 26.4098 2.84694 26.6655C2.56901 26.7468 2.28358 27.0238 2.00565 27.1051C1.35591 27.3608 0.99661 27.145 0.84012 26.3565C0.683631 25.568 0.527141 24.7796 0.092727 24.0723C-0.165167 23.5702 0.1403 22.7111 0.694898 22.5473C2.45759 21.9652 4.31418 21.29 6.32851 21.4045C6.41615 21.5071 6.59893 21.5177 6.78296 21.527Z" fill="#FFED00" fill-opacity="0.941176"/>
<path fill-rule="evenodd" clip-rule="evenodd" d="M41.3046 25.4016C41.5637 25.9037 42.0169 26.0262 42.5602 26.2527C44.0988 26.8267 45.7526 26.7255 47.3125 26.7175C47.8608 26.7481 48.3416 26.0928 48.1788 25.4988C48.0236 24.7103 48.0499 23.9325 48.0699 23.3491C48.0899 22.7644 47.8258 22.4567 47.2699 22.6206C46.7141 22.7844 46.1645 22.7537 45.6086 22.9162C45.0528 23.0801 44.5032 23.0494 43.8672 22.9149C42.9583 22.6685 42.1246 22.9136 41.2094 22.8616C41.0266 22.8523 40.9315 22.9442 40.8363 23.0361C40.6335 23.6088 40.7762 24.7876 41.3046 25.4016Z" fill="#FFED00" fill-opacity="0.941176"/>
<path fill-rule="evenodd" clip-rule="evenodd" d="M9.07302 30.9303C9.56878 30.8983 9.9406 30.873 10.4451 30.9476C11.4592 31.2007 11.9074 32.2422 11.2113 32.9308C10.4051 33.8418 9.34344 34.661 8.00263 35.0712C7.15133 35.3429 6.94977 35.9982 6.49908 36.6708C6.38391 36.7854 6.39893 36.9985 6.29001 37.2196C5.94198 37.5645 5.71664 37.9015 4.95798 37.7363C4.19932 37.5725 3.7962 37.1716 3.38682 36.6628C3.11516 36.3591 2.83723 35.9489 2.44914 35.7611C2.05479 35.4654 2.031 35.1458 2.38028 34.8008C3.90637 33.5222 5.55639 32.2342 7.48559 31.3565C8.08276 30.9969 8.57726 30.9636 9.07302 30.9303Z" fill="#FFED00" fill-opacity="0.941176"/>
<path fill-rule="evenodd" clip-rule="evenodd" d="M15.2532 37.8935C16.6278 37.2462 17.8872 37.691 18.5469 38.8871C18.6609 39.0403 18.6471 39.1774 18.4894 39.4332C17.8596 40.4574 17.2162 41.6162 16.3285 42.6058C15.8854 43.0999 15.8002 43.919 15.471 44.5677C15.3132 44.8234 15.2707 45.2336 15.1129 45.4893C14.7837 46.1366 14.3831 46.2219 13.7822 45.7264C13.18 45.231 12.5778 44.7355 11.8192 44.4957C11.3184 44.2906 11.0167 43.4196 11.3322 42.9081C12.2899 41.2366 13.2626 39.4278 14.8375 38.1159C14.9665 38.1332 15.1092 38.0134 15.2532 37.8935Z" fill="#FFED00" fill-opacity="0.941176"/>
<path fill-rule="evenodd" clip-rule="evenodd" d="M40.6758 18.4503C39.325 18.8845 38.4011 18.152 38.2108 16.7215C38.1607 16.5324 38.2146 16.3872 38.4236 16.1395C39.2624 15.1512 40.1563 14.0164 41.2016 13.1161C41.7237 12.6659 42.0442 11.7922 42.5174 11.1515C42.7265 10.9051 42.8867 10.4682 43.097 10.2218C43.5702 9.58119 43.9333 9.56787 44.2876 10.2245C44.6431 10.8825 44.9987 11.5391 45.5633 11.9493C45.9213 12.2716 45.9101 13.2772 45.4907 13.7727C44.1787 15.4003 42.8128 17.1744 41.0915 18.2918C40.9888 18.2479 40.8323 18.3491 40.6758 18.4503Z" fill="#FFED00" fill-opacity="0.941176"/>
<path fill-rule="evenodd" clip-rule="evenodd" d="M32.8364 11.8854C32.5823 11.4006 32.5047 10.9717 32.5898 10.2897C32.7463 8.6182 33.3672 6.99328 34.0533 5.48956C34.2023 4.92882 35.006 4.77832 35.4216 5.0114C36.0764 5.42163 36.6685 5.70932 37.3746 5.93308C37.9029 6.1009 38.0932 6.46451 37.7677 6.9693C37.4435 7.47276 37.1192 7.97755 36.9064 8.41708C36.5822 8.92188 36.2567 9.42667 36.2854 10.042C36.2141 11.0316 35.5506 11.7335 35.3027 12.6672C35.2539 12.8537 35.1412 12.9189 34.9647 12.863C34.2235 13.1347 33.2158 12.6139 32.8364 11.8854Z" fill="#FFED00" fill-opacity="0.941176"/>
</svg>
