<svg width="13" height="18" viewBox="0 0 13 18" fill="none" xmlns="http://www.w3.org/2000/svg">
<path fill-rule="evenodd" clip-rule="evenodd" d="M6.30078 0.339218C9.61025 0.339218 12.3008 3.00757 12.3008 6.28977C12.3008 9.47488 6.75868 17.2263 6.52183 17.5551C6.47131 17.6271 6.3892 17.6678 6.30078 17.6678C6.21236 17.6678 6.13025 17.624 6.07657 17.5551C5.84289 17.2231 0.300781 9.45609 0.300781 6.28977C0.300781 3.00757 2.99131 0.339218 6.30078 0.339218ZM6.30078 2.8635C8.20499 2.8635 9.75236 4.40125 9.75236 6.28977C9.75236 8.17828 8.20499 9.7129 6.30078 9.7129C4.39657 9.7129 2.84604 8.17828 2.84604 6.28977C2.84604 4.40125 4.39657 2.8635 6.30078 2.8635Z" fill="#FFED00"/>
</svg>
