<svg width="657" height="269" viewBox="0 0 657 269" fill="none" xmlns="http://www.w3.org/2000/svg">
<path d="M231.587 93.1335H198.359V262.215H231.587V93.1335Z" fill="#333333"/>
<path d="M222.424 84.5615H207.32V94.0978H222.424V84.5615Z" fill="#333333"/>
<path d="M219.303 78.9899H210.543V84.4545H219.303V78.9899Z" fill="#333333"/>
<path d="M214.369 92.8121L214.973 0.663574L215.477 92.8121H214.369Z" fill="#333333"/>
<path opacity="0.09" d="M216.684 105.884H213.16V109.634H216.684V105.884Z" fill="white"/>
<path opacity="0.33" d="M216.684 117.778H213.16V121.528H216.684V117.778Z" fill="white"/>
<path opacity="0.37" d="M216.684 129.779H213.16V133.529H216.684V129.779Z" fill="white"/>
<path opacity="0.14" d="M216.684 141.672H213.16V145.422H216.684V141.672Z" fill="white"/>
<path opacity="0.3" d="M216.684 153.673H213.16V157.423H216.684V153.673Z" fill="white"/>
<path opacity="0.16" d="M216.684 165.567H213.16V169.317H216.684V165.567Z" fill="white"/>
<path opacity="0.34" d="M216.684 177.567H213.16V181.318H216.684V177.567Z" fill="white"/>
<path opacity="0.29" d="M216.684 189.461H213.16V193.211H216.684V189.461Z" fill="white"/>
<path opacity="0.12" d="M216.684 201.462H213.16V205.212H216.684V201.462Z" fill="white"/>
<path d="M118.813 100.955H33.0254V131.386H118.813V100.955Z" fill="#E6E6E6"/>
<path d="M66.7564 100.955H33.0254V131.386H66.7564V100.955Z" fill="#B3B3B3"/>
<path d="M66.7572 131.386H0V278.93H66.7572V131.386Z" fill="#333333"/>
<path d="M170.871 131.386H66.7578V278.93H170.871V131.386Z" fill="#4D4D4D"/>
<path d="M21.1454 137.494H15.6074V143.387H21.1454V137.494Z" fill="white"/>
<path d="M28.5965 137.494H23.0586V143.387H28.5965V137.494Z" fill="white"/>
<path d="M36.1473 137.494H30.6094V143.387H36.1473V137.494Z" fill="white"/>
<path d="M43.7 137.494H38.1621V143.387H43.7V137.494Z" fill="white"/>
<path d="M51.1512 137.494H45.6133V143.387H51.1512V137.494Z" fill="white"/>
<path d="M84.8817 137.494H79.3438V143.387H84.8817V137.494Z" fill="white"/>
<path d="M92.2313 137.494H86.6934V143.387H92.2313V137.494Z" fill="white"/>
<path d="M99.5829 137.494H94.0449V143.387H99.5829V137.494Z" fill="white"/>
<path d="M106.932 137.494H101.395V143.387H106.932V137.494Z" fill="white"/>
<path d="M114.282 137.494H108.744V143.387H114.282V137.494Z" fill="white"/>
<path d="M121.634 137.494H116.096V143.387H121.634V137.494Z" fill="white"/>
<path d="M128.884 137.494H123.346V143.387H128.884V137.494Z" fill="white"/>
<path d="M136.233 137.494H130.695V143.387H136.233V137.494Z" fill="white"/>
<path d="M143.583 137.494H138.045V143.387H143.583V137.494Z" fill="white"/>
<path d="M150.934 137.494H145.396V143.387H150.934V137.494Z" fill="white"/>
<path d="M84.8817 145.208H79.3438V151.101H84.8817V145.208Z" fill="white"/>
<path d="M92.2313 145.208H86.6934V151.101H92.2313V145.208Z" fill="white"/>
<path d="M99.5829 145.208H94.0449V151.101H99.5829V145.208Z" fill="white"/>
<path d="M106.932 145.208H101.395V151.101H106.932V145.208Z" fill="white"/>
<path d="M114.282 145.208H108.744V151.101H114.282V145.208Z" fill="white"/>
<path d="M121.634 145.208H116.096V151.101H121.634V145.208Z" fill="white"/>
<path d="M128.884 145.208H123.346V151.101H128.884V145.208Z" fill="white"/>
<path d="M136.233 145.208H130.695V151.101H136.233V145.208Z" fill="white"/>
<path d="M143.583 145.208H138.045V151.101H143.583V145.208Z" fill="white"/>
<path d="M150.934 145.208H145.396V151.101H150.934V145.208Z" fill="white"/>
<path d="M84.8817 152.923H79.3438V158.816H84.8817V152.923Z" fill="white"/>
<path d="M92.2313 152.923H86.6934V158.816H92.2313V152.923Z" fill="white"/>
<path d="M99.5829 152.923H94.0449V158.816H99.5829V152.923Z" fill="white"/>
<path d="M106.932 152.923H101.395V158.816H106.932V152.923Z" fill="white"/>
<path d="M114.282 152.923H108.744V158.816H114.282V152.923Z" fill="white"/>
<path d="M121.634 152.923H116.096V158.816H121.634V152.923Z" fill="white"/>
<path d="M128.884 152.923H123.346V158.816H128.884V152.923Z" fill="white"/>
<path d="M136.233 152.923H130.695V158.816H136.233V152.923Z" fill="white"/>
<path d="M143.583 152.923H138.045V158.816H143.583V152.923Z" fill="white"/>
<path d="M150.934 152.923H145.396V158.816H150.934V152.923Z" fill="white"/>
<path d="M84.8817 160.531H79.3438V166.424H84.8817V160.531Z" fill="white"/>
<path d="M92.2313 160.531H86.6934V166.424H92.2313V160.531Z" fill="white"/>
<path d="M99.5829 160.531H94.0449V166.424H99.5829V160.531Z" fill="white"/>
<path d="M106.932 160.531H101.395V166.424H106.932V160.531Z" fill="white"/>
<path d="M114.282 160.531H108.744V166.424H114.282V160.531Z" fill="white"/>
<path d="M121.634 160.531H116.096V166.424H121.634V160.531Z" fill="white"/>
<path d="M128.884 160.531H123.346V166.424H128.884V160.531Z" fill="white"/>
<path d="M136.233 160.531H130.695V166.424H136.233V160.531Z" fill="white"/>
<path d="M143.583 160.531H138.045V166.424H143.583V160.531Z" fill="white"/>
<path d="M150.934 160.531H145.396V166.424H150.934V160.531Z" fill="white"/>
<path d="M84.8817 168.245H79.3438V174.139H84.8817V168.245Z" fill="white"/>
<path d="M92.2313 168.245H86.6934V174.139H92.2313V168.245Z" fill="white"/>
<path d="M99.5829 168.245H94.0449V174.139H99.5829V168.245Z" fill="white"/>
<path d="M106.932 168.245H101.395V174.139H106.932V168.245Z" fill="white"/>
<path d="M114.282 168.245H108.744V174.139H114.282V168.245Z" fill="white"/>
<path d="M121.634 168.245H116.096V174.139H121.634V168.245Z" fill="white"/>
<path d="M128.884 168.245H123.346V174.139H128.884V168.245Z" fill="white"/>
<path d="M136.233 168.245H130.695V174.139H136.233V168.245Z" fill="white"/>
<path d="M143.583 168.245H138.045V174.139H143.583V168.245Z" fill="white"/>
<path d="M150.934 168.245H145.396V174.139H150.934V168.245Z" fill="white"/>
<path d="M84.8817 175.96H79.3438V181.853H84.8817V175.96Z" fill="white"/>
<path d="M92.2313 175.96H86.6934V181.853H92.2313V175.96Z" fill="white"/>
<path d="M99.5829 175.96H94.0449V181.853H99.5829V175.96Z" fill="white"/>
<path d="M106.932 175.96H101.395V181.853H106.932V175.96Z" fill="white"/>
<path d="M114.282 175.96H108.744V181.853H114.282V175.96Z" fill="white"/>
<path d="M121.634 175.96H116.096V181.853H121.634V175.96Z" fill="white"/>
<path d="M128.884 175.96H123.346V181.853H128.884V175.96Z" fill="white"/>
<path d="M136.233 175.96H130.695V181.853H136.233V175.96Z" fill="white"/>
<path d="M143.583 175.96H138.045V181.853H143.583V175.96Z" fill="white"/>
<path d="M150.934 175.96H145.396V181.853H150.934V175.96Z" fill="white"/>
<path d="M84.8817 183.675H79.3438V189.568H84.8817V183.675Z" fill="white"/>
<path d="M92.2313 183.675H86.6934V189.568H92.2313V183.675Z" fill="white"/>
<path d="M99.5829 183.675H94.0449V189.568H99.5829V183.675Z" fill="white"/>
<path d="M106.932 183.675H101.395V189.568H106.932V183.675Z" fill="white"/>
<path d="M114.282 183.675H108.744V189.568H114.282V183.675Z" fill="white"/>
<path d="M121.634 183.675H116.096V189.568H121.634V183.675Z" fill="white"/>
<path d="M128.884 183.675H123.346V189.568H128.884V183.675Z" fill="white"/>
<path d="M136.233 183.675H130.695V189.568H136.233V183.675Z" fill="white"/>
<path d="M143.583 183.675H138.045V189.568H143.583V183.675Z" fill="white"/>
<path d="M150.934 183.675H145.396V189.568H150.934V183.675Z" fill="white"/>
<path d="M84.8817 191.39H79.3438V197.283H84.8817V191.39Z" fill="white"/>
<path d="M92.2313 191.39H86.6934V197.283H92.2313V191.39Z" fill="white"/>
<path d="M99.5829 191.39H94.0449V197.283H99.5829V191.39Z" fill="white"/>
<path d="M106.932 191.39H101.395V197.283H106.932V191.39Z" fill="white"/>
<path d="M114.282 191.39H108.744V197.283H114.282V191.39Z" fill="white"/>
<path d="M121.634 191.39H116.096V197.283H121.634V191.39Z" fill="white"/>
<path d="M128.884 191.39H123.346V197.283H128.884V191.39Z" fill="white"/>
<path d="M136.233 191.39H130.695V197.283H136.233V191.39Z" fill="white"/>
<path d="M143.583 191.39H138.045V197.283H143.583V191.39Z" fill="white"/>
<path d="M150.934 191.39H145.396V197.283H150.934V191.39Z" fill="white"/>
<path d="M84.8817 198.997H79.3438V204.89H84.8817V198.997Z" fill="white"/>
<path d="M92.2313 198.997H86.6934V204.89H92.2313V198.997Z" fill="white"/>
<path d="M99.5829 198.997H94.0449V204.89H99.5829V198.997Z" fill="white"/>
<path d="M106.932 198.997H101.395V204.89H106.932V198.997Z" fill="white"/>
<path d="M114.282 198.997H108.744V204.89H114.282V198.997Z" fill="white"/>
<path d="M121.634 198.997H116.096V204.89H121.634V198.997Z" fill="white"/>
<path d="M128.884 198.997H123.346V204.89H128.884V198.997Z" fill="white"/>
<path d="M136.233 198.997H130.695V204.89H136.233V198.997Z" fill="white"/>
<path d="M143.583 198.997H138.045V204.89H143.583V198.997Z" fill="white"/>
<path d="M150.934 198.997H145.396V204.89H150.934V198.997Z" fill="white"/>
<path d="M84.8817 206.712H79.3438V212.605H84.8817V206.712Z" fill="white"/>
<path d="M92.2313 206.712H86.6934V212.605H92.2313V206.712Z" fill="white"/>
<path d="M99.5829 206.712H94.0449V212.605H99.5829V206.712Z" fill="white"/>
<path d="M106.932 206.712H101.395V212.605H106.932V206.712Z" fill="white"/>
<path d="M114.282 206.712H108.744V212.605H114.282V206.712Z" fill="white"/>
<path d="M121.634 206.712H116.096V212.605H121.634V206.712Z" fill="white"/>
<path d="M128.884 206.712H123.346V212.605H128.884V206.712Z" fill="white"/>
<path d="M136.233 206.712H130.695V212.605H136.233V206.712Z" fill="white"/>
<path d="M143.583 206.712H138.045V212.605H143.583V206.712Z" fill="white"/>
<path d="M150.934 206.712H145.396V212.605H150.934V206.712Z" fill="white"/>
<path d="M84.8817 214.427H79.3438V220.32H84.8817V214.427Z" fill="white"/>
<path d="M92.2313 214.427H86.6934V220.32H92.2313V214.427Z" fill="white"/>
<path d="M99.5829 214.427H94.0449V220.32H99.5829V214.427Z" fill="white"/>
<path d="M106.932 214.427H101.395V220.32H106.932V214.427Z" fill="white"/>
<path d="M114.282 214.427H108.744V220.32H114.282V214.427Z" fill="white"/>
<path d="M121.634 214.427H116.096V220.32H121.634V214.427Z" fill="white"/>
<path d="M128.884 214.427H123.346V220.32H128.884V214.427Z" fill="white"/>
<path d="M136.233 214.427H130.695V220.32H136.233V214.427Z" fill="white"/>
<path d="M143.583 214.427H138.045V220.32H143.583V214.427Z" fill="white"/>
<path d="M150.934 214.427H145.396V220.32H150.934V214.427Z" fill="white"/>
<path d="M84.8817 222.141H79.3438V228.035H84.8817V222.141Z" fill="white"/>
<path d="M92.2313 222.141H86.6934V228.035H92.2313V222.141Z" fill="white"/>
<path d="M99.5829 222.141H94.0449V228.035H99.5829V222.141Z" fill="white"/>
<path d="M106.932 222.141H101.395V228.035H106.932V222.141Z" fill="white"/>
<path d="M114.282 222.141H108.744V228.035H114.282V222.141Z" fill="white"/>
<path d="M121.634 222.141H116.096V228.035H121.634V222.141Z" fill="white"/>
<path d="M128.884 222.141H123.346V228.035H128.884V222.141Z" fill="white"/>
<path d="M136.233 222.141H130.695V228.035H136.233V222.141Z" fill="white"/>
<path d="M143.583 222.141H138.045V228.035H143.583V222.141Z" fill="white"/>
<path d="M150.934 222.141H145.396V228.035H150.934V222.141Z" fill="white"/>
<path d="M84.8817 229.856H79.3438V235.749H84.8817V229.856Z" fill="white"/>
<path d="M92.2313 229.856H86.6934V235.749H92.2313V229.856Z" fill="white"/>
<path d="M99.5829 229.856H94.0449V235.749H99.5829V229.856Z" fill="white"/>
<path d="M106.932 229.856H101.395V235.749H106.932V229.856Z" fill="white"/>
<path d="M114.282 229.856H108.744V235.749H114.282V229.856Z" fill="white"/>
<path d="M121.634 229.856H116.096V235.749H121.634V229.856Z" fill="white"/>
<path d="M128.884 229.856H123.346V235.749H128.884V229.856Z" fill="white"/>
<path d="M136.233 229.856H130.695V235.749H136.233V229.856Z" fill="white"/>
<path d="M143.583 229.856H138.045V235.749H143.583V229.856Z" fill="white"/>
<path d="M150.934 229.856H145.396V235.749H150.934V229.856Z" fill="white"/>
<path d="M84.8817 237.464H79.3438V243.357H84.8817V237.464Z" fill="white"/>
<path d="M92.2313 237.464H86.6934V243.357H92.2313V237.464Z" fill="white"/>
<path d="M99.5829 237.464H94.0449V243.357H99.5829V237.464Z" fill="white"/>
<path d="M106.932 237.464H101.395V243.357H106.932V237.464Z" fill="white"/>
<path d="M114.282 237.464H108.744V243.357H114.282V237.464Z" fill="white"/>
<path d="M121.634 237.464H116.096V243.357H121.634V237.464Z" fill="white"/>
<path d="M128.884 237.464H123.346V243.357H128.884V237.464Z" fill="white"/>
<path d="M136.233 237.464H130.695V243.357H136.233V237.464Z" fill="white"/>
<path d="M143.583 237.464H138.045V243.357H143.583V237.464Z" fill="white"/>
<path d="M150.934 237.464H145.396V243.357H150.934V237.464Z" fill="white"/>
<path d="M158.284 237.464H152.746V243.357H158.284V237.464Z" fill="white"/>
<path d="M84.8817 245.179H79.3438V251.072H84.8817V245.179Z" fill="white"/>
<path d="M92.2313 245.179H86.6934V251.072H92.2313V245.179Z" fill="white"/>
<path d="M99.5829 245.179H94.0449V251.072H99.5829V245.179Z" fill="white"/>
<path d="M106.932 245.179H101.395V251.072H106.932V245.179Z" fill="white"/>
<path d="M114.282 245.179H108.744V251.072H114.282V245.179Z" fill="white"/>
<path d="M121.634 245.179H116.096V251.072H121.634V245.179Z" fill="white"/>
<path d="M128.884 245.179H123.346V251.072H128.884V245.179Z" fill="white"/>
<path d="M136.233 245.179H130.695V251.072H136.233V245.179Z" fill="white"/>
<path d="M143.583 245.179H138.045V251.072H143.583V245.179Z" fill="white"/>
<path d="M150.934 245.179H145.396V251.072H150.934V245.179Z" fill="white"/>
<path d="M158.284 245.179H152.746V251.072H158.284V245.179Z" fill="white"/>
<path d="M84.8817 252.893H79.3438V258.787H84.8817V252.893Z" fill="white"/>
<path d="M92.2313 252.893H86.6934V258.787H92.2313V252.893Z" fill="white"/>
<path d="M99.5829 252.893H94.0449V258.787H99.5829V252.893Z" fill="white"/>
<path d="M106.932 252.893H101.395V258.787H106.932V252.893Z" fill="white"/>
<path d="M114.282 252.893H108.744V258.787H114.282V252.893Z" fill="white"/>
<path d="M121.634 252.893H116.096V258.787H121.634V252.893Z" fill="white"/>
<path d="M128.884 252.893H123.346V258.787H128.884V252.893Z" fill="white"/>
<path d="M136.233 252.893H130.695V258.787H136.233V252.893Z" fill="white"/>
<path d="M143.583 252.893H138.045V258.787H143.583V252.893Z" fill="white"/>
<path d="M150.934 252.893H145.396V258.787H150.934V252.893Z" fill="white"/>
<path d="M158.284 252.893H152.746V258.787H158.284V252.893Z" fill="white"/>
<path d="M84.8817 260.608H79.3438V266.501H84.8817V260.608Z" fill="white"/>
<path d="M92.2313 260.608H86.6934V266.501H92.2313V260.608Z" fill="white"/>
<path d="M99.5829 260.608H94.0449V266.501H99.5829V260.608Z" fill="white"/>
<path d="M106.932 260.608H101.395V266.501H106.932V260.608Z" fill="white"/>
<path d="M114.282 260.608H108.744V266.501H114.282V260.608Z" fill="white"/>
<path d="M121.634 260.608H116.096V266.501H121.634V260.608Z" fill="white"/>
<path d="M128.884 260.608H123.346V266.501H128.884V260.608Z" fill="white"/>
<path d="M136.233 260.608H130.695V266.501H136.233V260.608Z" fill="white"/>
<path d="M143.583 260.608H138.045V266.501H143.583V260.608Z" fill="white"/>
<path d="M150.934 260.608H145.396V266.501H150.934V260.608Z" fill="white"/>
<path d="M158.284 260.608H152.746V266.501H158.284V260.608Z" fill="white"/>
<path d="M84.8817 268.323H79.3438V274.216H84.8817V268.323Z" fill="white"/>
<path d="M92.2313 268.323H86.6934V274.216H92.2313V268.323Z" fill="white"/>
<path d="M99.5829 268.323H94.0449V274.216H99.5829V268.323Z" fill="white"/>
<path d="M106.932 268.323H101.395V274.216H106.932V268.323Z" fill="white"/>
<path d="M114.282 268.323H108.744V274.216H114.282V268.323Z" fill="white"/>
<path d="M121.634 268.323H116.096V274.216H121.634V268.323Z" fill="white"/>
<path d="M128.884 268.323H123.346V274.216H128.884V268.323Z" fill="white"/>
<path d="M136.233 268.323H130.695V274.216H136.233V268.323Z" fill="white"/>
<path d="M143.583 268.323H138.045V274.216H143.583V268.323Z" fill="white"/>
<path d="M150.934 268.323H145.396V274.216H150.934V268.323Z" fill="white"/>
<path d="M158.284 268.323H152.746V274.216H158.284V268.323Z" fill="white"/>
<path d="M21.1454 145.208H15.6074V151.101H21.1454V145.208Z" fill="white"/>
<path d="M28.5965 145.208H23.0586V151.101H28.5965V145.208Z" fill="white"/>
<path d="M36.1473 145.208H30.6094V151.101H36.1473V145.208Z" fill="white"/>
<path d="M43.7 145.208H38.1621V151.101H43.7V145.208Z" fill="white"/>
<path d="M51.1512 145.208H45.6133V151.101H51.1512V145.208Z" fill="white"/>
<path d="M21.1454 152.923H15.6074V158.816H21.1454V152.923Z" fill="white"/>
<path d="M28.5965 152.923H23.0586V158.816H28.5965V152.923Z" fill="white"/>
<path d="M36.1473 152.923H30.6094V158.816H36.1473V152.923Z" fill="white"/>
<path d="M43.7 152.923H38.1621V158.816H43.7V152.923Z" fill="white"/>
<path d="M51.1512 152.923H45.6133V158.816H51.1512V152.923Z" fill="white"/>
<path d="M21.1454 160.531H15.6074V166.424H21.1454V160.531Z" fill="white"/>
<path d="M28.5965 160.531H23.0586V166.424H28.5965V160.531Z" fill="white"/>
<path d="M36.1473 160.531H30.6094V166.424H36.1473V160.531Z" fill="white"/>
<path d="M43.7 160.531H38.1621V166.424H43.7V160.531Z" fill="white"/>
<path d="M51.1512 160.531H45.6133V166.424H51.1512V160.531Z" fill="white"/>
<path d="M21.1454 168.245H15.6074V174.139H21.1454V168.245Z" fill="white"/>
<path d="M28.5965 168.245H23.0586V174.139H28.5965V168.245Z" fill="white"/>
<path d="M36.1473 168.245H30.6094V174.139H36.1473V168.245Z" fill="white"/>
<path d="M43.7 168.245H38.1621V174.139H43.7V168.245Z" fill="white"/>
<path d="M51.1512 168.245H45.6133V174.139H51.1512V168.245Z" fill="white"/>
<path d="M21.1454 175.96H15.6074V181.853H21.1454V175.96Z" fill="white"/>
<path d="M28.5965 175.96H23.0586V181.853H28.5965V175.96Z" fill="white"/>
<path d="M36.1473 175.96H30.6094V181.853H36.1473V175.96Z" fill="white"/>
<path d="M43.7 175.96H38.1621V181.853H43.7V175.96Z" fill="white"/>
<path d="M51.1512 175.96H45.6133V181.853H51.1512V175.96Z" fill="white"/>
<path d="M21.1454 183.675H15.6074V189.568H21.1454V183.675Z" fill="white"/>
<path d="M28.5965 183.675H23.0586V189.568H28.5965V183.675Z" fill="white"/>
<path d="M36.1473 183.675H30.6094V189.568H36.1473V183.675Z" fill="white"/>
<path d="M43.7 183.675H38.1621V189.568H43.7V183.675Z" fill="white"/>
<path d="M51.1512 183.675H45.6133V189.568H51.1512V183.675Z" fill="white"/>
<path d="M21.1454 191.39H15.6074V197.283H21.1454V191.39Z" fill="white"/>
<path d="M28.5965 191.39H23.0586V197.283H28.5965V191.39Z" fill="white"/>
<path d="M36.1473 191.39H30.6094V197.283H36.1473V191.39Z" fill="white"/>
<path d="M43.7 191.39H38.1621V197.283H43.7V191.39Z" fill="white"/>
<path d="M51.1512 191.39H45.6133V197.283H51.1512V191.39Z" fill="white"/>
<path d="M21.1454 198.997H15.6074V204.89H21.1454V198.997Z" fill="white"/>
<path d="M28.5965 198.997H23.0586V204.89H28.5965V198.997Z" fill="white"/>
<path d="M36.1473 198.997H30.6094V204.89H36.1473V198.997Z" fill="white"/>
<path d="M43.7 198.997H38.1621V204.89H43.7V198.997Z" fill="white"/>
<path d="M51.1512 198.997H45.6133V204.89H51.1512V198.997Z" fill="white"/>
<path d="M21.1454 206.712H15.6074V212.605H21.1454V206.712Z" fill="white"/>
<path d="M28.5965 206.712H23.0586V212.605H28.5965V206.712Z" fill="white"/>
<path d="M36.1473 206.712H30.6094V212.605H36.1473V206.712Z" fill="white"/>
<path d="M43.7 206.712H38.1621V212.605H43.7V206.712Z" fill="white"/>
<path d="M51.1512 206.712H45.6133V212.605H51.1512V206.712Z" fill="white"/>
<path d="M21.1454 214.427H15.6074V220.32H21.1454V214.427Z" fill="white"/>
<path d="M28.5965 214.427H23.0586V220.32H28.5965V214.427Z" fill="white"/>
<path d="M36.1473 214.427H30.6094V220.32H36.1473V214.427Z" fill="white"/>
<path d="M43.7 214.427H38.1621V220.32H43.7V214.427Z" fill="white"/>
<path d="M51.1512 214.427H45.6133V220.32H51.1512V214.427Z" fill="white"/>
<path d="M21.1454 222.141H15.6074V228.035H21.1454V222.141Z" fill="white"/>
<path d="M28.5965 222.141H23.0586V228.035H28.5965V222.141Z" fill="white"/>
<path d="M36.1473 222.141H30.6094V228.035H36.1473V222.141Z" fill="white"/>
<path d="M43.7 222.141H38.1621V228.035H43.7V222.141Z" fill="white"/>
<path d="M51.1512 222.141H45.6133V228.035H51.1512V222.141Z" fill="white"/>
<path d="M21.1454 229.856H15.6074V235.749H21.1454V229.856Z" fill="white"/>
<path d="M28.5965 229.856H23.0586V235.749H28.5965V229.856Z" fill="white"/>
<path d="M36.1473 229.856H30.6094V235.749H36.1473V229.856Z" fill="white"/>
<path d="M43.7 229.856H38.1621V235.749H43.7V229.856Z" fill="white"/>
<path d="M51.1512 229.856H45.6133V235.749H51.1512V229.856Z" fill="white"/>
<path d="M21.1454 237.464H15.6074V243.357H21.1454V237.464Z" fill="white"/>
<path d="M28.5965 237.464H23.0586V243.357H28.5965V237.464Z" fill="white"/>
<path d="M36.1473 237.464H30.6094V243.357H36.1473V237.464Z" fill="white"/>
<path d="M43.7 237.464H38.1621V243.357H43.7V237.464Z" fill="white"/>
<path d="M51.1512 237.464H45.6133V243.357H51.1512V237.464Z" fill="white"/>
<path d="M21.1454 245.179H15.6074V251.072H21.1454V245.179Z" fill="white"/>
<path d="M28.5965 245.179H23.0586V251.072H28.5965V245.179Z" fill="white"/>
<path d="M36.1473 245.179H30.6094V251.072H36.1473V245.179Z" fill="white"/>
<path d="M43.7 245.179H38.1621V251.072H43.7V245.179Z" fill="white"/>
<path d="M51.1512 245.179H45.6133V251.072H51.1512V245.179Z" fill="white"/>
<path d="M21.1454 252.893H15.6074V258.787H21.1454V252.893Z" fill="white"/>
<path d="M28.5965 252.893H23.0586V258.787H28.5965V252.893Z" fill="white"/>
<path d="M36.1473 252.893H30.6094V258.787H36.1473V252.893Z" fill="white"/>
<path d="M43.7 252.893H38.1621V258.787H43.7V252.893Z" fill="white"/>
<path d="M51.1512 252.893H45.6133V258.787H51.1512V252.893Z" fill="white"/>
<path d="M21.1454 260.608H15.6074V266.501H21.1454V260.608Z" fill="white"/>
<path d="M28.5965 260.608H23.0586V266.501H28.5965V260.608Z" fill="white"/>
<path d="M36.1473 260.608H30.6094V266.501H36.1473V260.608Z" fill="white"/>
<path d="M43.7 260.608H38.1621V266.501H43.7V260.608Z" fill="white"/>
<path d="M51.1512 260.608H45.6133V266.501H51.1512V260.608Z" fill="white"/>
<path d="M21.1454 268.323H15.6074V274.216H21.1454V268.323Z" fill="white"/>
<path d="M28.5965 268.323H23.0586V274.216H28.5965V268.323Z" fill="white"/>
<path d="M36.1473 268.323H30.6094V274.216H36.1473V268.323Z" fill="white"/>
<path d="M43.7 268.323H38.1621V274.216H43.7V268.323Z" fill="white"/>
<path d="M51.1512 268.323H45.6133V274.216H51.1512V268.323Z" fill="white"/>
<path d="M58.7013 116.385H7.34961V131.386H58.7013V116.385Z" fill="#333333"/>
<path d="M155.464 116.385H82.1621V131.386H155.464V116.385Z" fill="#4D4D4D"/>
<path d="M96.0585 89.3833H66.7578V100.956H96.0585V89.3833Z" fill="#E6E6E6"/>
<path d="M81.4585 77.811H66.7578V89.3832H81.4585V77.811Z" fill="#4D4D4D"/>
<path d="M66.7573 77.811H52.0566V89.3832H66.7573V77.811Z" fill="#333333"/>
<path d="M66.7565 89.3833H44.3027V100.956H66.7565V89.3833Z" fill="#B3B3B3"/>
<path d="M65.75 77.8111L66.7569 51.1309L67.5624 77.8111H65.75Z" fill="#333333"/>
<path opacity="0.19" d="M158.284 137.494H152.746V143.387H158.284V137.494Z" fill="white"/>
<path opacity="0.24" d="M158.284 145.208H152.746V151.101H158.284V145.208Z" fill="white"/>
<path opacity="0.29" d="M158.284 152.923H152.746V158.816H158.284V152.923Z" fill="white"/>
<path opacity="0.39" d="M158.284 160.531H152.746V166.424H158.284V160.531Z" fill="white"/>
<path opacity="0.21" d="M158.284 168.245H152.746V174.139H158.284V168.245Z" fill="white"/>
<path opacity="0.48" d="M158.284 175.96H152.746V181.853H158.284V175.96Z" fill="white"/>
<path opacity="0.32" d="M158.284 183.675H152.746V189.568H158.284V183.675Z" fill="white"/>
<path opacity="0.13" d="M158.284 191.39H152.746V197.283H158.284V191.39Z" fill="white"/>
<path opacity="0.19" d="M158.284 198.997H152.746V204.89H158.284V198.997Z" fill="white"/>
<path opacity="0.03" d="M158.284 206.712H152.746V212.605H158.284V206.712Z" fill="white"/>
<path opacity="0.36" d="M158.284 214.427H152.746V220.32H158.284V214.427Z" fill="white"/>
<path opacity="0.25" d="M158.284 222.141H152.746V228.035H158.284V222.141Z" fill="white"/>
<path d="M158.284 229.856H152.746V235.749H158.284V229.856Z" fill="white"/>
<path d="M381.915 198.354H348.688V281.181H381.915V198.354Z" fill="#333333"/>
<path d="M363.791 194.176H348.688V198.89H363.791V194.176Z" fill="#333333"/>
<path d="M357.448 191.497H348.688V194.175H357.448V191.497Z" fill="#333333"/>
<path opacity="0.06" d="M368.019 204.14H362.582V208.426H368.019V204.14Z" fill="white"/>
<path opacity="0.12" d="M368.019 214.748H362.582V219.034H368.019V214.748Z" fill="white"/>
<path opacity="0.19" d="M368.019 235.964H362.582V240.25H368.019V235.964Z" fill="white"/>
<path opacity="0.14" d="M368.019 257.179H362.582V261.465H368.019V257.179Z" fill="white"/>
<path opacity="0.1" d="M368.019 267.787H362.582V272.073H368.019V267.787Z" fill="white"/>
<path d="M298.545 207.355H253.033V251.715H298.545V207.355Z" fill="#333333"/>
<path d="M291.396 203.39H260.283V222.463H291.396V203.39Z" fill="#333333"/>
<path d="M301.867 235.321H256.355V279.681H301.867V235.321Z" fill="#333333"/>
<path d="M294.617 231.356H263.504V250.429H294.617V231.356Z" fill="#333333"/>
<path d="M362.482 229.427H316.971V280.538H362.482V229.427Z" fill="#333333"/>
<path d="M355.334 224.927H324.221V247H355.334V224.927Z" fill="#333333"/>
<path d="M514.826 244.964H469.314V294.36H514.826V244.964Z" fill="#333333"/>
<path d="M507.678 240.571H476.564V261.894H507.678V240.571Z" fill="#333333"/>
<path d="M416.151 142.958H365.303V280.431H416.151V142.958Z" fill="#333333"/>
<path opacity="0.46" d="M380.104 149.173H367.82V151.637H380.104V149.173Z" fill="#E6E6E6"/>
<path opacity="0.34" d="M396.919 149.173H384.635V151.637H396.919V149.173Z" fill="#E6E6E6"/>
<path opacity="0.52" d="M413.634 149.173H401.35V151.637H413.634V149.173Z" fill="#E6E6E6"/>
<path opacity="0.54" d="M380.104 154.852H367.82V157.316H380.104V154.852Z" fill="#E6E6E6"/>
<path opacity="0.3" d="M396.919 154.852H384.635V157.316H396.919V154.852Z" fill="#E6E6E6"/>
<path opacity="0.06" d="M413.634 154.852H401.35V157.316H413.634V154.852Z" fill="#E6E6E6"/>
<path opacity="0.15" d="M380.104 160.531H367.82V162.995H380.104V160.531Z" fill="#E6E6E6"/>
<path opacity="0.42" d="M396.919 160.531H384.635V162.995H396.919V160.531Z" fill="#E6E6E6"/>
<path opacity="0.48" d="M413.634 160.531H401.35V162.995H413.634V160.531Z" fill="#E6E6E6"/>
<path opacity="0.18" d="M380.104 166.209H367.82V168.674H380.104V166.209Z" fill="#E6E6E6"/>
<path opacity="0.28" d="M413.634 166.209H401.35V168.674H413.634V166.209Z" fill="#E6E6E6"/>
<path opacity="0.29" d="M380.104 171.888H367.82V174.353H380.104V171.888Z" fill="#E6E6E6"/>
<path opacity="0.28" d="M396.919 171.888H384.635V174.353H396.919V171.888Z" fill="#E6E6E6"/>
<path opacity="0.56" d="M413.634 171.888H401.35V174.353H413.634V171.888Z" fill="#E6E6E6"/>
<path opacity="0.41" d="M380.104 177.567H367.82V180.032H380.104V177.567Z" fill="#E6E6E6"/>
<path opacity="0.16" d="M396.919 177.567H384.635V180.032H396.919V177.567Z" fill="#E6E6E6"/>
<path opacity="0.4" d="M413.634 177.567H401.35V180.032H413.634V177.567Z" fill="#E6E6E6"/>
<path opacity="0.1" d="M380.104 183.246H367.82V185.711H380.104V183.246Z" fill="#E6E6E6"/>
<path opacity="0.17" d="M396.919 183.246H384.635V185.711H396.919V183.246Z" fill="#E6E6E6"/>
<path opacity="0.08" d="M413.634 183.246H401.35V185.711H413.634V183.246Z" fill="#E6E6E6"/>
<path opacity="0.49" d="M380.104 188.925H367.82V191.39H380.104V188.925Z" fill="#E6E6E6"/>
<path opacity="0.58" d="M396.919 188.925H384.635V191.39H396.919V188.925Z" fill="#E6E6E6"/>
<path opacity="0.58" d="M413.634 188.925H401.35V191.39H413.634V188.925Z" fill="#E6E6E6"/>
<path opacity="0.26" d="M380.104 194.604H367.82V197.068H380.104V194.604Z" fill="#E6E6E6"/>
<path opacity="0.37" d="M396.919 194.604H384.635V197.068H396.919V194.604Z" fill="#E6E6E6"/>
<path opacity="0.34" d="M413.634 194.604H401.35V197.068H413.634V194.604Z" fill="#E6E6E6"/>
<path opacity="0.55" d="M380.104 200.283H367.82V202.747H380.104V200.283Z" fill="#E6E6E6"/>
<path opacity="0.12" d="M396.919 200.283H384.635V202.747H396.919V200.283Z" fill="#E6E6E6"/>
<path opacity="0.6" d="M413.634 200.283H401.35V202.747H413.634V200.283Z" fill="#E6E6E6"/>
<path opacity="0.02" d="M380.104 205.962H367.82V208.426H380.104V205.962Z" fill="#E6E6E6"/>
<path opacity="0.28" d="M396.919 205.962H384.635V208.426H396.919V205.962Z" fill="#E6E6E6"/>
<path opacity="0.21" d="M413.634 205.962H401.35V208.426H413.634V205.962Z" fill="#E6E6E6"/>
<path opacity="0.57" d="M380.104 211.641H367.82V214.105H380.104V211.641Z" fill="#E6E6E6"/>
<path opacity="0.38" d="M396.919 211.641H384.635V214.105H396.919V211.641Z" fill="#E6E6E6"/>
<path opacity="0.25" d="M413.634 211.641H401.35V214.105H413.634V211.641Z" fill="#E6E6E6"/>
<path opacity="0.15" d="M380.104 217.32H367.82V219.784H380.104V217.32Z" fill="#E6E6E6"/>
<path opacity="0.47" d="M396.919 217.32H384.635V219.784H396.919V217.32Z" fill="#E6E6E6"/>
<path opacity="0.3" d="M413.634 217.32H401.35V219.784H413.634V217.32Z" fill="#E6E6E6"/>
<path opacity="0.4" d="M380.104 222.999H367.82V225.463H380.104V222.999Z" fill="#E6E6E6"/>
<path opacity="0.39" d="M396.919 222.999H384.635V225.463H396.919V222.999Z" fill="#E6E6E6"/>
<path opacity="0.24" d="M413.634 222.999H401.35V225.463H413.634V222.999Z" fill="#E6E6E6"/>
<path opacity="0.46" d="M380.104 228.677H367.82V231.142H380.104V228.677Z" fill="#E6E6E6"/>
<path opacity="0.22" d="M396.919 228.677H384.635V231.142H396.919V228.677Z" fill="#E6E6E6"/>
<path opacity="0.11" d="M413.634 228.677H401.35V231.142H413.634V228.677Z" fill="#E6E6E6"/>
<path opacity="0.11" d="M396.919 234.357H384.635V236.821H396.919V234.357Z" fill="#E6E6E6"/>
<path opacity="0.02" d="M413.634 234.357H401.35V236.821H413.634V234.357Z" fill="#E6E6E6"/>
<path opacity="0.27" d="M380.104 240.035H367.82V242.5H380.104V240.035Z" fill="#E6E6E6"/>
<path opacity="0.21" d="M396.919 240.035H384.635V242.5H396.919V240.035Z" fill="#E6E6E6"/>
<path opacity="0.49" d="M413.634 240.035H401.35V242.5H413.634V240.035Z" fill="#E6E6E6"/>
<path opacity="0.6" d="M380.104 245.714H367.82V248.179H380.104V245.714Z" fill="#E6E6E6"/>
<path opacity="0.31" d="M396.919 245.714H384.635V248.179H396.919V245.714Z" fill="#E6E6E6"/>
<path opacity="0.22" d="M413.634 245.714H401.35V248.179H413.634V245.714Z" fill="#E6E6E6"/>
<path opacity="0.54" d="M380.104 251.393H367.82V253.858H380.104V251.393Z" fill="#E6E6E6"/>
<path opacity="0.6" d="M396.919 251.393H384.635V253.858H396.919V251.393Z" fill="#E6E6E6"/>
<path opacity="0.08" d="M413.634 251.393H401.35V253.858H413.634V251.393Z" fill="#E6E6E6"/>
<path opacity="0.55" d="M396.919 257.072H384.635V259.537H396.919V257.072Z" fill="#E6E6E6"/>
<path d="M413.634 257.072H401.35V259.537H413.634V257.072Z" fill="#E6E6E6"/>
<path opacity="0.6" d="M380.909 149.173H380.104V259.536H380.909V149.173Z" fill="#E6E6E6"/>
<path opacity="0.6" d="M401.35 149.173H400.545V259.536H401.35V149.173Z" fill="#E6E6E6"/>
<path d="M441.524 142.958H416.15V280.431H441.524V142.958Z" fill="#4D4D4D"/>
<path opacity="0.69" d="M437.799 149.173H418.668V151.637H437.799V149.173Z" fill="#E6E6E6"/>
<path opacity="0.79" d="M437.799 154.852H418.668V157.316H437.799V154.852Z" fill="#E6E6E6"/>
<path opacity="0.19" d="M437.799 160.531H418.668V162.995H437.799V160.531Z" fill="#E6E6E6"/>
<path opacity="0.88" d="M437.799 166.209H418.668V168.674H437.799V166.209Z" fill="#E6E6E6"/>
<path opacity="0.5" d="M437.799 171.888H418.668V174.353H437.799V171.888Z" fill="#E6E6E6"/>
<path opacity="0.25" d="M437.799 177.567H418.668V180.032H437.799V177.567Z" fill="#E6E6E6"/>
<path opacity="0.91" d="M437.799 183.246H418.668V185.711H437.799V183.246Z" fill="#E6E6E6"/>
<path opacity="0.02" d="M437.799 188.925H418.668V191.39H437.799V188.925Z" fill="#E6E6E6"/>
<path opacity="0.53" d="M437.799 194.604H418.668V197.068H437.799V194.604Z" fill="#E6E6E6"/>
<path opacity="0.65" d="M437.799 200.283H418.668V202.747H437.799V200.283Z" fill="#E6E6E6"/>
<path d="M437.799 205.962H418.668V208.426H437.799V205.962Z" fill="#E6E6E6"/>
<path opacity="0.8" d="M437.799 211.641H418.668V214.105H437.799V211.641Z" fill="#E6E6E6"/>
<path opacity="0.82" d="M437.799 217.32H418.668V219.784H437.799V217.32Z" fill="#E6E6E6"/>
<path opacity="0.75" d="M437.799 222.999H418.668V225.463H437.799V222.999Z" fill="#E6E6E6"/>
<path opacity="0.31" d="M437.799 228.677H418.668V231.142H437.799V228.677Z" fill="#E6E6E6"/>
<path opacity="0.22" d="M437.799 234.357H418.668V236.821H437.799V234.357Z" fill="#E6E6E6"/>
<path opacity="0.43" d="M437.799 240.035H418.668V242.5H437.799V240.035Z" fill="#E6E6E6"/>
<path opacity="0.68" d="M437.799 245.714H418.668V248.179H437.799V245.714Z" fill="#E6E6E6"/>
<path opacity="0.38" d="M437.799 251.393H418.668V253.858H437.799V251.393Z" fill="#E6E6E6"/>
<path opacity="0.84" d="M437.799 257.072H418.668V259.537H437.799V257.072Z" fill="#E6E6E6"/>
<path d="M374.264 135.672V142.958H407.189V135.672H374.264ZM381.614 140.601H378.191V138.136H381.614V140.601ZM386.951 140.601H383.628V138.136H386.951V140.601ZM392.388 140.601H389.065V138.136H392.388V140.601ZM397.825 140.601H394.402V138.136H397.825V140.601ZM403.262 140.601H399.839V138.136H403.262V140.601Z" fill="#333333"/>
<path d="M413.23 138.136H412.324V140.601H413.23V138.136Z" fill="#333333"/>
<path d="M407.189 135.672V142.958H422.696V135.672H407.189ZM413.231 140.601H409.908V138.136H413.231V140.601ZM420.38 140.601H417.057V138.136H420.38V140.601Z" fill="#4D4D4D"/>
<path d="M420.279 138.136H419.373V140.601H420.279V138.136Z" fill="#333333"/>
<path d="M422.897 289.753H354.428L422.897 235.964V289.753Z" fill="#333333"/>
<path d="M320.798 113.813H315.26V136.208H320.798V113.813Z" fill="#4D4D4D"/>
<path d="M315.361 113.813H309.723V136.208H315.361V113.813Z" fill="#333333"/>
<path d="M326.537 113.813H320.898V136.208H326.537V113.813Z" fill="#666666"/>
<path d="M342.848 151.53H327.141V279.252H342.848V151.53Z" fill="#666666"/>
<path d="M308.715 151.53H295.021V279.252H308.715V151.53Z" fill="#333333"/>
<path d="M327.142 151.53H308.615V279.252H327.142V151.53Z" fill="#4D4D4D"/>
<path opacity="0.6" d="M298.949 155.28H296.936V277.538H298.949V155.28Z" fill="#E6E6E6"/>
<path opacity="0.6" d="M302.877 155.28H300.863V277.538H302.877V155.28Z" fill="#E6E6E6"/>
<path opacity="0.6" d="M306.803 155.28H304.789V277.538H306.803V155.28Z" fill="#E6E6E6"/>
<path d="M330.264 155.28H328.25V277.538H330.264V155.28Z" fill="#E6E6E6"/>
<path d="M334.192 155.28H332.178V277.538H334.192V155.28Z" fill="#E6E6E6"/>
<path d="M341.844 155.28H339.83V277.538H341.844V155.28Z" fill="#E6E6E6"/>
<path d="M338.117 155.28H336.104V277.538H338.117V155.28Z" fill="#E6E6E6"/>
<path opacity="0.8" d="M310.93 277.538H324.825V155.28H310.93V277.538ZM313.145 157.423H322.61V275.395H313.145V157.423Z" fill="#E6E6E6"/>
<path opacity="0.8" d="M314.957 273.359H320.898V159.352H314.957V273.359ZM316.971 162.031H317.676H318.078H318.884V270.68H318.078H317.676H316.971V162.031Z" fill="#E6E6E6"/>
<path opacity="0.8" d="M318.078 162.031H317.676V270.68H318.078V162.031Z" fill="#E6E6E6"/>
<path d="M325.028 129.136H311.133V151.53H325.028V129.136Z" fill="#4D4D4D"/>
<path d="M325.028 129.136H311.133V151.53H325.028V129.136Z" fill="#4D4D4D"/>
<path d="M338.922 129.136H325.027V151.53H338.922V129.136Z" fill="#666666"/>
<path d="M311.132 129.136H297.236V151.53H311.132V129.136Z" fill="#333333"/>
<path d="M326.437 113.813H309.723L315.261 117.885H320.899L326.437 113.813Z" fill="#808080"/>
<path d="M625.184 105.563H617.129V130.743H625.184V105.563Z" fill="#4D4D4D"/>
<path d="M617.028 105.563H608.973V130.743H617.028V105.563Z" fill="#333333"/>
<path d="M633.239 105.563H625.184V130.743H633.239V105.563Z" fill="#666666"/>
<path d="M657.002 148.101H634.246V292.003H657.002V148.101Z" fill="#666666"/>
<path d="M607.462 148.101H587.727V292.003H607.462V148.101Z" fill="#333333"/>
<path d="M634.244 148.101H607.461V292.003H634.244V148.101Z" fill="#4D4D4D"/>
<path opacity="0.4" d="M593.365 152.387H590.445V290.074H593.365V152.387Z" fill="#E6E6E6"/>
<path opacity="0.4" d="M599.104 152.387H596.184V290.074H599.104V152.387Z" fill="#E6E6E6"/>
<path opacity="0.4" d="M604.844 152.387H601.924V290.074H604.844V152.387Z" fill="#E6E6E6"/>
<path d="M638.775 152.387H635.855V290.074H638.775V152.387Z" fill="#E6E6E6"/>
<path d="M644.514 152.387H641.594V290.074H644.514V152.387Z" fill="#E6E6E6"/>
<path d="M655.49 152.387H652.57V290.074H655.49V152.387Z" fill="#E6E6E6"/>
<path d="M650.153 152.387H647.232V290.074H650.153V152.387Z" fill="#E6E6E6"/>
<path d="M610.885 290.074H631.023V152.387H610.885V290.074ZM614.006 154.744H627.7V287.717H614.006V154.744Z" fill="#E6E6E6"/>
<path d="M616.523 285.467H625.183V156.995H616.523V285.467ZM619.544 159.995H620.652H621.155H622.263V282.467H621.155H620.652H619.544V159.995Z" fill="#E6E6E6"/>
<path d="M621.155 159.995H620.652V282.467H621.155V159.995Z" fill="#E6E6E6"/>
<path d="M631.224 122.921H611.086V148.101H631.224V122.921Z" fill="#4D4D4D"/>
<path d="M631.224 122.921H611.086V148.101H631.224V122.921Z" fill="#4D4D4D"/>
<path d="M651.362 122.921H631.225V148.101H651.362V122.921Z" fill="#666666"/>
<path d="M611.187 122.921H591.049V148.101H611.187V122.921Z" fill="#333333"/>
<path d="M633.34 105.563H608.973L617.129 110.17H625.184L633.34 105.563Z" fill="#808080"/>
<path d="M567.083 168.031H512.006V187.532H567.083V168.031Z" fill="#E6E6E6"/>
<path d="M533.654 168.031H512.006V187.532H533.654V168.031Z" fill="#B3B3B3"/>
<path d="M533.654 187.639H490.861V282.359H533.654V187.639Z" fill="#333333"/>
<path d="M600.512 187.639H533.654V282.359H600.512V187.639Z" fill="#4D4D4D"/>
<path d="M528.418 177.996H495.492V187.639H528.418V177.996Z" fill="#333333"/>
<path d="M590.544 177.996H543.521V187.639H590.544V177.996Z" fill="#4D4D4D"/>
<path d="M552.483 160.638H533.654V168.031H552.483V160.638Z" fill="#E6E6E6"/>
<path d="M543.018 153.137H533.654V160.531H543.018V153.137Z" fill="#4D4D4D"/>
<path d="M533.554 153.137H524.189V160.531H533.554V153.137Z" fill="#333333"/>
<path d="M533.655 160.638H519.256V168.031H533.655V160.638Z" fill="#B3B3B3"/>
<path d="M533.051 153.137L533.655 135.993L534.158 153.137H533.051Z" fill="#333333"/>
<path opacity="0.12" d="M504.354 191.497H500.83V195.247H504.354V191.497Z" fill="white"/>
<path opacity="0.25" d="M509.188 191.497H505.664V195.247H509.188V191.497Z" fill="white"/>
<path opacity="0.36" d="M514.02 191.497H510.496V195.247H514.02V191.497Z" fill="white"/>
<path opacity="0.12" d="M518.854 191.497H515.33V195.247H518.854V191.497Z" fill="white"/>
<path opacity="0.14" d="M523.686 191.497H520.162V195.247H523.686V191.497Z" fill="white"/>
<path opacity="0.28" d="M504.354 196.426H500.83V200.176H504.354V196.426Z" fill="white"/>
<path opacity="0.4" d="M509.188 196.426H505.664V200.176H509.188V196.426Z" fill="white"/>
<path opacity="0.16" d="M514.02 196.426H510.496V200.176H514.02V196.426Z" fill="white"/>
<path opacity="0.17" d="M523.686 196.426H520.162V200.176H523.686V196.426Z" fill="white"/>
<path opacity="0.27" d="M504.354 201.354H500.83V205.105H504.354V201.354Z" fill="white"/>
<path opacity="0.45" d="M509.188 201.354H505.664V205.105H509.188V201.354Z" fill="white"/>
<path opacity="0.45" d="M514.02 201.354H510.496V205.105H514.02V201.354Z" fill="white"/>
<path opacity="0.48" d="M518.854 201.354H515.33V205.105H518.854V201.354Z" fill="white"/>
<path opacity="0.25" d="M523.686 201.354H520.162V205.105H523.686V201.354Z" fill="white"/>
<path opacity="0.28" d="M504.354 206.283H500.83V210.034H504.354V206.283Z" fill="white"/>
<path opacity="0.13" d="M509.188 206.283H505.664V210.034H509.188V206.283Z" fill="white"/>
<path opacity="0.07" d="M514.02 206.283H510.496V210.034H514.02V206.283Z" fill="white"/>
<path opacity="0.39" d="M518.854 206.283H515.33V210.034H518.854V206.283Z" fill="white"/>
<path opacity="0.47" d="M523.686 206.283H520.162V210.034H523.686V206.283Z" fill="white"/>
<path opacity="0.28" d="M504.354 211.212H500.83V214.962H504.354V211.212Z" fill="white"/>
<path opacity="0.2" d="M509.188 211.212H505.664V214.962H509.188V211.212Z" fill="white"/>
<path opacity="0.04" d="M514.02 211.212H510.496V214.962H514.02V211.212Z" fill="white"/>
<path opacity="0.43" d="M518.854 211.212H515.33V214.962H518.854V211.212Z" fill="white"/>
<path opacity="0.48" d="M523.686 211.212H520.162V214.962H523.686V211.212Z" fill="white"/>
<path opacity="0.28" d="M504.354 216.141H500.83V219.891H504.354V216.141Z" fill="white"/>
<path opacity="0.19" d="M509.188 216.141H505.664V219.891H509.188V216.141Z" fill="white"/>
<path opacity="0.01" d="M514.02 216.141H510.496V219.891H514.02V216.141Z" fill="white"/>
<path opacity="0.27" d="M518.854 216.141H515.33V219.891H518.854V216.141Z" fill="white"/>
<path opacity="0.24" d="M523.686 216.141H520.162V219.891H523.686V216.141Z" fill="white"/>
<path opacity="0.07" d="M504.354 221.177H500.83V224.927H504.354V221.177Z" fill="white"/>
<path opacity="0.25" d="M509.188 221.177H505.664V224.927H509.188V221.177Z" fill="white"/>
<path opacity="0.26" d="M514.02 221.177H510.496V224.927H514.02V221.177Z" fill="white"/>
<path opacity="0.39" d="M518.854 221.177H515.33V224.927H518.854V221.177Z" fill="white"/>
<path opacity="0.22" d="M523.686 221.177H520.162V224.927H523.686V221.177Z" fill="white"/>
<path opacity="0.15" d="M504.354 226.106H500.83V229.856H504.354V226.106Z" fill="white"/>
<path opacity="0.23" d="M509.188 226.106H505.664V229.856H509.188V226.106Z" fill="white"/>
<path opacity="0.05" d="M514.02 226.106H510.496V229.856H514.02V226.106Z" fill="white"/>
<path opacity="0.2" d="M518.854 226.106H515.33V229.856H518.854V226.106Z" fill="white"/>
<path opacity="0.31" d="M523.686 226.106H520.162V229.856H523.686V226.106Z" fill="white"/>
<path opacity="0.15" d="M504.354 231.035H500.83V234.785H504.354V231.035Z" fill="white"/>
<path opacity="0.33" d="M509.188 231.035H505.664V234.785H509.188V231.035Z" fill="white"/>
<path opacity="0.46" d="M514.02 231.035H510.496V234.785H514.02V231.035Z" fill="white"/>
<path opacity="0.25" d="M518.854 231.035H515.33V234.785H518.854V231.035Z" fill="white"/>
<path opacity="0.43" d="M523.686 231.035H520.162V234.785H523.686V231.035Z" fill="white"/>
<path opacity="0.4" d="M504.354 235.964H500.83V239.714H504.354V235.964Z" fill="white"/>
<path opacity="0.39" d="M509.188 235.964H505.664V239.714H509.188V235.964Z" fill="white"/>
<path opacity="0.01" d="M514.02 235.964H510.496V239.714H514.02V235.964Z" fill="white"/>
<path opacity="0.12" d="M518.854 235.964H515.33V239.714H518.854V235.964Z" fill="white"/>
<path opacity="0.07" d="M523.686 235.964H520.162V239.714H523.686V235.964Z" fill="white"/>
<path opacity="0.07" d="M504.354 240.893H500.83V244.643H504.354V240.893Z" fill="white"/>
<path opacity="0.02" d="M509.188 240.893H505.664V244.643H509.188V240.893Z" fill="white"/>
<path opacity="0.12" d="M514.02 240.893H510.496V244.643H514.02V240.893Z" fill="white"/>
<path opacity="0.23" d="M518.854 240.893H515.33V244.643H518.854V240.893Z" fill="white"/>
<path opacity="0.26" d="M523.686 240.893H520.162V244.643H523.686V240.893Z" fill="white"/>
<path opacity="0.27" d="M504.354 245.822H500.83V249.572H504.354V245.822Z" fill="white"/>
<path opacity="0.38" d="M509.188 245.822H505.664V249.572H509.188V245.822Z" fill="white"/>
<path opacity="0.05" d="M514.02 245.822H510.496V249.572H514.02V245.822Z" fill="white"/>
<path opacity="0.45" d="M518.854 245.822H515.33V249.572H518.854V245.822Z" fill="white"/>
<path opacity="0.15" d="M523.686 245.822H520.162V249.572H523.686V245.822Z" fill="white"/>
<path opacity="0.06" d="M504.354 250.75H500.83V254.501H504.354V250.75Z" fill="white"/>
<path opacity="0.47" d="M509.188 250.75H505.664V254.501H509.188V250.75Z" fill="white"/>
<path opacity="0.15" d="M514.02 250.75H510.496V254.501H514.02V250.75Z" fill="white"/>
<path opacity="0.44" d="M518.854 250.75H515.33V254.501H518.854V250.75Z" fill="white"/>
<path opacity="0.14" d="M523.686 250.75H520.162V254.501H523.686V250.75Z" fill="white"/>
<path opacity="0.15" d="M504.354 255.679H500.83V259.429H504.354V255.679Z" fill="white"/>
<path opacity="0.43" d="M509.188 255.679H505.664V259.429H509.188V255.679Z" fill="white"/>
<path opacity="0.07" d="M514.02 255.679H510.496V259.429H514.02V255.679Z" fill="white"/>
<path opacity="0.47" d="M518.854 255.679H515.33V259.429H518.854V255.679Z" fill="white"/>
<path opacity="0.11" d="M523.686 255.679H520.162V259.429H523.686V255.679Z" fill="white"/>
<path opacity="0.07" d="M504.354 260.608H500.83V264.358H504.354V260.608Z" fill="white"/>
<path opacity="0.34" d="M509.188 260.608H505.664V264.358H509.188V260.608Z" fill="white"/>
<path opacity="0.5" d="M514.02 260.608H510.496V264.358H514.02V260.608Z" fill="white"/>
<path opacity="0.36" d="M518.854 260.608H515.33V264.358H518.854V260.608Z" fill="white"/>
<path opacity="0.34" d="M523.686 260.608H520.162V264.358H523.686V260.608Z" fill="white"/>
<path opacity="0.47" d="M504.354 265.537H500.83V269.287H504.354V265.537Z" fill="white"/>
<path opacity="0.41" d="M509.188 265.537H505.664V269.287H509.188V265.537Z" fill="white"/>
<path opacity="0.3" d="M514.02 265.537H510.496V269.287H514.02V265.537Z" fill="white"/>
<path opacity="0.33" d="M518.854 265.537H515.33V269.287H518.854V265.537Z" fill="white"/>
<path opacity="0.12" d="M523.686 265.537H520.162V269.287H523.686V265.537Z" fill="white"/>
<path opacity="0.3" d="M545.335 191.497H541.811V195.247H545.335V191.497Z" fill="white"/>
<path opacity="0.72" d="M549.966 191.497H546.441V195.247H549.966V191.497Z" fill="white"/>
<path opacity="0.7" d="M554.698 191.497H551.174V195.247H554.698V191.497Z" fill="white"/>
<path opacity="0.52" d="M559.43 191.497H555.906V195.247H559.43V191.497Z" fill="white"/>
<path opacity="0.2" d="M564.163 191.497H560.639V195.247H564.163V191.497Z" fill="white"/>
<path opacity="0.32" d="M568.796 191.497H565.271V195.247H568.796V191.497Z" fill="white"/>
<path opacity="0.13" d="M573.528 191.497H570.004V195.247H573.528V191.497Z" fill="white"/>
<path opacity="0.38" d="M578.261 191.497H574.736V195.247H578.261V191.497Z" fill="white"/>
<path opacity="0.61" d="M582.891 191.497H579.367V195.247H582.891V191.497Z" fill="white"/>
<path d="M587.624 191.497H584.1V195.247H587.624V191.497Z" fill="white"/>
<path opacity="0.91" d="M592.356 191.497H588.832V195.247H592.356V191.497Z" fill="white"/>
<path opacity="0.66" d="M545.335 196.426H541.811V200.176H545.335V196.426Z" fill="white"/>
<path opacity="0.31" d="M549.966 196.426H546.441V200.176H549.966V196.426Z" fill="white"/>
<path opacity="0.95" d="M554.698 196.426H551.174V200.176H554.698V196.426Z" fill="white"/>
<path opacity="0.7" d="M559.43 196.426H555.906V200.176H559.43V196.426Z" fill="white"/>
<path opacity="0.12" d="M564.163 196.426H560.639V200.176H564.163V196.426Z" fill="white"/>
<path opacity="0.24" d="M568.796 196.426H565.271V200.176H568.796V196.426Z" fill="white"/>
<path opacity="0.66" d="M573.528 196.426H570.004V200.176H573.528V196.426Z" fill="white"/>
<path opacity="0.71" d="M578.261 196.426H574.736V200.176H578.261V196.426Z" fill="white"/>
<path opacity="0.42" d="M582.891 196.426H579.367V200.176H582.891V196.426Z" fill="white"/>
<path opacity="0.09" d="M587.624 196.426H584.1V200.176H587.624V196.426Z" fill="white"/>
<path opacity="0.32" d="M592.356 196.426H588.832V200.176H592.356V196.426Z" fill="white"/>
<path opacity="0.65" d="M545.335 201.354H541.811V205.105H545.335V201.354Z" fill="white"/>
<path d="M549.966 201.354H546.441V205.105H549.966V201.354Z" fill="white"/>
<path d="M554.698 201.354H551.174V205.105H554.698V201.354Z" fill="white"/>
<path opacity="0.71" d="M559.43 201.354H555.906V205.105H559.43V201.354Z" fill="white"/>
<path opacity="0.2" d="M564.163 201.354H560.639V205.105H564.163V201.354Z" fill="white"/>
<path opacity="0.19" d="M568.796 201.354H565.271V205.105H568.796V201.354Z" fill="white"/>
<path opacity="0.62" d="M573.528 201.354H570.004V205.105H573.528V201.354Z" fill="white"/>
<path opacity="0.93" d="M578.261 201.354H574.736V205.105H578.261V201.354Z" fill="white"/>
<path opacity="0.56" d="M582.891 201.354H579.367V205.105H582.891V201.354Z" fill="white"/>
<path opacity="0.57" d="M587.624 201.354H584.1V205.105H587.624V201.354Z" fill="white"/>
<path opacity="0.52" d="M592.356 201.354H588.832V205.105H592.356V201.354Z" fill="white"/>
<path opacity="0.74" d="M545.335 206.283H541.811V210.034H545.335V206.283Z" fill="white"/>
<path opacity="0.56" d="M549.966 206.283H546.441V210.034H549.966V206.283Z" fill="white"/>
<path opacity="0.78" d="M554.698 206.283H551.174V210.034H554.698V206.283Z" fill="white"/>
<path opacity="0.41" d="M559.43 206.283H555.906V210.034H559.43V206.283Z" fill="white"/>
<path opacity="0.14" d="M564.163 206.283H560.639V210.034H564.163V206.283Z" fill="white"/>
<path opacity="0.28" d="M568.796 206.283H565.271V210.034H568.796V206.283Z" fill="white"/>
<path opacity="0.36" d="M573.528 206.283H570.004V210.034H573.528V206.283Z" fill="white"/>
<path opacity="0.14" d="M578.261 206.283H574.736V210.034H578.261V206.283Z" fill="white"/>
<path opacity="0.5" d="M582.891 206.283H579.367V210.034H582.891V206.283Z" fill="white"/>
<path opacity="0.98" d="M587.624 206.283H584.1V210.034H587.624V206.283Z" fill="white"/>
<path opacity="0.59" d="M592.356 206.283H588.832V210.034H592.356V206.283Z" fill="white"/>
<path opacity="0.07" d="M545.335 211.212H541.811V214.962H545.335V211.212Z" fill="white"/>
<path opacity="0.1" d="M549.966 211.212H546.441V214.962H549.966V211.212Z" fill="white"/>
<path opacity="0.88" d="M554.698 211.212H551.174V214.962H554.698V211.212Z" fill="white"/>
<path opacity="0.68" d="M559.43 211.212H555.906V214.962H559.43V211.212Z" fill="white"/>
<path opacity="0.81" d="M564.163 211.212H560.639V214.962H564.163V211.212Z" fill="white"/>
<path opacity="0.62" d="M568.796 211.212H565.271V214.962H568.796V211.212Z" fill="white"/>
<path opacity="0.97" d="M573.528 211.212H570.004V214.962H573.528V211.212Z" fill="white"/>
<path opacity="0.81" d="M578.261 211.212H574.736V214.962H578.261V211.212Z" fill="white"/>
<path opacity="0.79" d="M582.891 211.212H579.367V214.962H582.891V211.212Z" fill="white"/>
<path opacity="0.03" d="M587.624 211.212H584.1V214.962H587.624V211.212Z" fill="white"/>
<path opacity="0.95" d="M592.356 211.212H588.832V214.962H592.356V211.212Z" fill="white"/>
<path opacity="0.62" d="M545.335 216.141H541.811V219.891H545.335V216.141Z" fill="white"/>
<path opacity="0.22" d="M549.966 216.141H546.441V219.891H549.966V216.141Z" fill="white"/>
<path opacity="0.42" d="M554.698 216.141H551.174V219.891H554.698V216.141Z" fill="white"/>
<path opacity="0.56" d="M559.43 216.141H555.906V219.891H559.43V216.141Z" fill="white"/>
<path opacity="0.03" d="M564.163 216.141H560.639V219.891H564.163V216.141Z" fill="white"/>
<path opacity="0.64" d="M568.796 216.141H565.271V219.891H568.796V216.141Z" fill="white"/>
<path opacity="0.82" d="M573.528 216.141H570.004V219.891H573.528V216.141Z" fill="white"/>
<path opacity="0.52" d="M578.261 216.141H574.736V219.891H578.261V216.141Z" fill="white"/>
<path opacity="0.46" d="M582.891 216.141H579.367V219.891H582.891V216.141Z" fill="white"/>
<path opacity="0.27" d="M587.624 216.141H584.1V219.891H587.624V216.141Z" fill="white"/>
<path opacity="0.46" d="M592.356 216.141H588.832V219.891H592.356V216.141Z" fill="white"/>
<path opacity="0.66" d="M545.335 221.177H541.811V224.927H545.335V221.177Z" fill="white"/>
<path opacity="0.7" d="M549.966 221.177H546.441V224.927H549.966V221.177Z" fill="white"/>
<path opacity="0.94" d="M554.698 221.177H551.174V224.927H554.698V221.177Z" fill="white"/>
<path opacity="0.5" d="M559.43 221.177H555.906V224.927H559.43V221.177Z" fill="white"/>
<path opacity="0.12" d="M564.163 221.177H560.639V224.927H564.163V221.177Z" fill="white"/>
<path opacity="0.36" d="M568.796 221.177H565.271V224.927H568.796V221.177Z" fill="white"/>
<path opacity="0.51" d="M573.528 221.177H570.004V224.927H573.528V221.177Z" fill="white"/>
<path opacity="0.37" d="M578.261 221.177H574.736V224.927H578.261V221.177Z" fill="white"/>
<path opacity="0.66" d="M582.891 221.177H579.367V224.927H582.891V221.177Z" fill="white"/>
<path opacity="0.42" d="M587.624 221.177H584.1V224.927H587.624V221.177Z" fill="white"/>
<path opacity="0.5" d="M592.356 221.177H588.832V224.927H592.356V221.177Z" fill="white"/>
<path opacity="0.52" d="M545.335 226.106H541.811V229.856H545.335V226.106Z" fill="white"/>
<path opacity="0.61" d="M549.966 226.106H546.441V229.856H549.966V226.106Z" fill="white"/>
<path opacity="0.84" d="M554.698 226.106H551.174V229.856H554.698V226.106Z" fill="white"/>
<path opacity="0.89" d="M559.43 226.106H555.906V229.856H559.43V226.106Z" fill="white"/>
<path opacity="0.33" d="M564.163 226.106H560.639V229.856H564.163V226.106Z" fill="white"/>
<path opacity="0.25" d="M568.796 226.106H565.271V229.856H568.796V226.106Z" fill="white"/>
<path opacity="0.95" d="M573.528 226.106H570.004V229.856H573.528V226.106Z" fill="white"/>
<path opacity="0.09" d="M578.261 226.106H574.736V229.856H578.261V226.106Z" fill="white"/>
<path opacity="0.44" d="M582.891 226.106H579.367V229.856H582.891V226.106Z" fill="white"/>
<path opacity="0.51" d="M587.624 226.106H584.1V229.856H587.624V226.106Z" fill="white"/>
<path opacity="0.97" d="M592.356 226.106H588.832V229.856H592.356V226.106Z" fill="white"/>
<path opacity="0.26" d="M545.335 231.035H541.811V234.785H545.335V231.035Z" fill="white"/>
<path opacity="0.92" d="M549.966 231.035H546.441V234.785H549.966V231.035Z" fill="white"/>
<path opacity="0.33" d="M554.698 231.035H551.174V234.785H554.698V231.035Z" fill="white"/>
<path opacity="0.23" d="M559.43 231.035H555.906V234.785H559.43V231.035Z" fill="white"/>
<path opacity="0.42" d="M564.163 231.035H560.639V234.785H564.163V231.035Z" fill="white"/>
<path opacity="0.57" d="M568.796 231.035H565.271V234.785H568.796V231.035Z" fill="white"/>
<path opacity="0.73" d="M573.528 231.035H570.004V234.785H573.528V231.035Z" fill="white"/>
<path opacity="0.87" d="M578.261 231.035H574.736V234.785H578.261V231.035Z" fill="white"/>
<path opacity="0.22" d="M582.891 231.035H579.367V234.785H582.891V231.035Z" fill="white"/>
<path opacity="0.89" d="M587.624 231.035H584.1V234.785H587.624V231.035Z" fill="white"/>
<path opacity="0.73" d="M592.356 231.035H588.832V234.785H592.356V231.035Z" fill="white"/>
<path opacity="0.35" d="M545.335 235.964H541.811V239.714H545.335V235.964Z" fill="white"/>
<path opacity="0.81" d="M549.966 235.964H546.441V239.714H549.966V235.964Z" fill="white"/>
<path opacity="0.56" d="M554.698 235.964H551.174V239.714H554.698V235.964Z" fill="white"/>
<path opacity="0.81" d="M559.43 235.964H555.906V239.714H559.43V235.964Z" fill="white"/>
<path opacity="0.87" d="M564.163 235.964H560.639V239.714H564.163V235.964Z" fill="white"/>
<path opacity="0.39" d="M568.796 235.964H565.271V239.714H568.796V235.964Z" fill="white"/>
<path opacity="0.31" d="M573.528 235.964H570.004V239.714H573.528V235.964Z" fill="white"/>
<path opacity="0.98" d="M578.261 235.964H574.736V239.714H578.261V235.964Z" fill="white"/>
<path opacity="0.17" d="M582.891 235.964H579.367V239.714H582.891V235.964Z" fill="white"/>
<path opacity="0.06" d="M587.624 235.964H584.1V239.714H587.624V235.964Z" fill="white"/>
<path opacity="0.57" d="M592.356 235.964H588.832V239.714H592.356V235.964Z" fill="white"/>
<path opacity="0.67" d="M545.335 240.893H541.811V244.643H545.335V240.893Z" fill="white"/>
<path opacity="0.83" d="M549.966 240.893H546.441V244.643H549.966V240.893Z" fill="white"/>
<path opacity="0.99" d="M554.698 240.893H551.174V244.643H554.698V240.893Z" fill="white"/>
<path opacity="0.62" d="M559.43 240.893H555.906V244.643H559.43V240.893Z" fill="white"/>
<path opacity="0.87" d="M564.163 240.893H560.639V244.643H564.163V240.893Z" fill="white"/>
<path opacity="0.14" d="M568.796 240.893H565.271V244.643H568.796V240.893Z" fill="white"/>
<path opacity="0.12" d="M573.528 240.893H570.004V244.643H573.528V240.893Z" fill="white"/>
<path opacity="0.11" d="M578.261 240.893H574.736V244.643H578.261V240.893Z" fill="white"/>
<path opacity="0.39" d="M582.891 240.893H579.367V244.643H582.891V240.893Z" fill="white"/>
<path opacity="0.58" d="M587.624 240.893H584.1V244.643H587.624V240.893Z" fill="white"/>
<path opacity="0.54" d="M592.356 240.893H588.832V244.643H592.356V240.893Z" fill="white"/>
<path opacity="0.99" d="M545.335 245.822H541.811V249.572H545.335V245.822Z" fill="white"/>
<path opacity="0.28" d="M549.966 245.822H546.441V249.572H549.966V245.822Z" fill="white"/>
<path opacity="0.78" d="M554.698 245.822H551.174V249.572H554.698V245.822Z" fill="white"/>
<path opacity="0.65" d="M559.43 245.822H555.906V249.572H559.43V245.822Z" fill="white"/>
<path opacity="0.32" d="M564.163 245.822H560.639V249.572H564.163V245.822Z" fill="white"/>
<path opacity="0.55" d="M568.796 245.822H565.271V249.572H568.796V245.822Z" fill="white"/>
<path opacity="0.4" d="M573.528 245.822H570.004V249.572H573.528V245.822Z" fill="white"/>
<path opacity="0.22" d="M578.261 245.822H574.736V249.572H578.261V245.822Z" fill="white"/>
<path opacity="0.87" d="M582.891 245.822H579.367V249.572H582.891V245.822Z" fill="white"/>
<path opacity="0.02" d="M587.624 245.822H584.1V249.572H587.624V245.822Z" fill="white"/>
<path opacity="0.39" d="M592.356 245.822H588.832V249.572H592.356V245.822Z" fill="white"/>
<path opacity="0.89" d="M545.335 250.75H541.811V254.501H545.335V250.75Z" fill="white"/>
<path opacity="0.97" d="M549.966 250.75H546.441V254.501H549.966V250.75Z" fill="white"/>
<path opacity="0.79" d="M554.698 250.75H551.174V254.501H554.698V250.75Z" fill="white"/>
<path opacity="0.41" d="M559.43 250.75H555.906V254.501H559.43V250.75Z" fill="white"/>
<path opacity="0.13" d="M564.163 250.75H560.639V254.501H564.163V250.75Z" fill="white"/>
<path opacity="0.9" d="M568.796 250.75H565.271V254.501H568.796V250.75Z" fill="white"/>
<path opacity="0.98" d="M573.528 250.75H570.004V254.501H573.528V250.75Z" fill="white"/>
<path opacity="0.67" d="M578.261 250.75H574.736V254.501H578.261V250.75Z" fill="white"/>
<path opacity="0.65" d="M582.891 250.75H579.367V254.501H582.891V250.75Z" fill="white"/>
<path opacity="0.89" d="M587.624 250.75H584.1V254.501H587.624V250.75Z" fill="white"/>
<path opacity="0.98" d="M592.356 250.75H588.832V254.501H592.356V250.75Z" fill="white"/>
<path opacity="0.29" d="M545.335 255.679H541.811V259.429H545.335V255.679Z" fill="white"/>
<path opacity="0.74" d="M549.966 255.679H546.441V259.429H549.966V255.679Z" fill="white"/>
<path opacity="0.64" d="M554.698 255.679H551.174V259.429H554.698V255.679Z" fill="white"/>
<path opacity="0.65" d="M559.43 255.679H555.906V259.429H559.43V255.679Z" fill="white"/>
<path opacity="0.07" d="M564.163 255.679H560.639V259.429H564.163V255.679Z" fill="white"/>
<path opacity="0.16" d="M568.796 255.679H565.271V259.429H568.796V255.679Z" fill="white"/>
<path opacity="0.84" d="M573.528 255.679H570.004V259.429H573.528V255.679Z" fill="white"/>
<path opacity="0.88" d="M578.261 255.679H574.736V259.429H578.261V255.679Z" fill="white"/>
<path opacity="0.57" d="M582.891 255.679H579.367V259.429H582.891V255.679Z" fill="white"/>
<path opacity="0.31" d="M587.624 255.679H584.1V259.429H587.624V255.679Z" fill="white"/>
<path opacity="0.03" d="M592.356 255.679H588.832V259.429H592.356V255.679Z" fill="white"/>
<path opacity="0.3" d="M545.335 260.608H541.811V264.358H545.335V260.608Z" fill="white"/>
<path opacity="0.59" d="M549.966 260.608H546.441V264.358H549.966V260.608Z" fill="white"/>
<path opacity="0.93" d="M554.698 260.608H551.174V264.358H554.698V260.608Z" fill="white"/>
<path opacity="0.06" d="M559.43 260.608H555.906V264.358H559.43V260.608Z" fill="white"/>
<path opacity="0.74" d="M564.163 260.608H560.639V264.358H564.163V260.608Z" fill="white"/>
<path opacity="0.22" d="M568.796 260.608H565.271V264.358H568.796V260.608Z" fill="white"/>
<path opacity="0.51" d="M573.528 260.608H570.004V264.358H573.528V260.608Z" fill="white"/>
<path opacity="0.7" d="M578.261 260.608H574.736V264.358H578.261V260.608Z" fill="white"/>
<path opacity="0.47" d="M582.891 260.608H579.367V264.358H582.891V260.608Z" fill="white"/>
<path opacity="0.08" d="M587.624 260.608H584.1V264.358H587.624V260.608Z" fill="white"/>
<path opacity="0.93" d="M592.356 260.608H588.832V264.358H592.356V260.608Z" fill="white"/>
<path opacity="0.81" d="M545.335 265.537H541.811V269.287H545.335V265.537Z" fill="white"/>
<path opacity="0.9" d="M549.966 265.537H546.441V269.287H549.966V265.537Z" fill="white"/>
<path opacity="0.55" d="M554.698 265.537H551.174V269.287H554.698V265.537Z" fill="white"/>
<path opacity="0.14" d="M559.43 265.537H555.906V269.287H559.43V265.537Z" fill="white"/>
<path opacity="0.66" d="M564.163 265.537H560.639V269.287H564.163V265.537Z" fill="white"/>
<path opacity="0.92" d="M568.796 265.537H565.271V269.287H568.796V265.537Z" fill="white"/>
<path opacity="0.4" d="M573.528 265.537H570.004V269.287H573.528V265.537Z" fill="white"/>
<path opacity="0.6" d="M578.261 265.537H574.736V269.287H578.261V265.537Z" fill="white"/>
<path opacity="0.99" d="M582.891 265.537H579.367V269.287H582.891V265.537Z" fill="white"/>
<path opacity="0.68" d="M587.624 265.537H584.1V269.287H587.624V265.537Z" fill="white"/>
<path opacity="0.01" d="M592.356 265.537H588.832V269.287H592.356V265.537Z" fill="white"/>
<path d="M485.827 167.388H452.6V278.181H485.827V167.388Z" fill="#333333"/>
<path d="M467.703 161.816H452.6V168.031H467.703V161.816Z" fill="#333333"/>
<path d="M461.36 158.173H452.6V161.816H461.36V158.173Z" fill="#333333"/>
<path opacity="0.25" d="M471.832 175.21H466.395V180.996H471.832V175.21Z" fill="white"/>
<path opacity="0.15" d="M471.832 189.461H466.395V195.247H471.832V189.461Z" fill="white"/>
<path opacity="0.19" d="M471.832 217.855H466.395V223.641H471.832V217.855Z" fill="white"/>
<path opacity="0.17" d="M471.832 231.999H466.395V237.785H471.832V231.999Z" fill="white"/>
<path opacity="0.22" d="M471.832 246.143H466.395V251.929H471.832V246.143Z" fill="white"/>
<path d="M471.832 260.394H466.395V266.18H471.832V260.394Z" fill="white"/>
<path d="M461.158 229.106H430.045V238.857H461.158V229.106Z" fill="#333333"/>
<path d="M476.664 229.106H461.158V238.857H476.664V229.106Z" fill="#4D4D4D"/>
<path d="M430.045 229.106L439.711 224.177L461.158 229.106H430.045Z" fill="#333333"/>
<path d="M439.711 224.177L461.158 229.106H476.664L439.711 224.177Z" fill="#4D4D4D"/>
<path d="M468.408 235.964H422.896V280.323H468.408V235.964Z" fill="#333333"/>
<path d="M483.512 235.964H468.408V280.323H483.512V235.964Z" fill="#4D4D4D"/>
<path opacity="0.81" d="M479.988 239.071H471.832V242.286H479.988V239.071Z" fill="white"/>
<path opacity="0.76" d="M479.988 244.964H471.832V248.179H479.988V244.964Z" fill="white"/>
<path opacity="0.32" d="M479.988 250.857H471.832V254.072H479.988V250.857Z" fill="white"/>
<path opacity="0.49" d="M479.988 256.858H471.832V260.072H479.988V256.858Z" fill="white"/>
<path opacity="0.99" d="M479.988 268.644H471.832V271.859H479.988V268.644Z" fill="white"/>
<path opacity="0.1" d="M438.302 239.071H430.146V242.286H438.302V239.071Z" fill="white"/>
<path opacity="0.04" d="M449.679 239.071H441.523V242.286H449.679V239.071Z" fill="white"/>
<path opacity="0.07" d="M461.16 239.071H453.004V242.286H461.16V239.071Z" fill="white"/>
<path opacity="0.06" d="M438.302 244.964H430.146V248.179H438.302V244.964Z" fill="white"/>
<path opacity="0.44" d="M449.679 244.964H441.523V248.179H449.679V244.964Z" fill="white"/>
<path opacity="0.24" d="M461.16 244.964H453.004V248.179H461.16V244.964Z" fill="white"/>
<path opacity="0.55" d="M438.302 250.857H430.146V254.072H438.302V250.857Z" fill="white"/>
<path opacity="0.02" d="M449.679 250.857H441.523V254.072H449.679V250.857Z" fill="white"/>
<path opacity="0.14" d="M461.16 250.857H453.004V254.072H461.16V250.857Z" fill="white"/>
<path opacity="0.43" d="M438.302 256.858H430.146V260.072H438.302V256.858Z" fill="white"/>
<path opacity="0.41" d="M449.679 256.858H441.523V260.072H449.679V256.858Z" fill="white"/>
<path opacity="0.46" d="M461.16 256.858H453.004V260.072H461.16V256.858Z" fill="white"/>
<path opacity="0.45" d="M438.302 262.751H430.146V265.966H438.302V262.751Z" fill="white"/>
<path opacity="0.33" d="M449.679 262.751H441.523V265.966H449.679V262.751Z" fill="white"/>
<path opacity="0.05" d="M461.16 262.751H453.004V265.966H461.16V262.751Z" fill="white"/>
<path opacity="0.27" d="M438.302 268.644H430.146V271.859H438.302V268.644Z" fill="white"/>
<path opacity="0.15" d="M449.679 268.644H441.523V271.859H449.679V268.644Z" fill="white"/>
<path opacity="0.7" d="M461.16 268.644H453.004V271.859H461.16V268.644Z" fill="white"/>
<path d="M246.992 191.604H218.799V284.074H246.992V191.604Z" fill="#333333"/>
<path d="M279.111 191.604H247.092V284.074H279.111V191.604Z" fill="#4D4D4D"/>
<path d="M246.992 199.426H218.799V201.033H246.992V199.426Z" fill="#4D4D4D"/>
<path d="M279.111 199.426H247.092V201.033H279.111V199.426Z" fill="#333333"/>
<path opacity="0.47" d="M224.136 202.854H221.115V206.069H224.136V202.854Z" fill="white"/>
<path opacity="0.26" d="M228.265 202.854H225.244V206.069H228.265V202.854Z" fill="white"/>
<path opacity="0.32" d="M232.392 202.854H229.371V206.069H232.392V202.854Z" fill="white"/>
<path opacity="0.25" d="M236.521 202.854H233.5V206.069H236.521V202.854Z" fill="white"/>
<path opacity="0.12" d="M244.777 202.854H241.756V206.069H244.777V202.854Z" fill="white"/>
<path opacity="0.32" d="M224.136 207.248H221.115V210.462H224.136V207.248Z" fill="white"/>
<path opacity="0.22" d="M232.392 207.248H229.371V210.462H232.392V207.248Z" fill="white"/>
<path opacity="0.47" d="M236.521 207.248H233.5V210.462H236.521V207.248Z" fill="white"/>
<path opacity="0.22" d="M240.65 207.248H237.629V210.462H240.65V207.248Z" fill="white"/>
<path opacity="0.32" d="M244.777 207.248H241.756V210.462H244.777V207.248Z" fill="white"/>
<path opacity="0.37" d="M224.136 211.641H221.115V214.855H224.136V211.641Z" fill="white"/>
<path opacity="0.34" d="M228.265 211.641H225.244V214.855H228.265V211.641Z" fill="white"/>
<path opacity="0.18" d="M232.392 211.641H229.371V214.855H232.392V211.641Z" fill="white"/>
<path opacity="0.28" d="M236.521 211.641H233.5V214.855H236.521V211.641Z" fill="white"/>
<path opacity="0.2" d="M244.777 211.641H241.756V214.855H244.777V211.641Z" fill="white"/>
<path opacity="0.18" d="M224.136 216.034H221.115V219.248H224.136V216.034Z" fill="white"/>
<path opacity="0.33" d="M232.392 216.034H229.371V219.248H232.392V216.034Z" fill="white"/>
<path opacity="0.05" d="M236.521 216.034H233.5V219.248H236.521V216.034Z" fill="white"/>
<path opacity="0.08" d="M240.65 216.034H237.629V219.248H240.65V216.034Z" fill="white"/>
<path opacity="0.08" d="M236.521 220.427H233.5V223.642H236.521V220.427Z" fill="white"/>
<path opacity="0.02" d="M240.65 220.427H237.629V223.642H240.65V220.427Z" fill="white"/>
<path opacity="0.03" d="M224.136 224.82H221.115V228.035H224.136V224.82Z" fill="white"/>
<path opacity="0.46" d="M228.265 224.82H225.244V228.035H228.265V224.82Z" fill="white"/>
<path opacity="0.05" d="M232.392 224.82H229.371V228.035H232.392V224.82Z" fill="white"/>
<path opacity="0.2" d="M236.521 224.82H233.5V228.035H236.521V224.82Z" fill="white"/>
<path opacity="0.23" d="M240.65 224.82H237.629V228.035H240.65V224.82Z" fill="white"/>
<path opacity="0.17" d="M224.136 229.213H221.115V232.428H224.136V229.213Z" fill="white"/>
<path opacity="0.08" d="M228.265 229.213H225.244V232.428H228.265V229.213Z" fill="white"/>
<path opacity="0.14" d="M232.392 229.213H229.371V232.428H232.392V229.213Z" fill="white"/>
<path opacity="0.24" d="M240.65 229.213H237.629V232.428H240.65V229.213Z" fill="white"/>
<path opacity="0.28" d="M224.136 233.606H221.115V236.821H224.136V233.606Z" fill="white"/>
<path opacity="0.3" d="M228.265 233.606H225.244V236.821H228.265V233.606Z" fill="white"/>
<path opacity="0.23" d="M232.392 233.606H229.371V236.821H232.392V233.606Z" fill="white"/>
<path opacity="0.02" d="M236.521 233.606H233.5V236.821H236.521V233.606Z" fill="white"/>
<path opacity="0.04" d="M240.65 233.606H237.629V236.821H240.65V233.606Z" fill="white"/>
<path opacity="0.3" d="M244.777 233.606H241.756V236.821H244.777V233.606Z" fill="white"/>
<path opacity="0.08" d="M228.265 237.892H225.244V241.107H228.265V237.892Z" fill="white"/>
<path opacity="0.4" d="M244.777 237.892H241.756V241.107H244.777V237.892Z" fill="white"/>
<path opacity="0.31" d="M224.136 242.286H221.115V245.5H224.136V242.286Z" fill="white"/>
<path opacity="0.31" d="M228.265 242.286H225.244V245.5H228.265V242.286Z" fill="white"/>
<path opacity="0.12" d="M232.392 242.286H229.371V245.5H232.392V242.286Z" fill="white"/>
<path opacity="0.19" d="M240.65 242.286H237.629V245.5H240.65V242.286Z" fill="white"/>
<path opacity="0.43" d="M244.777 242.286H241.756V245.5H244.777V242.286Z" fill="white"/>
<path opacity="0.12" d="M224.136 246.678H221.115V249.893H224.136V246.678Z" fill="white"/>
<path opacity="0.42" d="M236.521 246.678H233.5V249.893H236.521V246.678Z" fill="white"/>
<path opacity="0.31" d="M244.777 246.678H241.756V249.893H244.777V246.678Z" fill="white"/>
<path opacity="0.23" d="M224.136 251.072H221.115V254.286H224.136V251.072Z" fill="white"/>
<path opacity="0.31" d="M236.521 251.072H233.5V254.286H236.521V251.072Z" fill="white"/>
<path opacity="0.33" d="M244.777 251.072H241.756V254.286H244.777V251.072Z" fill="white"/>
<path opacity="0.49" d="M224.136 255.465H221.115V258.679H224.136V255.465Z" fill="white"/>
<path opacity="0.06" d="M228.265 255.465H225.244V258.679H228.265V255.465Z" fill="white"/>
<path opacity="0.17" d="M236.521 255.465H233.5V258.679H236.521V255.465Z" fill="white"/>
<path opacity="0.01" d="M240.65 255.465H237.629V258.679H240.65V255.465Z" fill="white"/>
<path opacity="0.48" d="M244.777 255.465H241.756V258.679H244.777V255.465Z" fill="white"/>
<path opacity="0.05" d="M224.136 259.858H221.115V263.072H224.136V259.858Z" fill="white"/>
<path opacity="0.23" d="M228.265 259.858H225.244V263.072H228.265V259.858Z" fill="white"/>
<path opacity="0.28" d="M232.392 259.858H229.371V263.072H232.392V259.858Z" fill="white"/>
<path opacity="0.02" d="M236.521 259.858H233.5V263.072H236.521V259.858Z" fill="white"/>
<path opacity="0.17" d="M240.65 259.858H237.629V263.072H240.65V259.858Z" fill="white"/>
<path opacity="0.42" d="M244.777 259.858H241.756V263.072H244.777V259.858Z" fill="white"/>
<path opacity="0.13" d="M224.136 264.251H221.115V267.466H224.136V264.251Z" fill="white"/>
<path opacity="0.11" d="M232.392 264.251H229.371V267.466H232.392V264.251Z" fill="white"/>
<path opacity="0.02" d="M236.521 264.251H233.5V267.466H236.521V264.251Z" fill="white"/>
<path opacity="0.3" d="M244.777 264.251H241.756V267.466H244.777V264.251Z" fill="white"/>
<path opacity="0.23" d="M224.136 268.644H221.115V271.859H224.136V268.644Z" fill="white"/>
<path opacity="0.01" d="M228.265 268.644H225.244V271.859H228.265V268.644Z" fill="white"/>
<path opacity="0.19" d="M232.392 268.644H229.371V271.859H232.392V268.644Z" fill="white"/>
<path opacity="0.05" d="M236.521 268.644H233.5V271.859H236.521V268.644Z" fill="white"/>
<path opacity="0.2" d="M244.777 268.644H241.756V271.859H244.777V268.644Z" fill="white"/>
<path opacity="0.08" d="M240.65 202.854H237.629V206.069H240.65V202.854Z" fill="white"/>
<path opacity="0.1" d="M228.265 207.248H225.244V210.462H228.265V207.248Z" fill="white"/>
<path opacity="0.08" d="M240.65 211.641H237.629V214.855H240.65V211.641Z" fill="white"/>
<path opacity="0.1" d="M228.265 216.034H225.244V219.248H228.265V216.034Z" fill="white"/>
<path opacity="0.01" d="M244.777 216.034H241.756V219.248H244.777V216.034Z" fill="white"/>
<path opacity="0.17" d="M224.136 220.427H221.115V223.642H224.136V220.427Z" fill="white"/>
<path opacity="0.01" d="M228.265 220.427H225.244V223.642H228.265V220.427Z" fill="white"/>
<path opacity="0.15" d="M232.392 220.427H229.371V223.642H232.392V220.427Z" fill="white"/>
<path opacity="0.12" d="M244.777 220.427H241.756V223.642H244.777V220.427Z" fill="white"/>
<path opacity="0.13" d="M236.521 229.213H233.5V232.428H236.521V229.213Z" fill="white"/>
<path opacity="0.07" d="M244.777 229.213H241.756V232.428H244.777V229.213Z" fill="white"/>
<path opacity="0.13" d="M224.136 237.892H221.115V241.107H224.136V237.892Z" fill="white"/>
<path opacity="0.02" d="M232.392 237.892H229.371V241.107H232.392V237.892Z" fill="white"/>
<path opacity="0.02" d="M236.521 237.892H233.5V241.107H236.521V237.892Z" fill="white"/>
<path opacity="0.14" d="M240.65 237.892H237.629V241.107H240.65V237.892Z" fill="white"/>
<path opacity="0.09" d="M232.392 246.678H229.371V249.893H232.392V246.678Z" fill="white"/>
<path opacity="0.02" d="M240.65 246.678H237.629V249.893H240.65V246.678Z" fill="white"/>
<path opacity="0.19" d="M232.392 251.072H229.371V254.286H232.392V251.072Z" fill="white"/>
<path opacity="0.06" d="M240.65 251.072H237.629V254.286H240.65V251.072Z" fill="white"/>
<path opacity="0.16" d="M232.392 255.465H229.371V258.679H232.392V255.465Z" fill="white"/>
<path opacity="0.19" d="M228.265 264.251H225.244V267.466H228.265V264.251Z" fill="white"/>
<path opacity="0.04" d="M240.65 264.251H237.629V267.466H240.65V264.251Z" fill="white"/>
<path opacity="0.04" d="M240.65 268.644H237.629V271.859H240.65V268.644Z" fill="white"/>
<g opacity="0.7">
<path opacity="0.7" d="M253.133 201.033H250.012V280.002H253.133V201.033Z" fill="#E6E6E6"/>
<path opacity="0.7" d="M258.469 201.033H255.348V280.002H258.469V201.033Z" fill="#E6E6E6"/>
<path opacity="0.7" d="M263.907 201.033H260.785V280.002H263.907V201.033Z" fill="#E6E6E6"/>
<path opacity="0.7" d="M269.344 201.033H266.223V280.002H269.344V201.033Z" fill="#E6E6E6"/>
<path opacity="0.7" d="M274.782 201.033H271.66V280.002H274.782V201.033Z" fill="#E6E6E6"/>
</g>
<path d="M184.161 146.28L177.918 128.707L194.632 146.28H184.161Z" fill="#4D4D4D"/>
<path d="M169.561 146.28L177.918 128.707L184.161 146.28H169.561Z" fill="#333333"/>
<path d="M184.161 146.28H169.561V165.031H184.161V146.28Z" fill="#333333"/>
<path d="M194.632 146.28H184.16V165.031H194.632V146.28Z" fill="#4D4D4D"/>
<path d="M198.963 230.606H154.76V284.502H198.963V230.606Z" fill="#333333"/>
<path d="M192.922 192.032H160.902V230.606H192.922V192.032Z" fill="#333333"/>
<path d="M188.289 153.459H165.533V192.032H188.289V153.459Z" fill="#333333"/>
<path d="M203.897 153.459H188.189V192.032H203.897V153.459Z" fill="#4D4D4D"/>
<path d="M226.149 230.606H198.963V284.502H226.149V230.606Z" fill="#4D4D4D"/>
<path d="M213.563 192.032H192.922V230.606H213.563V192.032Z" fill="#4D4D4D"/>
<path opacity="0.53" d="M198.459 156.245H193.727V161.281H198.459V156.245Z" fill="white"/>
<path opacity="0.34" d="M198.459 162.566H193.727V167.602H198.459V162.566Z" fill="white"/>
<path opacity="0.9" d="M198.459 168.781H193.727V173.817H198.459V168.781Z" fill="white"/>
<path opacity="0.14" d="M198.459 174.996H193.727V180.032H198.459V174.996Z" fill="white"/>
<path d="M198.459 181.318H193.727V186.354H198.459V181.318Z" fill="white"/>
<path opacity="0.29" d="M201.982 195.354H197.25V200.39H201.982V195.354Z" fill="white"/>
<path opacity="0.81" d="M209.232 195.354H204.5V200.39H209.232V195.354Z" fill="white"/>
<path opacity="0.18" d="M201.982 201.676H197.25V206.712H201.982V201.676Z" fill="white"/>
<path opacity="0.41" d="M209.232 201.676H204.5V206.712H209.232V201.676Z" fill="white"/>
<path opacity="0.03" d="M209.232 208.105H204.5V213.141H209.232V208.105Z" fill="white"/>
<path opacity="0.85" d="M201.982 214.534H197.25V219.57H201.982V214.534Z" fill="white"/>
<path opacity="0.06" d="M209.232 214.534H204.5V219.57H209.232V214.534Z" fill="white"/>
<path opacity="0.94" d="M201.982 220.856H197.25V225.892H201.982V220.856Z" fill="white"/>
<path opacity="0.25" d="M209.232 220.856H204.5V225.892H209.232V220.856Z" fill="white"/>
<path opacity="0.6" d="M208.629 233.928H203.896V238.964H208.629V233.928Z" fill="white"/>
<path opacity="0.83" d="M214.973 233.928H210.24V238.964H214.973V233.928Z" fill="white"/>
<path opacity="0.74" d="M221.316 233.928H216.584V238.964H221.316V233.928Z" fill="white"/>
<path opacity="0.35" d="M214.973 240.035H210.24V245.071H214.973V240.035Z" fill="white"/>
<path opacity="0.54" d="M221.316 240.035H216.584V245.071H221.316V240.035Z" fill="white"/>
<path opacity="0.2" d="M208.629 246.143H203.896V251.179H208.629V246.143Z" fill="white"/>
<path opacity="0.04" d="M214.973 246.143H210.24V251.179H214.973V246.143Z" fill="white"/>
<path opacity="0.86" d="M221.316 246.143H216.584V251.179H221.316V246.143Z" fill="white"/>
<path opacity="0.06" d="M208.629 252.25H203.896V257.287H208.629V252.25Z" fill="white"/>
<path opacity="0.01" d="M214.973 252.25H210.24V257.287H214.973V252.25Z" fill="white"/>
<path opacity="0.39" d="M221.316 252.25H216.584V257.287H221.316V252.25Z" fill="white"/>
<path opacity="0.1" d="M208.629 258.465H203.896V263.501H208.629V258.465Z" fill="white"/>
<path d="M214.973 258.465H210.24V263.501H214.973V258.465Z" fill="white"/>
<path opacity="0.62" d="M221.316 258.465H216.584V263.501H221.316V258.465Z" fill="white"/>
<path opacity="0.48" d="M208.629 264.787H203.896V269.823H208.629V264.787Z" fill="white"/>
<path opacity="0.27" d="M214.973 264.787H210.24V269.823H214.973V264.787Z" fill="white"/>
<path opacity="0.42" d="M221.316 264.787H216.584V269.823H221.316V264.787Z" fill="white"/>
<path opacity="0.27" d="M164.225 233.928H159.492V238.964H164.225V233.928Z" fill="white"/>
<path opacity="0.11" d="M169.561 195.354H164.828V200.39H169.561V195.354Z" fill="white"/>
<path opacity="0.41" d="M173.287 156.245H168.555V161.281H173.287V156.245Z" fill="white"/>
<path opacity="0.38" d="M179.227 156.245H174.494V161.281H179.227V156.245Z" fill="white"/>
<path opacity="0.02" d="M185.27 156.245H180.537V161.281H185.27V156.245Z" fill="white"/>
<path opacity="0.46" d="M173.287 162.566H168.555V167.602H173.287V162.566Z" fill="white"/>
<path opacity="0.31" d="M179.227 162.566H174.494V167.602H179.227V162.566Z" fill="white"/>
<path opacity="0.61" d="M185.27 162.566H180.537V167.602H185.27V162.566Z" fill="white"/>
<path opacity="0.03" d="M173.287 168.781H168.555V173.817H173.287V168.781Z" fill="white"/>
<path opacity="0.03" d="M179.227 168.781H174.494V173.817H179.227V168.781Z" fill="white"/>
<path opacity="0.46" d="M185.27 168.781H180.537V173.817H185.27V168.781Z" fill="white"/>
<path opacity="0.32" d="M173.287 174.996H168.555V180.032H173.287V174.996Z" fill="white"/>
<path opacity="0.14" d="M179.227 174.996H174.494V180.032H179.227V174.996Z" fill="white"/>
<path opacity="0.3" d="M185.27 174.996H180.537V180.032H185.27V174.996Z" fill="white"/>
<path opacity="0.04" d="M173.287 181.318H168.555V186.354H173.287V181.318Z" fill="white"/>
<path opacity="0.64" d="M179.227 181.318H174.494V186.354H179.227V181.318Z" fill="white"/>
<path opacity="0.05" d="M185.27 181.318H180.537V186.354H185.27V181.318Z" fill="white"/>
<path opacity="0.15" d="M175.602 195.354H170.869V200.39H175.602V195.354Z" fill="white"/>
<path opacity="0.15" d="M181.645 195.354H176.912V200.39H181.645V195.354Z" fill="white"/>
<path opacity="0.52" d="M187.584 195.354H182.852V200.39H187.584V195.354Z" fill="white"/>
<path opacity="0.58" d="M169.561 201.676H164.828V206.712H169.561V201.676Z" fill="white"/>
<path opacity="0.62" d="M175.602 201.676H170.869V206.712H175.602V201.676Z" fill="white"/>
<path opacity="0.04" d="M181.645 201.676H176.912V206.712H181.645V201.676Z" fill="white"/>
<path opacity="0.06" d="M187.584 201.676H182.852V206.712H187.584V201.676Z" fill="white"/>
<path opacity="0.3" d="M169.561 208.105H164.828V213.141H169.561V208.105Z" fill="white"/>
<path opacity="0.01" d="M175.602 208.105H170.869V213.141H175.602V208.105Z" fill="white"/>
<path opacity="0.37" d="M181.645 208.105H176.912V213.141H181.645V208.105Z" fill="white"/>
<path opacity="0.62" d="M187.584 208.105H182.852V213.141H187.584V208.105Z" fill="white"/>
<path opacity="0.54" d="M169.561 214.534H164.828V219.57H169.561V214.534Z" fill="white"/>
<path opacity="0.21" d="M175.602 214.534H170.869V219.57H175.602V214.534Z" fill="white"/>
<path opacity="0.41" d="M181.645 214.534H176.912V219.57H181.645V214.534Z" fill="white"/>
<path opacity="0.1" d="M187.584 214.534H182.852V219.57H187.584V214.534Z" fill="white"/>
<path opacity="0.17" d="M169.561 220.856H164.828V225.892H169.561V220.856Z" fill="white"/>
<path opacity="0.17" d="M175.602 220.856H170.869V225.892H175.602V220.856Z" fill="white"/>
<path opacity="0.13" d="M181.645 220.856H176.912V225.892H181.645V220.856Z" fill="white"/>
<path opacity="0.5" d="M187.584 220.856H182.852V225.892H187.584V220.856Z" fill="white"/>
<path opacity="0.06" d="M170.266 233.928H165.533V238.964H170.266V233.928Z" fill="white"/>
<path opacity="0.27" d="M176.207 233.928H171.475V238.964H176.207V233.928Z" fill="white"/>
<path opacity="0.51" d="M182.248 233.928H177.516V238.964H182.248V233.928Z" fill="white"/>
<path opacity="0.42" d="M188.289 233.928H183.557V238.964H188.289V233.928Z" fill="white"/>
<path opacity="0.64" d="M194.23 233.928H189.498V238.964H194.23V233.928Z" fill="white"/>
<path opacity="0.29" d="M164.225 240.035H159.492V245.071H164.225V240.035Z" fill="white"/>
<path opacity="0.6" d="M170.266 240.035H165.533V245.071H170.266V240.035Z" fill="white"/>
<path opacity="0.2" d="M176.207 240.035H171.475V245.071H176.207V240.035Z" fill="white"/>
<path opacity="0.24" d="M182.248 240.035H177.516V245.071H182.248V240.035Z" fill="white"/>
<path opacity="0.62" d="M188.289 240.035H183.557V245.071H188.289V240.035Z" fill="white"/>
<path opacity="0.62" d="M194.23 240.035H189.498V245.071H194.23V240.035Z" fill="white"/>
<path opacity="0.25" d="M164.225 246.143H159.492V251.179H164.225V246.143Z" fill="white"/>
<path opacity="0.36" d="M170.266 246.143H165.533V251.179H170.266V246.143Z" fill="white"/>
<path opacity="0.16" d="M176.207 246.143H171.475V251.179H176.207V246.143Z" fill="white"/>
<path opacity="0.1" d="M182.248 246.143H177.516V251.179H182.248V246.143Z" fill="white"/>
<path opacity="0.04" d="M188.289 246.143H183.557V251.179H188.289V246.143Z" fill="white"/>
<path opacity="0.44" d="M194.23 246.143H189.498V251.179H194.23V246.143Z" fill="white"/>
<path opacity="0.68" d="M164.225 252.25H159.492V257.287H164.225V252.25Z" fill="white"/>
<path opacity="0.01" d="M170.266 252.25H165.533V257.287H170.266V252.25Z" fill="white"/>
<path opacity="0.29" d="M176.207 252.25H171.475V257.287H176.207V252.25Z" fill="white"/>
<path opacity="0.66" d="M182.248 252.25H177.516V257.287H182.248V252.25Z" fill="white"/>
<path opacity="0.12" d="M188.289 252.25H183.557V257.287H188.289V252.25Z" fill="white"/>
<path opacity="0.34" d="M194.23 252.25H189.498V257.287H194.23V252.25Z" fill="white"/>
<path opacity="0.36" d="M164.225 258.465H159.492V263.501H164.225V258.465Z" fill="white"/>
<path opacity="0.5" d="M170.266 258.465H165.533V263.501H170.266V258.465Z" fill="white"/>
<path opacity="0.07" d="M176.207 258.465H171.475V263.501H176.207V258.465Z" fill="white"/>
<path opacity="0.64" d="M182.248 258.465H177.516V263.501H182.248V258.465Z" fill="white"/>
<path opacity="0.4" d="M188.289 258.465H183.557V263.501H188.289V258.465Z" fill="white"/>
<path opacity="0.27" d="M194.23 258.465H189.498V263.501H194.23V258.465Z" fill="white"/>
<path opacity="0.09" d="M164.225 264.787H159.492V269.823H164.225V264.787Z" fill="white"/>
<path opacity="0.47" d="M170.266 264.787H165.533V269.823H170.266V264.787Z" fill="white"/>
<path opacity="0.57" d="M176.207 264.787H171.475V269.823H176.207V264.787Z" fill="white"/>
<path opacity="0.12" d="M182.248 264.787H177.516V269.823H182.248V264.787Z" fill="white"/>
<path opacity="0.23" d="M188.289 264.787H183.557V269.823H188.289V264.787Z" fill="white"/>
<path opacity="0.36" d="M194.23 264.787H189.498V269.823H194.23V264.787Z" fill="white"/>
<path d="M295.223 280.002H232.594L295.223 221.927V280.002Z" fill="#333333"/>
<path d="M160.902 281.181H74.1074L160.902 200.819V281.181Z" fill="#333333"/>
<path d="M288.275 266.716H269.949V272.716H288.275V266.716Z" fill="#4D4D4D"/>
<path d="M286.16 268.537H271.963L276.897 259.751H281.226L286.16 268.537Z" fill="#4D4D4D"/>
<path d="M209.938 275.18C209.938 279.359 206.817 282.788 202.991 282.788C199.164 282.788 196.043 279.359 196.043 275.18C196.043 271.002 199.164 267.573 202.991 267.573C206.817 267.466 209.938 270.894 209.938 275.18Z" fill="#333333"/>
<path d="M345.97 274.752C345.97 277.966 343.654 280.538 340.734 280.538C337.814 280.538 335.498 277.966 335.498 274.752C335.498 271.537 337.814 268.966 340.734 268.966C343.654 269.073 345.97 271.644 345.97 274.752Z" fill="#333333"/>
<path d="M396.92 271.859C396.92 274.645 394.805 277.002 392.288 277.002C389.771 277.002 387.656 274.752 387.656 271.859C387.656 269.073 389.771 266.716 392.288 266.716C394.805 266.716 396.92 269.073 396.92 271.859Z" fill="#333333"/>
<path d="M234.707 272.18C234.707 275.073 232.593 277.431 229.874 277.431C227.256 277.431 225.041 275.073 225.041 272.18C225.041 269.287 227.156 266.93 229.874 266.93C232.593 266.93 234.707 269.287 234.707 272.18Z" fill="#333333"/>
</svg>
