<svg width="338" height="336" viewBox="0 0 338 336" fill="none" xmlns="http://www.w3.org/2000/svg">
<path d="M197.649 253.249C181.606 253.249 165.563 252.298 150.463 244.689C133.476 236.128 120.264 222.812 111.77 205.691C102.333 185.716 99.5021 165.742 110.827 144.816C113.658 139.109 116.489 132.451 119.32 126.744C122.151 121.037 126.87 117.232 131.589 112.476C141.97 103.916 152.35 98.2088 165.563 94.4041C169.337 93.453 173.112 91.5506 176.887 90.5995C190.099 83.9413 203.311 89.6483 215.58 93.453C218.411 94.4041 221.242 96.3065 225.017 95.3553C225.961 95.3553 226.904 95.3553 227.848 96.3065C236.342 103.916 247.666 107.72 254.272 117.232C256.16 119.134 258.047 121.988 260.878 122.939C266.541 125.793 264.653 134.353 258.991 137.207C258.047 138.158 257.104 138.158 256.16 137.207C251.441 132.451 243.891 132.451 240.117 125.793C239.173 124.841 238.229 123.89 236.342 122.939C223.13 118.183 210.861 110.574 195.762 109.623C191.987 109.623 188.212 110.574 184.437 111.525C174.056 113.427 164.619 115.33 157.069 124.841C154.238 128.646 148.576 130.548 145.744 134.353C139.138 141.011 137.251 149.572 136.307 158.132C134.42 175.253 140.082 190.472 147.632 204.74C148.576 206.642 149.519 207.593 151.407 207.593C158.957 212.349 166.506 216.154 174.056 219.958C181.606 223.763 188.212 221.861 195.762 222.812C207.086 222.812 215.58 217.105 225.017 212.349C232.567 208.544 234.454 201.886 236.342 194.277C236.342 193.326 236.342 192.374 237.285 191.423C241.06 177.156 237.285 165.742 225.017 157.181C219.355 153.377 214.636 148.621 208.03 146.718C196.705 142.914 184.437 146.718 176.887 156.23C168.394 166.693 169.337 177.156 179.718 186.667C185.381 192.374 193.874 191.423 198.593 185.716C201.424 181.912 201.424 179.058 196.705 176.205C193.874 174.302 191.987 173.351 189.156 171.449C187.268 170.498 185.381 168.595 185.381 165.742C186.324 162.888 188.212 160.986 191.043 160.035C195.762 158.132 200.48 160.035 204.255 161.937C207.086 163.839 210.861 165.742 213.692 167.644C221.242 174.302 222.186 181.912 219.355 190.472C217.467 194.277 215.58 197.13 214.636 200.935C212.749 205.691 208.03 208.544 204.255 208.544C193.874 209.495 183.493 210.447 174.056 204.74C152.35 191.423 143.857 168.595 158.013 147.669C161.788 141.011 166.506 135.304 174.056 131.5C188.212 123.89 202.368 122.939 217.467 127.695C230.679 131.5 242.004 139.109 254.272 144.816C257.104 145.767 257.104 148.621 258.991 151.474C269.372 165.742 270.316 181.912 267.485 198.081C262.766 226.616 243.891 242.786 217.467 252.298C209.917 254.2 203.311 253.249 197.649 253.249Z" fill="#F4E23E" fill-opacity="0.94"/>
<path d="M179.718 55.4055C179.718 59.2101 179.718 62.0636 178.775 65.8683C175.943 73.4776 166.506 76.3311 160.844 70.6241C153.294 63.966 146.688 55.4055 143.857 44.9427C141.969 38.2845 136.307 36.3821 130.645 32.5775C129.701 31.6263 127.813 31.6263 125.926 30.6752C123.095 27.8217 120.264 25.9193 122.151 20.2123C124.039 14.5053 127.813 11.6518 132.532 8.79828C135.363 6.89595 139.138 4.99363 141.026 2.14013C143.857 -0.713375 146.688 -0.713375 149.519 2.14013C159.9 14.5053 170.281 27.8216 176.887 43.0403C179.718 47.7962 179.718 51.6008 179.718 55.4055Z" fill="#F4E23E" fill-opacity="0.94"/>
<path d="M170.283 336C169.339 336 167.452 336 165.564 335.049C160.846 332.195 156.127 330.293 151.408 328.391C142.915 325.537 142.915 324.586 143.859 316.025C144.802 308.416 142.915 301.758 144.802 294.149C146.69 287.49 147.634 279.881 149.521 273.223C150.465 270.369 152.352 268.467 154.24 267.516C158.014 264.662 162.733 266.565 166.508 263.711C166.508 263.711 167.452 263.711 168.395 263.711C178.776 271.321 181.608 279.881 177.833 292.246C175.001 300.807 173.114 310.318 177.833 318.879C179.72 321.732 179.72 324.586 179.72 327.439C178.776 333.146 175.945 336 170.283 336Z" fill="#F4E23E" fill-opacity="0.94"/>
<path d="M224.075 77.2817C222.187 76.3306 218.412 79.1841 217.469 76.3306C215.581 71.5747 210.863 68.7212 209.919 63.0142C208.975 55.4049 212.75 49.6979 214.638 43.9909C218.412 35.4304 221.244 27.821 219.356 18.3093C218.412 14.5047 218.412 9.74885 223.131 7.84652C227.85 5.94418 231.625 6.89536 235.4 9.74886C237.287 11.6512 240.118 13.5535 242.006 15.4558C248.612 20.2117 252.386 26.8699 250.499 35.4304C248.612 47.7956 242.949 59.2095 236.343 70.6235C235.399 76.3305 229.737 78.2329 224.075 77.2817Z" fill="#F4E23E" fill-opacity="0.94"/>
<path d="M212.751 284.637C212.751 273.223 219.358 266.565 229.739 265.614C231.626 265.614 232.57 266.565 232.57 267.516C237.288 275.125 242.007 282.735 244.838 291.295C246.725 296.051 251.444 298.905 254.275 302.709C256.163 304.612 257.106 306.514 258.994 308.416C261.825 313.172 260.881 315.074 256.163 317.928C251.444 320.781 246.725 323.635 242.007 327.44C239.176 330.293 232.57 329.342 230.682 325.537C223.132 313.172 215.583 301.758 212.751 287.491C212.751 286.539 212.751 285.588 212.751 284.637Z" fill="#F4E23E" fill-opacity="0.94"/>
<path d="M106.421 251.707C112.084 251.707 120.577 257.414 121.521 262.17C122.465 264.072 120.577 265.024 119.633 266.926C113.971 274.535 106.421 280.242 100.759 287.852C97.9278 291.656 96.0403 296.412 93.2091 301.168C88.4905 309.728 85.6593 309.728 79.0533 304.021C76.2221 301.168 73.391 298.314 69.6161 296.412C64.8975 293.559 63.9537 286.9 66.7849 282.145C74.3347 272.633 81.8845 264.072 92.2654 256.463C96.984 253.61 101.703 251.707 106.421 251.707Z" fill="#F4E23E" fill-opacity="0.94"/>
<path d="M265.597 91.5497C265.597 87.745 266.541 84.8915 269.372 81.0869C275.978 71.5752 285.415 63.9659 294.853 57.3077C297.684 54.4542 303.346 56.3566 305.234 59.2101C308.065 63.9659 310.896 67.7705 314.671 71.5752C317.502 74.4287 317.502 77.2822 313.727 79.1845C309.952 81.0869 306.177 82.9892 303.346 84.8915C299.571 86.7938 295.796 88.6962 293.909 92.5009C290.134 98.2079 283.528 100.11 278.809 104.866C277.866 105.817 276.922 105.817 275.978 104.866C270.316 103.915 265.597 97.2567 265.597 91.5497Z" fill="#F4E23E" fill-opacity="0.94"/>
<path d="M101.73 72.1651C107.393 81.6768 105.505 91.1885 97.9554 96.8955C97.0117 97.8466 96.068 97.8466 94.1805 96.8955C86.6308 93.0908 78.1372 89.2861 70.5875 83.5791C66.8126 80.7256 61.1502 80.7256 56.4316 78.8233C54.5442 77.8721 51.713 77.8721 49.8256 76.921C45.1069 75.0186 44.1632 72.1651 46.9944 67.4093C49.8256 62.6535 52.6567 57.8976 53.6005 52.1906C54.5442 48.386 60.2065 45.5325 63.9814 47.4348C76.2498 53.1418 89.4619 58.8488 99.8429 69.3116C99.8429 70.2628 100.787 71.214 101.73 72.1651Z" fill="#F4E23E" fill-opacity="0.94"/>
<path d="M272.521 262.832C271.577 266.637 273.464 269.49 275.352 273.295C281.014 283.758 290.451 291.367 298.945 298.977C301.776 301.83 307.438 300.879 309.326 297.074C312.157 292.318 315.932 288.514 318.763 285.66C321.594 282.807 321.594 279.953 317.819 278.051C314.044 276.149 311.213 273.295 307.438 271.393C303.663 269.49 300.832 266.637 298.001 262.832C294.226 257.125 288.564 254.272 283.845 249.516C282.902 248.565 281.958 248.565 281.014 248.565C277.239 250.467 272.521 257.125 272.521 262.832Z" fill="#F4E23E" fill-opacity="0.94"/>
<path d="M69.4361 130.193C72.2761 132.461 74.4061 134.162 76.7907 137.006C81.1042 143.272 78.6795 150.742 71.6867 150.802C63.0729 151.448 53.4947 150.384 44.3183 145.879C38.4373 143.064 34.2845 145.392 28.7116 146.585C27.5462 146.595 26.6353 147.749 25.0143 148.336C21.5179 148.366 18.7315 148.963 15.3824 144.407C12.0334 139.852 11.7253 135.844 11.8726 131.259C11.819 128.394 12.2209 124.953 11.0019 122.098C10.2383 118.667 11.6047 116.936 15.1011 116.906C29.3413 117.931 44.2915 119.522 58.8397 124.554C63.7562 125.658 66.5961 127.926 69.4361 130.193Z" fill="#F4E23E" fill-opacity="0.94"/>
<path d="M73.0643 198.116C83.5326 201.591 88.2881 210.029 86.2854 219.311C86.1897 220.651 85.4756 221.272 83.429 221.793C75.2427 223.878 66.3424 226.583 56.9194 227.229C52.2079 227.551 47.9233 231.274 43.116 232.937C41.0694 233.458 38.9271 235.319 36.8806 235.841C32.0733 237.503 29.5041 235.965 28.5546 230.505C27.6051 225.045 26.6556 219.585 23.6595 214.646C21.9001 211.146 24.3296 205.264 28.4227 204.222C41.4163 200.474 55.1239 196.106 69.781 197.198C70.3994 197.918 71.7318 198.017 73.0643 198.116Z" fill="#F4E23E" fill-opacity="0.94"/>
<path d="M301.535 224.592C292.193 220.149 290.601 211.911 296.232 203.743C296.847 202.54 297.816 202.065 300.106 201.845C309.267 200.966 319.396 199.613 329.263 200.191C334.196 200.48 340.008 197.634 345.557 196.72C347.847 196.501 350.753 195.077 353.043 194.858C358.592 193.944 360.619 195.656 359.478 200.724C358.337 205.791 357.196 210.859 358.346 215.707C358.789 219.097 354.036 224.129 349.456 224.569C334.746 226.362 319.068 228.63 304.531 225.83C304.178 225.101 302.856 224.846 301.535 224.592Z" fill="#F4E23E" fill-opacity="0.94"/>
<path d="M289.663 152.9C290.552 149.201 292.136 146.651 295.776 143.621C304.419 135.937 315.37 130.77 326.099 126.527C329.517 124.423 334.577 127.609 335.745 130.829C337.386 136.12 339.249 140.488 342.029 145.078C344.115 148.52 343.448 151.294 339.334 152.251C335.221 153.208 331.107 154.166 327.911 155.346C323.797 156.303 319.684 157.26 316.96 160.513C311.958 165.168 305.092 165.457 299.395 168.965C298.255 169.666 297.338 169.443 296.643 168.296C291.361 166.033 288.33 158.447 289.663 152.9Z" fill="#F4E23E" fill-opacity="0.94"/>
</svg>
