<svg width="650" height="269" viewBox="0 0 650 269" fill="none" xmlns="http://www.w3.org/2000/svg">
<path d="M425.413 93.1335H458.641V262.215H425.413V93.1335Z" fill="#333333"/>
<path d="M434.576 84.5615H449.68V94.0978H434.576V84.5615Z" fill="#333333"/>
<path d="M437.697 78.9899H446.457V84.4545H437.697V78.9899Z" fill="#333333"/>
<path d="M442.631 92.8121L442.027 0.663574L441.523 92.8121H442.631Z" fill="#333333"/>
<path opacity="0.09" d="M440.316 105.884H443.84V109.634H440.316V105.884Z" fill="white"/>
<path opacity="0.33" d="M440.316 117.778H443.84V121.528H440.316V117.778Z" fill="white"/>
<path opacity="0.37" d="M440.316 129.779H443.84V133.529H440.316V129.779Z" fill="white"/>
<path opacity="0.14" d="M440.316 141.672H443.84V145.422H440.316V141.672Z" fill="white"/>
<path opacity="0.3" d="M440.316 153.673H443.84V157.423H440.316V153.673Z" fill="white"/>
<path opacity="0.16" d="M440.316 165.567H443.84V169.317H440.316V165.567Z" fill="white"/>
<path opacity="0.34" d="M440.316 177.567H443.84V181.318H440.316V177.567Z" fill="white"/>
<path opacity="0.29" d="M440.316 189.461H443.84V193.211H440.316V189.461Z" fill="white"/>
<path opacity="0.12" d="M440.316 201.462H443.84V205.212H440.316V201.462Z" fill="white"/>
<path d="M538.187 100.955H623.975V131.386H538.187V100.955Z" fill="#E6E6E6"/>
<path d="M590.244 100.955H623.975V131.386H590.244V100.955Z" fill="#B3B3B3"/>
<path d="M590.243 131.386H657V278.93H590.243V131.386Z" fill="#333333"/>
<path d="M486.129 131.386H590.242V278.93H486.129V131.386Z" fill="#4D4D4D"/>
<path d="M635.855 137.494H641.393V143.387H635.855V137.494Z" fill="white"/>
<path d="M628.403 137.494H633.941V143.387H628.403V137.494Z" fill="white"/>
<path d="M620.853 137.494H626.391V143.387H620.853V137.494Z" fill="white"/>
<path d="M613.3 137.494H618.838V143.387H613.3V137.494Z" fill="white"/>
<path d="M605.849 137.494H611.387V143.387H605.849V137.494Z" fill="white"/>
<path d="M572.118 137.494H577.656V143.387H572.118V137.494Z" fill="white"/>
<path d="M564.769 137.494H570.307V143.387H564.769V137.494Z" fill="white"/>
<path d="M557.417 137.494H562.955V143.387H557.417V137.494Z" fill="white"/>
<path d="M550.068 137.494H555.605V143.387H550.068V137.494Z" fill="white"/>
<path d="M542.718 137.494H548.256V143.387H542.718V137.494Z" fill="white"/>
<path d="M535.366 137.494H540.904V143.387H535.366V137.494Z" fill="white"/>
<path d="M528.116 137.494H533.654V143.387H528.116V137.494Z" fill="white"/>
<path d="M520.767 137.494H526.305V143.387H520.767V137.494Z" fill="white"/>
<path d="M513.417 137.494H518.955V143.387H513.417V137.494Z" fill="white"/>
<path d="M506.066 137.494H511.604V143.387H506.066V137.494Z" fill="white"/>
<path d="M572.118 145.208H577.656V151.101H572.118V145.208Z" fill="white"/>
<path d="M564.769 145.208H570.307V151.101H564.769V145.208Z" fill="white"/>
<path d="M557.417 145.208H562.955V151.101H557.417V145.208Z" fill="white"/>
<path d="M550.068 145.208H555.605V151.101H550.068V145.208Z" fill="white"/>
<path d="M542.718 145.208H548.256V151.101H542.718V145.208Z" fill="white"/>
<path d="M535.366 145.208H540.904V151.101H535.366V145.208Z" fill="white"/>
<path d="M528.116 145.208H533.654V151.101H528.116V145.208Z" fill="white"/>
<path d="M520.767 145.208H526.305V151.101H520.767V145.208Z" fill="white"/>
<path d="M513.417 145.208H518.955V151.101H513.417V145.208Z" fill="white"/>
<path d="M506.066 145.208H511.604V151.101H506.066V145.208Z" fill="white"/>
<path d="M572.118 152.923H577.656V158.816H572.118V152.923Z" fill="white"/>
<path d="M564.769 152.923H570.307V158.816H564.769V152.923Z" fill="white"/>
<path d="M557.417 152.923H562.955V158.816H557.417V152.923Z" fill="white"/>
<path d="M550.068 152.923H555.605V158.816H550.068V152.923Z" fill="white"/>
<path d="M542.718 152.923H548.256V158.816H542.718V152.923Z" fill="white"/>
<path d="M535.366 152.923H540.904V158.816H535.366V152.923Z" fill="white"/>
<path d="M528.116 152.923H533.654V158.816H528.116V152.923Z" fill="white"/>
<path d="M520.767 152.923H526.305V158.816H520.767V152.923Z" fill="white"/>
<path d="M513.417 152.923H518.955V158.816H513.417V152.923Z" fill="white"/>
<path d="M506.066 152.923H511.604V158.816H506.066V152.923Z" fill="white"/>
<path d="M572.118 160.531H577.656V166.424H572.118V160.531Z" fill="white"/>
<path d="M564.769 160.531H570.307V166.424H564.769V160.531Z" fill="white"/>
<path d="M557.417 160.531H562.955V166.424H557.417V160.531Z" fill="white"/>
<path d="M550.068 160.531H555.605V166.424H550.068V160.531Z" fill="white"/>
<path d="M542.718 160.531H548.256V166.424H542.718V160.531Z" fill="white"/>
<path d="M535.366 160.531H540.904V166.424H535.366V160.531Z" fill="white"/>
<path d="M528.116 160.531H533.654V166.424H528.116V160.531Z" fill="white"/>
<path d="M520.767 160.531H526.305V166.424H520.767V160.531Z" fill="white"/>
<path d="M513.417 160.531H518.955V166.424H513.417V160.531Z" fill="white"/>
<path d="M506.066 160.531H511.604V166.424H506.066V160.531Z" fill="white"/>
<path d="M572.118 168.245H577.656V174.139H572.118V168.245Z" fill="white"/>
<path d="M564.769 168.245H570.307V174.139H564.769V168.245Z" fill="white"/>
<path d="M557.417 168.245H562.955V174.139H557.417V168.245Z" fill="white"/>
<path d="M550.068 168.245H555.605V174.139H550.068V168.245Z" fill="white"/>
<path d="M542.718 168.245H548.256V174.139H542.718V168.245Z" fill="white"/>
<path d="M535.366 168.245H540.904V174.139H535.366V168.245Z" fill="white"/>
<path d="M528.116 168.245H533.654V174.139H528.116V168.245Z" fill="white"/>
<path d="M520.767 168.245H526.305V174.139H520.767V168.245Z" fill="white"/>
<path d="M513.417 168.245H518.955V174.139H513.417V168.245Z" fill="white"/>
<path d="M506.066 168.245H511.604V174.139H506.066V168.245Z" fill="white"/>
<path d="M572.118 175.96H577.656V181.853H572.118V175.96Z" fill="white"/>
<path d="M564.769 175.96H570.307V181.853H564.769V175.96Z" fill="white"/>
<path d="M557.417 175.96H562.955V181.853H557.417V175.96Z" fill="white"/>
<path d="M550.068 175.96H555.605V181.853H550.068V175.96Z" fill="white"/>
<path d="M542.718 175.96H548.256V181.853H542.718V175.96Z" fill="white"/>
<path d="M535.366 175.96H540.904V181.853H535.366V175.96Z" fill="white"/>
<path d="M528.116 175.96H533.654V181.853H528.116V175.96Z" fill="white"/>
<path d="M520.767 175.96H526.305V181.853H520.767V175.96Z" fill="white"/>
<path d="M513.417 175.96H518.955V181.853H513.417V175.96Z" fill="white"/>
<path d="M506.066 175.96H511.604V181.853H506.066V175.96Z" fill="white"/>
<path d="M572.118 183.675H577.656V189.568H572.118V183.675Z" fill="white"/>
<path d="M564.769 183.675H570.307V189.568H564.769V183.675Z" fill="white"/>
<path d="M557.417 183.675H562.955V189.568H557.417V183.675Z" fill="white"/>
<path d="M550.068 183.675H555.605V189.568H550.068V183.675Z" fill="white"/>
<path d="M542.718 183.675H548.256V189.568H542.718V183.675Z" fill="white"/>
<path d="M535.366 183.675H540.904V189.568H535.366V183.675Z" fill="white"/>
<path d="M528.116 183.675H533.654V189.568H528.116V183.675Z" fill="white"/>
<path d="M520.767 183.675H526.305V189.568H520.767V183.675Z" fill="white"/>
<path d="M513.417 183.675H518.955V189.568H513.417V183.675Z" fill="white"/>
<path d="M506.066 183.675H511.604V189.568H506.066V183.675Z" fill="white"/>
<path d="M572.118 191.39H577.656V197.283H572.118V191.39Z" fill="white"/>
<path d="M564.769 191.39H570.307V197.283H564.769V191.39Z" fill="white"/>
<path d="M557.417 191.39H562.955V197.283H557.417V191.39Z" fill="white"/>
<path d="M550.068 191.39H555.605V197.283H550.068V191.39Z" fill="white"/>
<path d="M542.718 191.39H548.256V197.283H542.718V191.39Z" fill="white"/>
<path d="M535.366 191.39H540.904V197.283H535.366V191.39Z" fill="white"/>
<path d="M528.116 191.39H533.654V197.283H528.116V191.39Z" fill="white"/>
<path d="M520.767 191.39H526.305V197.283H520.767V191.39Z" fill="white"/>
<path d="M513.417 191.39H518.955V197.283H513.417V191.39Z" fill="white"/>
<path d="M506.066 191.39H511.604V197.283H506.066V191.39Z" fill="white"/>
<path d="M572.118 198.997H577.656V204.89H572.118V198.997Z" fill="white"/>
<path d="M564.769 198.997H570.307V204.89H564.769V198.997Z" fill="white"/>
<path d="M557.417 198.997H562.955V204.89H557.417V198.997Z" fill="white"/>
<path d="M550.068 198.997H555.605V204.89H550.068V198.997Z" fill="white"/>
<path d="M542.718 198.997H548.256V204.89H542.718V198.997Z" fill="white"/>
<path d="M535.366 198.997H540.904V204.89H535.366V198.997Z" fill="white"/>
<path d="M528.116 198.997H533.654V204.89H528.116V198.997Z" fill="white"/>
<path d="M520.767 198.997H526.305V204.89H520.767V198.997Z" fill="white"/>
<path d="M513.417 198.997H518.955V204.89H513.417V198.997Z" fill="white"/>
<path d="M506.066 198.997H511.604V204.89H506.066V198.997Z" fill="white"/>
<path d="M572.118 206.712H577.656V212.605H572.118V206.712Z" fill="white"/>
<path d="M564.769 206.712H570.307V212.605H564.769V206.712Z" fill="white"/>
<path d="M557.417 206.712H562.955V212.605H557.417V206.712Z" fill="white"/>
<path d="M550.068 206.712H555.605V212.605H550.068V206.712Z" fill="white"/>
<path d="M542.718 206.712H548.256V212.605H542.718V206.712Z" fill="white"/>
<path d="M535.366 206.712H540.904V212.605H535.366V206.712Z" fill="white"/>
<path d="M528.116 206.712H533.654V212.605H528.116V206.712Z" fill="white"/>
<path d="M520.767 206.712H526.305V212.605H520.767V206.712Z" fill="white"/>
<path d="M513.417 206.712H518.955V212.605H513.417V206.712Z" fill="white"/>
<path d="M506.066 206.712H511.604V212.605H506.066V206.712Z" fill="white"/>
<path d="M572.118 214.427H577.656V220.32H572.118V214.427Z" fill="white"/>
<path d="M564.769 214.427H570.307V220.32H564.769V214.427Z" fill="white"/>
<path d="M557.417 214.427H562.955V220.32H557.417V214.427Z" fill="white"/>
<path d="M550.068 214.427H555.605V220.32H550.068V214.427Z" fill="white"/>
<path d="M542.718 214.427H548.256V220.32H542.718V214.427Z" fill="white"/>
<path d="M535.366 214.427H540.904V220.32H535.366V214.427Z" fill="white"/>
<path d="M528.116 214.427H533.654V220.32H528.116V214.427Z" fill="white"/>
<path d="M520.767 214.427H526.305V220.32H520.767V214.427Z" fill="white"/>
<path d="M513.417 214.427H518.955V220.32H513.417V214.427Z" fill="white"/>
<path d="M506.066 214.427H511.604V220.32H506.066V214.427Z" fill="white"/>
<path d="M572.118 222.141H577.656V228.035H572.118V222.141Z" fill="white"/>
<path d="M564.769 222.141H570.307V228.035H564.769V222.141Z" fill="white"/>
<path d="M557.417 222.141H562.955V228.035H557.417V222.141Z" fill="white"/>
<path d="M550.068 222.141H555.605V228.035H550.068V222.141Z" fill="white"/>
<path d="M542.718 222.141H548.256V228.035H542.718V222.141Z" fill="white"/>
<path d="M535.366 222.141H540.904V228.035H535.366V222.141Z" fill="white"/>
<path d="M528.116 222.141H533.654V228.035H528.116V222.141Z" fill="white"/>
<path d="M520.767 222.141H526.305V228.035H520.767V222.141Z" fill="white"/>
<path d="M513.417 222.141H518.955V228.035H513.417V222.141Z" fill="white"/>
<path d="M506.066 222.141H511.604V228.035H506.066V222.141Z" fill="white"/>
<path d="M572.118 229.856H577.656V235.749H572.118V229.856Z" fill="white"/>
<path d="M564.769 229.856H570.307V235.749H564.769V229.856Z" fill="white"/>
<path d="M557.417 229.856H562.955V235.749H557.417V229.856Z" fill="white"/>
<path d="M550.068 229.856H555.605V235.749H550.068V229.856Z" fill="white"/>
<path d="M542.718 229.856H548.256V235.749H542.718V229.856Z" fill="white"/>
<path d="M535.366 229.856H540.904V235.749H535.366V229.856Z" fill="white"/>
<path d="M528.116 229.856H533.654V235.749H528.116V229.856Z" fill="white"/>
<path d="M520.767 229.856H526.305V235.749H520.767V229.856Z" fill="white"/>
<path d="M513.417 229.856H518.955V235.749H513.417V229.856Z" fill="white"/>
<path d="M506.066 229.856H511.604V235.749H506.066V229.856Z" fill="white"/>
<path d="M572.118 237.464H577.656V243.357H572.118V237.464Z" fill="white"/>
<path d="M564.769 237.464H570.307V243.357H564.769V237.464Z" fill="white"/>
<path d="M557.417 237.464H562.955V243.357H557.417V237.464Z" fill="white"/>
<path d="M550.068 237.464H555.605V243.357H550.068V237.464Z" fill="white"/>
<path d="M542.718 237.464H548.256V243.357H542.718V237.464Z" fill="white"/>
<path d="M535.366 237.464H540.904V243.357H535.366V237.464Z" fill="white"/>
<path d="M528.116 237.464H533.654V243.357H528.116V237.464Z" fill="white"/>
<path d="M520.767 237.464H526.305V243.357H520.767V237.464Z" fill="white"/>
<path d="M513.417 237.464H518.955V243.357H513.417V237.464Z" fill="white"/>
<path d="M506.066 237.464H511.604V243.357H506.066V237.464Z" fill="white"/>
<path d="M498.716 237.464H504.254V243.357H498.716V237.464Z" fill="white"/>
<path d="M572.118 245.179H577.656V251.072H572.118V245.179Z" fill="white"/>
<path d="M564.769 245.179H570.307V251.072H564.769V245.179Z" fill="white"/>
<path d="M557.417 245.179H562.955V251.072H557.417V245.179Z" fill="white"/>
<path d="M550.068 245.179H555.605V251.072H550.068V245.179Z" fill="white"/>
<path d="M542.718 245.179H548.256V251.072H542.718V245.179Z" fill="white"/>
<path d="M535.366 245.179H540.904V251.072H535.366V245.179Z" fill="white"/>
<path d="M528.116 245.179H533.654V251.072H528.116V245.179Z" fill="white"/>
<path d="M520.767 245.179H526.305V251.072H520.767V245.179Z" fill="white"/>
<path d="M513.417 245.179H518.955V251.072H513.417V245.179Z" fill="white"/>
<path d="M506.066 245.179H511.604V251.072H506.066V245.179Z" fill="white"/>
<path d="M498.716 245.179H504.254V251.072H498.716V245.179Z" fill="white"/>
<path d="M572.118 252.893H577.656V258.787H572.118V252.893Z" fill="white"/>
<path d="M564.769 252.893H570.307V258.787H564.769V252.893Z" fill="white"/>
<path d="M557.417 252.893H562.955V258.787H557.417V252.893Z" fill="white"/>
<path d="M550.068 252.893H555.605V258.787H550.068V252.893Z" fill="white"/>
<path d="M542.718 252.893H548.256V258.787H542.718V252.893Z" fill="white"/>
<path d="M535.366 252.893H540.904V258.787H535.366V252.893Z" fill="white"/>
<path d="M528.116 252.893H533.654V258.787H528.116V252.893Z" fill="white"/>
<path d="M520.767 252.893H526.305V258.787H520.767V252.893Z" fill="white"/>
<path d="M513.417 252.893H518.955V258.787H513.417V252.893Z" fill="white"/>
<path d="M506.066 252.893H511.604V258.787H506.066V252.893Z" fill="white"/>
<path d="M498.716 252.893H504.254V258.787H498.716V252.893Z" fill="white"/>
<path d="M572.118 260.608H577.656V266.501H572.118V260.608Z" fill="white"/>
<path d="M564.769 260.608H570.307V266.501H564.769V260.608Z" fill="white"/>
<path d="M557.417 260.608H562.955V266.501H557.417V260.608Z" fill="white"/>
<path d="M550.068 260.608H555.605V266.501H550.068V260.608Z" fill="white"/>
<path d="M542.718 260.608H548.256V266.501H542.718V260.608Z" fill="white"/>
<path d="M535.366 260.608H540.904V266.501H535.366V260.608Z" fill="white"/>
<path d="M528.116 260.608H533.654V266.501H528.116V260.608Z" fill="white"/>
<path d="M520.767 260.608H526.305V266.501H520.767V260.608Z" fill="white"/>
<path d="M513.417 260.608H518.955V266.501H513.417V260.608Z" fill="white"/>
<path d="M506.066 260.608H511.604V266.501H506.066V260.608Z" fill="white"/>
<path d="M498.716 260.608H504.254V266.501H498.716V260.608Z" fill="white"/>
<path d="M572.118 268.323H577.656V274.216H572.118V268.323Z" fill="white"/>
<path d="M564.769 268.323H570.307V274.216H564.769V268.323Z" fill="white"/>
<path d="M557.417 268.323H562.955V274.216H557.417V268.323Z" fill="white"/>
<path d="M550.068 268.323H555.605V274.216H550.068V268.323Z" fill="white"/>
<path d="M542.718 268.323H548.256V274.216H542.718V268.323Z" fill="white"/>
<path d="M535.366 268.323H540.904V274.216H535.366V268.323Z" fill="white"/>
<path d="M528.116 268.323H533.654V274.216H528.116V268.323Z" fill="white"/>
<path d="M520.767 268.323H526.305V274.216H520.767V268.323Z" fill="white"/>
<path d="M513.417 268.323H518.955V274.216H513.417V268.323Z" fill="white"/>
<path d="M506.066 268.323H511.604V274.216H506.066V268.323Z" fill="white"/>
<path d="M498.716 268.323H504.254V274.216H498.716V268.323Z" fill="white"/>
<path d="M635.855 145.208H641.393V151.101H635.855V145.208Z" fill="white"/>
<path d="M628.403 145.208H633.941V151.101H628.403V145.208Z" fill="white"/>
<path d="M620.853 145.208H626.391V151.101H620.853V145.208Z" fill="white"/>
<path d="M613.3 145.208H618.838V151.101H613.3V145.208Z" fill="white"/>
<path d="M605.849 145.208H611.387V151.101H605.849V145.208Z" fill="white"/>
<path d="M635.855 152.923H641.393V158.816H635.855V152.923Z" fill="white"/>
<path d="M628.403 152.923H633.941V158.816H628.403V152.923Z" fill="white"/>
<path d="M620.853 152.923H626.391V158.816H620.853V152.923Z" fill="white"/>
<path d="M613.3 152.923H618.838V158.816H613.3V152.923Z" fill="white"/>
<path d="M605.849 152.923H611.387V158.816H605.849V152.923Z" fill="white"/>
<path d="M635.855 160.531H641.393V166.424H635.855V160.531Z" fill="white"/>
<path d="M628.403 160.531H633.941V166.424H628.403V160.531Z" fill="white"/>
<path d="M620.853 160.531H626.391V166.424H620.853V160.531Z" fill="white"/>
<path d="M613.3 160.531H618.838V166.424H613.3V160.531Z" fill="white"/>
<path d="M605.849 160.531H611.387V166.424H605.849V160.531Z" fill="white"/>
<path d="M635.855 168.245H641.393V174.139H635.855V168.245Z" fill="white"/>
<path d="M628.403 168.245H633.941V174.139H628.403V168.245Z" fill="white"/>
<path d="M620.853 168.245H626.391V174.139H620.853V168.245Z" fill="white"/>
<path d="M613.3 168.245H618.838V174.139H613.3V168.245Z" fill="white"/>
<path d="M605.849 168.245H611.387V174.139H605.849V168.245Z" fill="white"/>
<path d="M635.855 175.96H641.393V181.853H635.855V175.96Z" fill="white"/>
<path d="M628.403 175.96H633.941V181.853H628.403V175.96Z" fill="white"/>
<path d="M620.853 175.96H626.391V181.853H620.853V175.96Z" fill="white"/>
<path d="M613.3 175.96H618.838V181.853H613.3V175.96Z" fill="white"/>
<path d="M605.849 175.96H611.387V181.853H605.849V175.96Z" fill="white"/>
<path d="M635.855 183.675H641.393V189.568H635.855V183.675Z" fill="white"/>
<path d="M628.403 183.675H633.941V189.568H628.403V183.675Z" fill="white"/>
<path d="M620.853 183.675H626.391V189.568H620.853V183.675Z" fill="white"/>
<path d="M613.3 183.675H618.838V189.568H613.3V183.675Z" fill="white"/>
<path d="M605.849 183.675H611.387V189.568H605.849V183.675Z" fill="white"/>
<path d="M635.855 191.39H641.393V197.283H635.855V191.39Z" fill="white"/>
<path d="M628.403 191.39H633.941V197.283H628.403V191.39Z" fill="white"/>
<path d="M620.853 191.39H626.391V197.283H620.853V191.39Z" fill="white"/>
<path d="M613.3 191.39H618.838V197.283H613.3V191.39Z" fill="white"/>
<path d="M605.849 191.39H611.387V197.283H605.849V191.39Z" fill="white"/>
<path d="M635.855 198.997H641.393V204.89H635.855V198.997Z" fill="white"/>
<path d="M628.403 198.997H633.941V204.89H628.403V198.997Z" fill="white"/>
<path d="M620.853 198.997H626.391V204.89H620.853V198.997Z" fill="white"/>
<path d="M613.3 198.997H618.838V204.89H613.3V198.997Z" fill="white"/>
<path d="M605.849 198.997H611.387V204.89H605.849V198.997Z" fill="white"/>
<path d="M635.855 206.712H641.393V212.605H635.855V206.712Z" fill="white"/>
<path d="M628.403 206.712H633.941V212.605H628.403V206.712Z" fill="white"/>
<path d="M620.853 206.712H626.391V212.605H620.853V206.712Z" fill="white"/>
<path d="M613.3 206.712H618.838V212.605H613.3V206.712Z" fill="white"/>
<path d="M605.849 206.712H611.387V212.605H605.849V206.712Z" fill="white"/>
<path d="M635.855 214.427H641.393V220.32H635.855V214.427Z" fill="white"/>
<path d="M628.403 214.427H633.941V220.32H628.403V214.427Z" fill="white"/>
<path d="M620.853 214.427H626.391V220.32H620.853V214.427Z" fill="white"/>
<path d="M613.3 214.427H618.838V220.32H613.3V214.427Z" fill="white"/>
<path d="M605.849 214.427H611.387V220.32H605.849V214.427Z" fill="white"/>
<path d="M635.855 222.141H641.393V228.035H635.855V222.141Z" fill="white"/>
<path d="M628.403 222.141H633.941V228.035H628.403V222.141Z" fill="white"/>
<path d="M620.853 222.141H626.391V228.035H620.853V222.141Z" fill="white"/>
<path d="M613.3 222.141H618.838V228.035H613.3V222.141Z" fill="white"/>
<path d="M605.849 222.141H611.387V228.035H605.849V222.141Z" fill="white"/>
<path d="M635.855 229.856H641.393V235.749H635.855V229.856Z" fill="white"/>
<path d="M628.403 229.856H633.941V235.749H628.403V229.856Z" fill="white"/>
<path d="M620.853 229.856H626.391V235.749H620.853V229.856Z" fill="white"/>
<path d="M613.3 229.856H618.838V235.749H613.3V229.856Z" fill="white"/>
<path d="M605.849 229.856H611.387V235.749H605.849V229.856Z" fill="white"/>
<path d="M635.855 237.464H641.393V243.357H635.855V237.464Z" fill="white"/>
<path d="M628.403 237.464H633.941V243.357H628.403V237.464Z" fill="white"/>
<path d="M620.853 237.464H626.391V243.357H620.853V237.464Z" fill="white"/>
<path d="M613.3 237.464H618.838V243.357H613.3V237.464Z" fill="white"/>
<path d="M605.849 237.464H611.387V243.357H605.849V237.464Z" fill="white"/>
<path d="M635.855 245.179H641.393V251.072H635.855V245.179Z" fill="white"/>
<path d="M628.403 245.179H633.941V251.072H628.403V245.179Z" fill="white"/>
<path d="M620.853 245.179H626.391V251.072H620.853V245.179Z" fill="white"/>
<path d="M613.3 245.179H618.838V251.072H613.3V245.179Z" fill="white"/>
<path d="M605.849 245.179H611.387V251.072H605.849V245.179Z" fill="white"/>
<path d="M635.855 252.893H641.393V258.787H635.855V252.893Z" fill="white"/>
<path d="M628.403 252.893H633.941V258.787H628.403V252.893Z" fill="white"/>
<path d="M620.853 252.893H626.391V258.787H620.853V252.893Z" fill="white"/>
<path d="M613.3 252.893H618.838V258.787H613.3V252.893Z" fill="white"/>
<path d="M605.849 252.893H611.387V258.787H605.849V252.893Z" fill="white"/>
<path d="M635.855 260.608H641.393V266.501H635.855V260.608Z" fill="white"/>
<path d="M628.403 260.608H633.941V266.501H628.403V260.608Z" fill="white"/>
<path d="M620.853 260.608H626.391V266.501H620.853V260.608Z" fill="white"/>
<path d="M613.3 260.608H618.838V266.501H613.3V260.608Z" fill="white"/>
<path d="M605.849 260.608H611.387V266.501H605.849V260.608Z" fill="white"/>
<path d="M635.855 268.323H641.393V274.216H635.855V268.323Z" fill="white"/>
<path d="M628.403 268.323H633.941V274.216H628.403V268.323Z" fill="white"/>
<path d="M620.853 268.323H626.391V274.216H620.853V268.323Z" fill="white"/>
<path d="M613.3 268.323H618.838V274.216H613.3V268.323Z" fill="white"/>
<path d="M605.849 268.323H611.387V274.216H605.849V268.323Z" fill="white"/>
<path d="M598.299 116.385H649.65V131.386H598.299V116.385Z" fill="#333333"/>
<path d="M501.536 116.385H574.838V131.386H501.536V116.385Z" fill="#4D4D4D"/>
<path d="M560.942 89.3833H590.242V100.956H560.942V89.3833Z" fill="#E6E6E6"/>
<path d="M575.541 77.811H590.242V89.3832H575.541V77.811Z" fill="#4D4D4D"/>
<path d="M590.243 77.811H604.943V89.3832H590.243V77.811Z" fill="#333333"/>
<path d="M590.243 89.3833H612.697V100.956H590.243V89.3833Z" fill="#B3B3B3"/>
<path d="M591.25 77.8111L590.243 51.1309L589.438 77.8111H591.25Z" fill="#333333"/>
<path opacity="0.19" d="M498.716 137.494H504.254V143.387H498.716V137.494Z" fill="white"/>
<path opacity="0.24" d="M498.716 145.208H504.254V151.101H498.716V145.208Z" fill="white"/>
<path opacity="0.29" d="M498.716 152.923H504.254V158.816H498.716V152.923Z" fill="white"/>
<path opacity="0.39" d="M498.716 160.531H504.254V166.424H498.716V160.531Z" fill="white"/>
<path opacity="0.21" d="M498.716 168.245H504.254V174.139H498.716V168.245Z" fill="white"/>
<path opacity="0.48" d="M498.716 175.96H504.254V181.853H498.716V175.96Z" fill="white"/>
<path opacity="0.32" d="M498.716 183.675H504.254V189.568H498.716V183.675Z" fill="white"/>
<path opacity="0.13" d="M498.716 191.39H504.254V197.283H498.716V191.39Z" fill="white"/>
<path opacity="0.19" d="M498.716 198.997H504.254V204.89H498.716V198.997Z" fill="white"/>
<path opacity="0.03" d="M498.716 206.712H504.254V212.605H498.716V206.712Z" fill="white"/>
<path opacity="0.36" d="M498.716 214.427H504.254V220.32H498.716V214.427Z" fill="white"/>
<path opacity="0.25" d="M498.716 222.141H504.254V228.035H498.716V222.141Z" fill="white"/>
<path d="M498.716 229.856H504.254V235.749H498.716V229.856Z" fill="white"/>
<path d="M275.085 198.354H308.312V281.181H275.085V198.354Z" fill="#333333"/>
<path d="M293.209 194.176H308.312V198.89H293.209V194.176Z" fill="#333333"/>
<path d="M299.552 191.497H308.312V194.175H299.552V191.497Z" fill="#333333"/>
<path opacity="0.06" d="M288.981 204.14H294.418V208.426H288.981V204.14Z" fill="white"/>
<path opacity="0.12" d="M288.981 214.748H294.418V219.034H288.981V214.748Z" fill="white"/>
<path opacity="0.19" d="M288.981 235.964H294.418V240.25H288.981V235.964Z" fill="white"/>
<path opacity="0.14" d="M288.981 257.179H294.418V261.465H288.981V257.179Z" fill="white"/>
<path opacity="0.1" d="M288.981 267.787H294.418V272.073H288.981V267.787Z" fill="white"/>
<path d="M358.455 207.355H403.967V251.715H358.455V207.355Z" fill="#333333"/>
<path d="M365.604 203.39H396.717V222.463H365.604V203.39Z" fill="#333333"/>
<path d="M355.133 235.321H400.645V279.681H355.133V235.321Z" fill="#333333"/>
<path d="M362.383 231.356H393.496V250.429H362.383V231.356Z" fill="#333333"/>
<path d="M294.518 229.427H340.029V280.538H294.518V229.427Z" fill="#333333"/>
<path d="M301.666 224.927H332.779V247H301.666V224.927Z" fill="#333333"/>
<path d="M142.174 244.964H187.686V294.36H142.174V244.964Z" fill="#333333"/>
<path d="M149.322 240.571H180.436V261.894H149.322V240.571Z" fill="#333333"/>
<path d="M240.849 142.958H291.697V280.431H240.849V142.958Z" fill="#333333"/>
<path opacity="0.46" d="M276.896 149.173H289.18V151.637H276.896V149.173Z" fill="#E6E6E6"/>
<path opacity="0.34" d="M260.081 149.173H272.365V151.637H260.081V149.173Z" fill="#E6E6E6"/>
<path opacity="0.52" d="M243.366 149.173H255.65V151.637H243.366V149.173Z" fill="#E6E6E6"/>
<path opacity="0.54" d="M276.896 154.852H289.18V157.316H276.896V154.852Z" fill="#E6E6E6"/>
<path opacity="0.3" d="M260.081 154.852H272.365V157.316H260.081V154.852Z" fill="#E6E6E6"/>
<path opacity="0.06" d="M243.366 154.852H255.65V157.316H243.366V154.852Z" fill="#E6E6E6"/>
<path opacity="0.15" d="M276.896 160.531H289.18V162.995H276.896V160.531Z" fill="#E6E6E6"/>
<path opacity="0.42" d="M260.081 160.531H272.365V162.995H260.081V160.531Z" fill="#E6E6E6"/>
<path opacity="0.48" d="M243.366 160.531H255.65V162.995H243.366V160.531Z" fill="#E6E6E6"/>
<path opacity="0.18" d="M276.896 166.209H289.18V168.674H276.896V166.209Z" fill="#E6E6E6"/>
<path opacity="0.28" d="M243.366 166.209H255.65V168.674H243.366V166.209Z" fill="#E6E6E6"/>
<path opacity="0.29" d="M276.896 171.888H289.18V174.353H276.896V171.888Z" fill="#E6E6E6"/>
<path opacity="0.28" d="M260.081 171.888H272.365V174.353H260.081V171.888Z" fill="#E6E6E6"/>
<path opacity="0.56" d="M243.366 171.888H255.65V174.353H243.366V171.888Z" fill="#E6E6E6"/>
<path opacity="0.41" d="M276.896 177.567H289.18V180.032H276.896V177.567Z" fill="#E6E6E6"/>
<path opacity="0.16" d="M260.081 177.567H272.365V180.032H260.081V177.567Z" fill="#E6E6E6"/>
<path opacity="0.4" d="M243.366 177.567H255.65V180.032H243.366V177.567Z" fill="#E6E6E6"/>
<path opacity="0.1" d="M276.896 183.246H289.18V185.711H276.896V183.246Z" fill="#E6E6E6"/>
<path opacity="0.17" d="M260.081 183.246H272.365V185.711H260.081V183.246Z" fill="#E6E6E6"/>
<path opacity="0.08" d="M243.366 183.246H255.65V185.711H243.366V183.246Z" fill="#E6E6E6"/>
<path opacity="0.49" d="M276.896 188.925H289.18V191.39H276.896V188.925Z" fill="#E6E6E6"/>
<path opacity="0.58" d="M260.081 188.925H272.365V191.39H260.081V188.925Z" fill="#E6E6E6"/>
<path opacity="0.58" d="M243.366 188.925H255.65V191.39H243.366V188.925Z" fill="#E6E6E6"/>
<path opacity="0.26" d="M276.896 194.604H289.18V197.068H276.896V194.604Z" fill="#E6E6E6"/>
<path opacity="0.37" d="M260.081 194.604H272.365V197.068H260.081V194.604Z" fill="#E6E6E6"/>
<path opacity="0.34" d="M243.366 194.604H255.65V197.068H243.366V194.604Z" fill="#E6E6E6"/>
<path opacity="0.55" d="M276.896 200.283H289.18V202.747H276.896V200.283Z" fill="#E6E6E6"/>
<path opacity="0.12" d="M260.081 200.283H272.365V202.747H260.081V200.283Z" fill="#E6E6E6"/>
<path opacity="0.6" d="M243.366 200.283H255.65V202.747H243.366V200.283Z" fill="#E6E6E6"/>
<path opacity="0.02" d="M276.896 205.962H289.18V208.426H276.896V205.962Z" fill="#E6E6E6"/>
<path opacity="0.28" d="M260.081 205.962H272.365V208.426H260.081V205.962Z" fill="#E6E6E6"/>
<path opacity="0.21" d="M243.366 205.962H255.65V208.426H243.366V205.962Z" fill="#E6E6E6"/>
<path opacity="0.57" d="M276.896 211.641H289.18V214.105H276.896V211.641Z" fill="#E6E6E6"/>
<path opacity="0.38" d="M260.081 211.641H272.365V214.105H260.081V211.641Z" fill="#E6E6E6"/>
<path opacity="0.25" d="M243.366 211.641H255.65V214.105H243.366V211.641Z" fill="#E6E6E6"/>
<path opacity="0.15" d="M276.896 217.32H289.18V219.784H276.896V217.32Z" fill="#E6E6E6"/>
<path opacity="0.47" d="M260.081 217.32H272.365V219.784H260.081V217.32Z" fill="#E6E6E6"/>
<path opacity="0.3" d="M243.366 217.32H255.65V219.784H243.366V217.32Z" fill="#E6E6E6"/>
<path opacity="0.4" d="M276.896 222.999H289.18V225.463H276.896V222.999Z" fill="#E6E6E6"/>
<path opacity="0.39" d="M260.081 222.999H272.365V225.463H260.081V222.999Z" fill="#E6E6E6"/>
<path opacity="0.24" d="M243.366 222.999H255.65V225.463H243.366V222.999Z" fill="#E6E6E6"/>
<path opacity="0.46" d="M276.896 228.677H289.18V231.142H276.896V228.677Z" fill="#E6E6E6"/>
<path opacity="0.22" d="M260.081 228.677H272.365V231.142H260.081V228.677Z" fill="#E6E6E6"/>
<path opacity="0.11" d="M243.366 228.677H255.65V231.142H243.366V228.677Z" fill="#E6E6E6"/>
<path opacity="0.11" d="M260.081 234.357H272.365V236.821H260.081V234.357Z" fill="#E6E6E6"/>
<path opacity="0.02" d="M243.366 234.357H255.65V236.821H243.366V234.357Z" fill="#E6E6E6"/>
<path opacity="0.27" d="M276.896 240.035H289.18V242.5H276.896V240.035Z" fill="#E6E6E6"/>
<path opacity="0.21" d="M260.081 240.035H272.365V242.5H260.081V240.035Z" fill="#E6E6E6"/>
<path opacity="0.49" d="M243.366 240.035H255.65V242.5H243.366V240.035Z" fill="#E6E6E6"/>
<path opacity="0.6" d="M276.896 245.714H289.18V248.179H276.896V245.714Z" fill="#E6E6E6"/>
<path opacity="0.31" d="M260.081 245.714H272.365V248.179H260.081V245.714Z" fill="#E6E6E6"/>
<path opacity="0.22" d="M243.366 245.714H255.65V248.179H243.366V245.714Z" fill="#E6E6E6"/>
<path opacity="0.54" d="M276.896 251.393H289.18V253.858H276.896V251.393Z" fill="#E6E6E6"/>
<path opacity="0.6" d="M260.081 251.393H272.365V253.858H260.081V251.393Z" fill="#E6E6E6"/>
<path opacity="0.08" d="M243.366 251.393H255.65V253.858H243.366V251.393Z" fill="#E6E6E6"/>
<path opacity="0.55" d="M260.081 257.072H272.365V259.537H260.081V257.072Z" fill="#E6E6E6"/>
<path d="M243.366 257.072H255.65V259.537H243.366V257.072Z" fill="#E6E6E6"/>
<path opacity="0.6" d="M276.091 149.173H276.896V259.536H276.091V149.173Z" fill="#E6E6E6"/>
<path opacity="0.6" d="M255.65 149.173H256.455V259.536H255.65V149.173Z" fill="#E6E6E6"/>
<path d="M215.476 142.958H240.85V280.431H215.476V142.958Z" fill="#4D4D4D"/>
<path opacity="0.69" d="M219.201 149.173H238.332V151.637H219.201V149.173Z" fill="#E6E6E6"/>
<path opacity="0.79" d="M219.201 154.852H238.332V157.316H219.201V154.852Z" fill="#E6E6E6"/>
<path opacity="0.19" d="M219.201 160.531H238.332V162.995H219.201V160.531Z" fill="#E6E6E6"/>
<path opacity="0.88" d="M219.201 166.209H238.332V168.674H219.201V166.209Z" fill="#E6E6E6"/>
<path opacity="0.5" d="M219.201 171.888H238.332V174.353H219.201V171.888Z" fill="#E6E6E6"/>
<path opacity="0.25" d="M219.201 177.567H238.332V180.032H219.201V177.567Z" fill="#E6E6E6"/>
<path opacity="0.91" d="M219.201 183.246H238.332V185.711H219.201V183.246Z" fill="#E6E6E6"/>
<path opacity="0.02" d="M219.201 188.925H238.332V191.39H219.201V188.925Z" fill="#E6E6E6"/>
<path opacity="0.53" d="M219.201 194.604H238.332V197.068H219.201V194.604Z" fill="#E6E6E6"/>
<path opacity="0.65" d="M219.201 200.283H238.332V202.747H219.201V200.283Z" fill="#E6E6E6"/>
<path d="M219.201 205.962H238.332V208.426H219.201V205.962Z" fill="#E6E6E6"/>
<path opacity="0.8" d="M219.201 211.641H238.332V214.105H219.201V211.641Z" fill="#E6E6E6"/>
<path opacity="0.82" d="M219.201 217.32H238.332V219.784H219.201V217.32Z" fill="#E6E6E6"/>
<path opacity="0.75" d="M219.201 222.999H238.332V225.463H219.201V222.999Z" fill="#E6E6E6"/>
<path opacity="0.31" d="M219.201 228.677H238.332V231.142H219.201V228.677Z" fill="#E6E6E6"/>
<path opacity="0.22" d="M219.201 234.357H238.332V236.821H219.201V234.357Z" fill="#E6E6E6"/>
<path opacity="0.43" d="M219.201 240.035H238.332V242.5H219.201V240.035Z" fill="#E6E6E6"/>
<path opacity="0.68" d="M219.201 245.714H238.332V248.179H219.201V245.714Z" fill="#E6E6E6"/>
<path opacity="0.38" d="M219.201 251.393H238.332V253.858H219.201V251.393Z" fill="#E6E6E6"/>
<path opacity="0.84" d="M219.201 257.072H238.332V259.537H219.201V257.072Z" fill="#E6E6E6"/>
<path d="M282.736 135.672V142.958H249.811V135.672H282.736ZM275.386 140.601H278.809V138.136H275.386V140.601ZM270.049 140.601H273.372V138.136H270.049V140.601ZM264.612 140.601H267.935V138.136H264.612V140.601ZM259.175 140.601H262.598V138.136H259.175V140.601ZM253.738 140.601H257.161V138.136H253.738V140.601Z" fill="#333333"/>
<path d="M243.77 138.136H244.676V140.601H243.77V138.136Z" fill="#333333"/>
<path d="M249.811 135.672V142.958H234.304V135.672H249.811ZM243.769 140.601H247.092V138.136H243.769V140.601ZM236.62 140.601H239.943V138.136H236.62V140.601Z" fill="#4D4D4D"/>
<path d="M236.721 138.136H237.627V140.601H236.721V138.136Z" fill="#333333"/>
<path d="M234.103 289.753H302.572L234.103 235.964V289.753Z" fill="#333333"/>
<path d="M336.202 113.813H341.74V136.208H336.202V113.813Z" fill="#4D4D4D"/>
<path d="M341.639 113.813H347.277V136.208H341.639V113.813Z" fill="#333333"/>
<path d="M330.463 113.813H336.102V136.208H330.463V113.813Z" fill="#666666"/>
<path d="M314.152 151.53H329.859V279.252H314.152V151.53Z" fill="#666666"/>
<path d="M348.285 151.53H361.979V279.252H348.285V151.53Z" fill="#333333"/>
<path d="M329.858 151.53H348.385V279.252H329.858V151.53Z" fill="#4D4D4D"/>
<path opacity="0.6" d="M358.051 155.28H360.064V277.538H358.051V155.28Z" fill="#E6E6E6"/>
<path opacity="0.6" d="M354.123 155.28H356.137V277.538H354.123V155.28Z" fill="#E6E6E6"/>
<path opacity="0.6" d="M350.197 155.28H352.211V277.538H350.197V155.28Z" fill="#E6E6E6"/>
<path d="M326.736 155.28H328.75V277.538H326.736V155.28Z" fill="#E6E6E6"/>
<path d="M322.808 155.28H324.822V277.538H322.808V155.28Z" fill="#E6E6E6"/>
<path d="M315.156 155.28H317.17V277.538H315.156V155.28Z" fill="#E6E6E6"/>
<path d="M318.883 155.28H320.896V277.538H318.883V155.28Z" fill="#E6E6E6"/>
<path opacity="0.8" d="M346.07 277.538H332.175V155.28H346.07V277.538ZM343.855 157.423H334.39V275.395H343.855V157.423Z" fill="#E6E6E6"/>
<path opacity="0.8" d="M342.043 273.359H336.102V159.352H342.043V273.359ZM340.029 162.031H339.324H338.922H338.116V270.68H338.922H339.324H340.029V162.031Z" fill="#E6E6E6"/>
<path opacity="0.8" d="M338.922 162.031H339.324V270.68H338.922V162.031Z" fill="#E6E6E6"/>
<path d="M331.972 129.136H345.867V151.53H331.972V129.136Z" fill="#4D4D4D"/>
<path d="M331.972 129.136H345.867V151.53H331.972V129.136Z" fill="#4D4D4D"/>
<path d="M318.078 129.136H331.973V151.53H318.078V129.136Z" fill="#666666"/>
<path d="M345.868 129.136H359.764V151.53H345.868V129.136Z" fill="#333333"/>
<path d="M330.563 113.813H347.277L341.739 117.885H336.101L330.563 113.813Z" fill="#808080"/>
<path d="M31.8159 105.563H39.8711V130.743H31.8159V105.563Z" fill="#4D4D4D"/>
<path d="M39.9722 105.563H48.0273V130.743H39.9722V105.563Z" fill="#333333"/>
<path d="M23.7612 105.563H31.8164V130.743H23.7612V105.563Z" fill="#666666"/>
<path d="M-0.00195503 148.101H22.7539V292.003H-0.00195503V148.101Z" fill="#666666"/>
<path d="M49.5383 148.101H69.2734V292.003H49.5383V148.101Z" fill="#333333"/>
<path d="M22.7556 148.101H49.5391V292.003H22.7556V148.101Z" fill="#4D4D4D"/>
<path opacity="0.4" d="M63.6348 152.387H66.5547V290.074H63.6348V152.387Z" fill="#E6E6E6"/>
<path opacity="0.4" d="M57.8964 152.387H60.8164V290.074H57.8964V152.387Z" fill="#E6E6E6"/>
<path opacity="0.4" d="M52.1561 152.387H55.0762V290.074H52.1561V152.387Z" fill="#E6E6E6"/>
<path d="M18.2246 152.387H21.1445V290.074H18.2246V152.387Z" fill="#E6E6E6"/>
<path d="M12.4863 152.387H15.4062V290.074H12.4863V152.387Z" fill="#E6E6E6"/>
<path d="M1.5097 152.387H4.42969V290.074H1.5097V152.387Z" fill="#E6E6E6"/>
<path d="M6.84747 152.387H9.76758V290.074H6.84747V152.387Z" fill="#E6E6E6"/>
<path d="M46.1152 290.074H25.9774V152.387H46.1152V290.074ZM42.9939 154.744H29.3001V287.717H42.9939V154.744Z" fill="#E6E6E6"/>
<path d="M40.4766 285.467H31.8173V156.995H40.4766V285.467ZM37.4559 159.995H36.3483H35.8448H34.7373V282.467H35.8448H36.3483H37.4559V159.995Z" fill="#E6E6E6"/>
<path d="M35.845 159.995H36.3477V282.467H35.845V159.995Z" fill="#E6E6E6"/>
<path d="M25.7761 122.921H45.9141V148.101H25.7761V122.921Z" fill="#4D4D4D"/>
<path d="M25.7761 122.921H45.9141V148.101H25.7761V122.921Z" fill="#4D4D4D"/>
<path d="M5.63751 122.921H25.7754V148.101H5.63751V122.921Z" fill="#666666"/>
<path d="M45.8132 122.921H65.9512V148.101H45.8132V122.921Z" fill="#333333"/>
<path d="M23.6605 105.563H48.0273L39.8715 110.17H31.8163L23.6605 105.563Z" fill="#808080"/>
<path d="M89.9169 168.031H144.994V187.532H89.9169V168.031Z" fill="#E6E6E6"/>
<path d="M123.346 168.031H144.994V187.532H123.346V168.031Z" fill="#B3B3B3"/>
<path d="M123.346 187.639H166.139V282.359H123.346V187.639Z" fill="#333333"/>
<path d="M56.4877 187.639H123.346V282.359H56.4877V187.639Z" fill="#4D4D4D"/>
<path d="M128.582 177.996H161.508V187.639H128.582V177.996Z" fill="#333333"/>
<path d="M66.4564 177.996H113.479V187.639H66.4564V177.996Z" fill="#4D4D4D"/>
<path d="M104.517 160.638H123.346V168.031H104.517V160.638Z" fill="#E6E6E6"/>
<path d="M113.982 153.137H123.346V160.531H113.982V153.137Z" fill="#4D4D4D"/>
<path d="M123.446 153.137H132.811V160.531H123.446V153.137Z" fill="#333333"/>
<path d="M123.345 160.638H137.744V168.031H123.345V160.638Z" fill="#B3B3B3"/>
<path d="M123.949 153.137L123.345 135.993L122.842 153.137H123.949Z" fill="#333333"/>
<path opacity="0.12" d="M152.646 191.497H156.17V195.247H152.646V191.497Z" fill="white"/>
<path opacity="0.25" d="M147.812 191.497H151.336V195.247H147.812V191.497Z" fill="white"/>
<path opacity="0.36" d="M142.98 191.497H146.504V195.247H142.98V191.497Z" fill="white"/>
<path opacity="0.12" d="M138.146 191.497H141.67V195.247H138.146V191.497Z" fill="white"/>
<path opacity="0.14" d="M133.314 191.497H136.838V195.247H133.314V191.497Z" fill="white"/>
<path opacity="0.28" d="M152.646 196.426H156.17V200.176H152.646V196.426Z" fill="white"/>
<path opacity="0.4" d="M147.812 196.426H151.336V200.176H147.812V196.426Z" fill="white"/>
<path opacity="0.16" d="M142.98 196.426H146.504V200.176H142.98V196.426Z" fill="white"/>
<path opacity="0.17" d="M133.314 196.426H136.838V200.176H133.314V196.426Z" fill="white"/>
<path opacity="0.27" d="M152.646 201.354H156.17V205.105H152.646V201.354Z" fill="white"/>
<path opacity="0.45" d="M147.812 201.354H151.336V205.105H147.812V201.354Z" fill="white"/>
<path opacity="0.45" d="M142.98 201.354H146.504V205.105H142.98V201.354Z" fill="white"/>
<path opacity="0.48" d="M138.146 201.354H141.67V205.105H138.146V201.354Z" fill="white"/>
<path opacity="0.25" d="M133.314 201.354H136.838V205.105H133.314V201.354Z" fill="white"/>
<path opacity="0.28" d="M152.646 206.283H156.17V210.034H152.646V206.283Z" fill="white"/>
<path opacity="0.13" d="M147.812 206.283H151.336V210.034H147.812V206.283Z" fill="white"/>
<path opacity="0.07" d="M142.98 206.283H146.504V210.034H142.98V206.283Z" fill="white"/>
<path opacity="0.39" d="M138.146 206.283H141.67V210.034H138.146V206.283Z" fill="white"/>
<path opacity="0.47" d="M133.314 206.283H136.838V210.034H133.314V206.283Z" fill="white"/>
<path opacity="0.28" d="M152.646 211.212H156.17V214.962H152.646V211.212Z" fill="white"/>
<path opacity="0.2" d="M147.812 211.212H151.336V214.962H147.812V211.212Z" fill="white"/>
<path opacity="0.04" d="M142.98 211.212H146.504V214.962H142.98V211.212Z" fill="white"/>
<path opacity="0.43" d="M138.146 211.212H141.67V214.962H138.146V211.212Z" fill="white"/>
<path opacity="0.48" d="M133.314 211.212H136.838V214.962H133.314V211.212Z" fill="white"/>
<path opacity="0.28" d="M152.646 216.141H156.17V219.891H152.646V216.141Z" fill="white"/>
<path opacity="0.19" d="M147.812 216.141H151.336V219.891H147.812V216.141Z" fill="white"/>
<path opacity="0.01" d="M142.98 216.141H146.504V219.891H142.98V216.141Z" fill="white"/>
<path opacity="0.27" d="M138.146 216.141H141.67V219.891H138.146V216.141Z" fill="white"/>
<path opacity="0.24" d="M133.314 216.141H136.838V219.891H133.314V216.141Z" fill="white"/>
<path opacity="0.07" d="M152.646 221.177H156.17V224.927H152.646V221.177Z" fill="white"/>
<path opacity="0.25" d="M147.812 221.177H151.336V224.927H147.812V221.177Z" fill="white"/>
<path opacity="0.26" d="M142.98 221.177H146.504V224.927H142.98V221.177Z" fill="white"/>
<path opacity="0.39" d="M138.146 221.177H141.67V224.927H138.146V221.177Z" fill="white"/>
<path opacity="0.22" d="M133.314 221.177H136.838V224.927H133.314V221.177Z" fill="white"/>
<path opacity="0.15" d="M152.646 226.106H156.17V229.856H152.646V226.106Z" fill="white"/>
<path opacity="0.23" d="M147.812 226.106H151.336V229.856H147.812V226.106Z" fill="white"/>
<path opacity="0.05" d="M142.98 226.106H146.504V229.856H142.98V226.106Z" fill="white"/>
<path opacity="0.2" d="M138.146 226.106H141.67V229.856H138.146V226.106Z" fill="white"/>
<path opacity="0.31" d="M133.314 226.106H136.838V229.856H133.314V226.106Z" fill="white"/>
<path opacity="0.15" d="M152.646 231.035H156.17V234.785H152.646V231.035Z" fill="white"/>
<path opacity="0.33" d="M147.812 231.035H151.336V234.785H147.812V231.035Z" fill="white"/>
<path opacity="0.46" d="M142.98 231.035H146.504V234.785H142.98V231.035Z" fill="white"/>
<path opacity="0.25" d="M138.146 231.035H141.67V234.785H138.146V231.035Z" fill="white"/>
<path opacity="0.43" d="M133.314 231.035H136.838V234.785H133.314V231.035Z" fill="white"/>
<path opacity="0.4" d="M152.646 235.964H156.17V239.714H152.646V235.964Z" fill="white"/>
<path opacity="0.39" d="M147.812 235.964H151.336V239.714H147.812V235.964Z" fill="white"/>
<path opacity="0.01" d="M142.98 235.964H146.504V239.714H142.98V235.964Z" fill="white"/>
<path opacity="0.12" d="M138.146 235.964H141.67V239.714H138.146V235.964Z" fill="white"/>
<path opacity="0.07" d="M133.314 235.964H136.838V239.714H133.314V235.964Z" fill="white"/>
<path opacity="0.07" d="M152.646 240.893H156.17V244.643H152.646V240.893Z" fill="white"/>
<path opacity="0.02" d="M147.812 240.893H151.336V244.643H147.812V240.893Z" fill="white"/>
<path opacity="0.12" d="M142.98 240.893H146.504V244.643H142.98V240.893Z" fill="white"/>
<path opacity="0.23" d="M138.146 240.893H141.67V244.643H138.146V240.893Z" fill="white"/>
<path opacity="0.26" d="M133.314 240.893H136.838V244.643H133.314V240.893Z" fill="white"/>
<path opacity="0.27" d="M152.646 245.822H156.17V249.572H152.646V245.822Z" fill="white"/>
<path opacity="0.38" d="M147.812 245.822H151.336V249.572H147.812V245.822Z" fill="white"/>
<path opacity="0.05" d="M142.98 245.822H146.504V249.572H142.98V245.822Z" fill="white"/>
<path opacity="0.45" d="M138.146 245.822H141.67V249.572H138.146V245.822Z" fill="white"/>
<path opacity="0.15" d="M133.314 245.822H136.838V249.572H133.314V245.822Z" fill="white"/>
<path opacity="0.06" d="M152.646 250.75H156.17V254.501H152.646V250.75Z" fill="white"/>
<path opacity="0.47" d="M147.812 250.75H151.336V254.501H147.812V250.75Z" fill="white"/>
<path opacity="0.15" d="M142.98 250.75H146.504V254.501H142.98V250.75Z" fill="white"/>
<path opacity="0.44" d="M138.146 250.75H141.67V254.501H138.146V250.75Z" fill="white"/>
<path opacity="0.14" d="M133.314 250.75H136.838V254.501H133.314V250.75Z" fill="white"/>
<path opacity="0.15" d="M152.646 255.679H156.17V259.429H152.646V255.679Z" fill="white"/>
<path opacity="0.43" d="M147.812 255.679H151.336V259.429H147.812V255.679Z" fill="white"/>
<path opacity="0.07" d="M142.98 255.679H146.504V259.429H142.98V255.679Z" fill="white"/>
<path opacity="0.47" d="M138.146 255.679H141.67V259.429H138.146V255.679Z" fill="white"/>
<path opacity="0.11" d="M133.314 255.679H136.838V259.429H133.314V255.679Z" fill="white"/>
<path opacity="0.07" d="M152.646 260.608H156.17V264.358H152.646V260.608Z" fill="white"/>
<path opacity="0.34" d="M147.812 260.608H151.336V264.358H147.812V260.608Z" fill="white"/>
<path opacity="0.5" d="M142.98 260.608H146.504V264.358H142.98V260.608Z" fill="white"/>
<path opacity="0.36" d="M138.146 260.608H141.67V264.358H138.146V260.608Z" fill="white"/>
<path opacity="0.34" d="M133.314 260.608H136.838V264.358H133.314V260.608Z" fill="white"/>
<path opacity="0.47" d="M152.646 265.537H156.17V269.287H152.646V265.537Z" fill="white"/>
<path opacity="0.41" d="M147.812 265.537H151.336V269.287H147.812V265.537Z" fill="white"/>
<path opacity="0.3" d="M142.98 265.537H146.504V269.287H142.98V265.537Z" fill="white"/>
<path opacity="0.33" d="M138.146 265.537H141.67V269.287H138.146V265.537Z" fill="white"/>
<path opacity="0.12" d="M133.314 265.537H136.838V269.287H133.314V265.537Z" fill="white"/>
<path opacity="0.3" d="M111.665 191.497H115.189V195.247H111.665V191.497Z" fill="white"/>
<path opacity="0.72" d="M107.034 191.497H110.559V195.247H107.034V191.497Z" fill="white"/>
<path opacity="0.7" d="M102.302 191.497H105.826V195.247H102.302V191.497Z" fill="white"/>
<path opacity="0.52" d="M97.5696 191.497H101.094V195.247H97.5696V191.497Z" fill="white"/>
<path opacity="0.2" d="M92.8372 191.497H96.3613V195.247H92.8372V191.497Z" fill="white"/>
<path opacity="0.32" d="M88.2044 191.497H91.7285V195.247H88.2044V191.497Z" fill="white"/>
<path opacity="0.13" d="M83.4719 191.497H86.9961V195.247H83.4719V191.497Z" fill="white"/>
<path opacity="0.38" d="M78.7394 191.497H82.2637V195.247H78.7394V191.497Z" fill="white"/>
<path opacity="0.61" d="M74.1088 191.497H77.6328V195.247H74.1088V191.497Z" fill="white"/>
<path d="M69.3763 191.497H72.9004V195.247H69.3763V191.497Z" fill="white"/>
<path opacity="0.91" d="M64.6439 191.497H68.168V195.247H64.6439V191.497Z" fill="white"/>
<path opacity="0.66" d="M111.665 196.426H115.189V200.176H111.665V196.426Z" fill="white"/>
<path opacity="0.31" d="M107.034 196.426H110.559V200.176H107.034V196.426Z" fill="white"/>
<path opacity="0.95" d="M102.302 196.426H105.826V200.176H102.302V196.426Z" fill="white"/>
<path opacity="0.7" d="M97.5696 196.426H101.094V200.176H97.5696V196.426Z" fill="white"/>
<path opacity="0.12" d="M92.8372 196.426H96.3613V200.176H92.8372V196.426Z" fill="white"/>
<path opacity="0.24" d="M88.2044 196.426H91.7285V200.176H88.2044V196.426Z" fill="white"/>
<path opacity="0.66" d="M83.4719 196.426H86.9961V200.176H83.4719V196.426Z" fill="white"/>
<path opacity="0.71" d="M78.7394 196.426H82.2637V200.176H78.7394V196.426Z" fill="white"/>
<path opacity="0.42" d="M74.1088 196.426H77.6328V200.176H74.1088V196.426Z" fill="white"/>
<path opacity="0.09" d="M69.3763 196.426H72.9004V200.176H69.3763V196.426Z" fill="white"/>
<path opacity="0.32" d="M64.6439 196.426H68.168V200.176H64.6439V196.426Z" fill="white"/>
<path opacity="0.65" d="M111.665 201.354H115.189V205.105H111.665V201.354Z" fill="white"/>
<path d="M107.034 201.354H110.559V205.105H107.034V201.354Z" fill="white"/>
<path d="M102.302 201.354H105.826V205.105H102.302V201.354Z" fill="white"/>
<path opacity="0.71" d="M97.5696 201.354H101.094V205.105H97.5696V201.354Z" fill="white"/>
<path opacity="0.2" d="M92.8372 201.354H96.3613V205.105H92.8372V201.354Z" fill="white"/>
<path opacity="0.19" d="M88.2044 201.354H91.7285V205.105H88.2044V201.354Z" fill="white"/>
<path opacity="0.62" d="M83.4719 201.354H86.9961V205.105H83.4719V201.354Z" fill="white"/>
<path opacity="0.93" d="M78.7394 201.354H82.2637V205.105H78.7394V201.354Z" fill="white"/>
<path opacity="0.56" d="M74.1088 201.354H77.6328V205.105H74.1088V201.354Z" fill="white"/>
<path opacity="0.57" d="M69.3763 201.354H72.9004V205.105H69.3763V201.354Z" fill="white"/>
<path opacity="0.52" d="M64.6439 201.354H68.168V205.105H64.6439V201.354Z" fill="white"/>
<path opacity="0.74" d="M111.665 206.283H115.189V210.034H111.665V206.283Z" fill="white"/>
<path opacity="0.56" d="M107.034 206.283H110.559V210.034H107.034V206.283Z" fill="white"/>
<path opacity="0.78" d="M102.302 206.283H105.826V210.034H102.302V206.283Z" fill="white"/>
<path opacity="0.41" d="M97.5696 206.283H101.094V210.034H97.5696V206.283Z" fill="white"/>
<path opacity="0.14" d="M92.8372 206.283H96.3613V210.034H92.8372V206.283Z" fill="white"/>
<path opacity="0.28" d="M88.2044 206.283H91.7285V210.034H88.2044V206.283Z" fill="white"/>
<path opacity="0.36" d="M83.4719 206.283H86.9961V210.034H83.4719V206.283Z" fill="white"/>
<path opacity="0.14" d="M78.7394 206.283H82.2637V210.034H78.7394V206.283Z" fill="white"/>
<path opacity="0.5" d="M74.1088 206.283H77.6328V210.034H74.1088V206.283Z" fill="white"/>
<path opacity="0.98" d="M69.3763 206.283H72.9004V210.034H69.3763V206.283Z" fill="white"/>
<path opacity="0.59" d="M64.6439 206.283H68.168V210.034H64.6439V206.283Z" fill="white"/>
<path opacity="0.07" d="M111.665 211.212H115.189V214.962H111.665V211.212Z" fill="white"/>
<path opacity="0.1" d="M107.034 211.212H110.559V214.962H107.034V211.212Z" fill="white"/>
<path opacity="0.88" d="M102.302 211.212H105.826V214.962H102.302V211.212Z" fill="white"/>
<path opacity="0.68" d="M97.5696 211.212H101.094V214.962H97.5696V211.212Z" fill="white"/>
<path opacity="0.81" d="M92.8372 211.212H96.3613V214.962H92.8372V211.212Z" fill="white"/>
<path opacity="0.62" d="M88.2044 211.212H91.7285V214.962H88.2044V211.212Z" fill="white"/>
<path opacity="0.97" d="M83.4719 211.212H86.9961V214.962H83.4719V211.212Z" fill="white"/>
<path opacity="0.81" d="M78.7394 211.212H82.2637V214.962H78.7394V211.212Z" fill="white"/>
<path opacity="0.79" d="M74.1088 211.212H77.6328V214.962H74.1088V211.212Z" fill="white"/>
<path opacity="0.03" d="M69.3763 211.212H72.9004V214.962H69.3763V211.212Z" fill="white"/>
<path opacity="0.95" d="M64.6439 211.212H68.168V214.962H64.6439V211.212Z" fill="white"/>
<path opacity="0.62" d="M111.665 216.141H115.189V219.891H111.665V216.141Z" fill="white"/>
<path opacity="0.22" d="M107.034 216.141H110.559V219.891H107.034V216.141Z" fill="white"/>
<path opacity="0.42" d="M102.302 216.141H105.826V219.891H102.302V216.141Z" fill="white"/>
<path opacity="0.56" d="M97.5696 216.141H101.094V219.891H97.5696V216.141Z" fill="white"/>
<path opacity="0.03" d="M92.8372 216.141H96.3613V219.891H92.8372V216.141Z" fill="white"/>
<path opacity="0.64" d="M88.2044 216.141H91.7285V219.891H88.2044V216.141Z" fill="white"/>
<path opacity="0.82" d="M83.4719 216.141H86.9961V219.891H83.4719V216.141Z" fill="white"/>
<path opacity="0.52" d="M78.7394 216.141H82.2637V219.891H78.7394V216.141Z" fill="white"/>
<path opacity="0.46" d="M74.1088 216.141H77.6328V219.891H74.1088V216.141Z" fill="white"/>
<path opacity="0.27" d="M69.3763 216.141H72.9004V219.891H69.3763V216.141Z" fill="white"/>
<path opacity="0.46" d="M64.6439 216.141H68.168V219.891H64.6439V216.141Z" fill="white"/>
<path opacity="0.66" d="M111.665 221.177H115.189V224.927H111.665V221.177Z" fill="white"/>
<path opacity="0.7" d="M107.034 221.177H110.559V224.927H107.034V221.177Z" fill="white"/>
<path opacity="0.94" d="M102.302 221.177H105.826V224.927H102.302V221.177Z" fill="white"/>
<path opacity="0.5" d="M97.5696 221.177H101.094V224.927H97.5696V221.177Z" fill="white"/>
<path opacity="0.12" d="M92.8372 221.177H96.3613V224.927H92.8372V221.177Z" fill="white"/>
<path opacity="0.36" d="M88.2044 221.177H91.7285V224.927H88.2044V221.177Z" fill="white"/>
<path opacity="0.51" d="M83.4719 221.177H86.9961V224.927H83.4719V221.177Z" fill="white"/>
<path opacity="0.37" d="M78.7394 221.177H82.2637V224.927H78.7394V221.177Z" fill="white"/>
<path opacity="0.66" d="M74.1088 221.177H77.6328V224.927H74.1088V221.177Z" fill="white"/>
<path opacity="0.42" d="M69.3763 221.177H72.9004V224.927H69.3763V221.177Z" fill="white"/>
<path opacity="0.5" d="M64.6439 221.177H68.168V224.927H64.6439V221.177Z" fill="white"/>
<path opacity="0.52" d="M111.665 226.106H115.189V229.856H111.665V226.106Z" fill="white"/>
<path opacity="0.61" d="M107.034 226.106H110.559V229.856H107.034V226.106Z" fill="white"/>
<path opacity="0.84" d="M102.302 226.106H105.826V229.856H102.302V226.106Z" fill="white"/>
<path opacity="0.89" d="M97.5696 226.106H101.094V229.856H97.5696V226.106Z" fill="white"/>
<path opacity="0.33" d="M92.8372 226.106H96.3613V229.856H92.8372V226.106Z" fill="white"/>
<path opacity="0.25" d="M88.2044 226.106H91.7285V229.856H88.2044V226.106Z" fill="white"/>
<path opacity="0.95" d="M83.4719 226.106H86.9961V229.856H83.4719V226.106Z" fill="white"/>
<path opacity="0.09" d="M78.7394 226.106H82.2637V229.856H78.7394V226.106Z" fill="white"/>
<path opacity="0.44" d="M74.1088 226.106H77.6328V229.856H74.1088V226.106Z" fill="white"/>
<path opacity="0.51" d="M69.3763 226.106H72.9004V229.856H69.3763V226.106Z" fill="white"/>
<path opacity="0.97" d="M64.6439 226.106H68.168V229.856H64.6439V226.106Z" fill="white"/>
<path opacity="0.26" d="M111.665 231.035H115.189V234.785H111.665V231.035Z" fill="white"/>
<path opacity="0.92" d="M107.034 231.035H110.559V234.785H107.034V231.035Z" fill="white"/>
<path opacity="0.33" d="M102.302 231.035H105.826V234.785H102.302V231.035Z" fill="white"/>
<path opacity="0.23" d="M97.5696 231.035H101.094V234.785H97.5696V231.035Z" fill="white"/>
<path opacity="0.42" d="M92.8372 231.035H96.3613V234.785H92.8372V231.035Z" fill="white"/>
<path opacity="0.57" d="M88.2044 231.035H91.7285V234.785H88.2044V231.035Z" fill="white"/>
<path opacity="0.73" d="M83.4719 231.035H86.9961V234.785H83.4719V231.035Z" fill="white"/>
<path opacity="0.87" d="M78.7394 231.035H82.2637V234.785H78.7394V231.035Z" fill="white"/>
<path opacity="0.22" d="M74.1088 231.035H77.6328V234.785H74.1088V231.035Z" fill="white"/>
<path opacity="0.89" d="M69.3763 231.035H72.9004V234.785H69.3763V231.035Z" fill="white"/>
<path opacity="0.73" d="M64.6439 231.035H68.168V234.785H64.6439V231.035Z" fill="white"/>
<path opacity="0.35" d="M111.665 235.964H115.189V239.714H111.665V235.964Z" fill="white"/>
<path opacity="0.81" d="M107.034 235.964H110.559V239.714H107.034V235.964Z" fill="white"/>
<path opacity="0.56" d="M102.302 235.964H105.826V239.714H102.302V235.964Z" fill="white"/>
<path opacity="0.81" d="M97.5696 235.964H101.094V239.714H97.5696V235.964Z" fill="white"/>
<path opacity="0.87" d="M92.8372 235.964H96.3613V239.714H92.8372V235.964Z" fill="white"/>
<path opacity="0.39" d="M88.2044 235.964H91.7285V239.714H88.2044V235.964Z" fill="white"/>
<path opacity="0.31" d="M83.4719 235.964H86.9961V239.714H83.4719V235.964Z" fill="white"/>
<path opacity="0.98" d="M78.7394 235.964H82.2637V239.714H78.7394V235.964Z" fill="white"/>
<path opacity="0.17" d="M74.1088 235.964H77.6328V239.714H74.1088V235.964Z" fill="white"/>
<path opacity="0.06" d="M69.3763 235.964H72.9004V239.714H69.3763V235.964Z" fill="white"/>
<path opacity="0.57" d="M64.6439 235.964H68.168V239.714H64.6439V235.964Z" fill="white"/>
<path opacity="0.67" d="M111.665 240.893H115.189V244.643H111.665V240.893Z" fill="white"/>
<path opacity="0.83" d="M107.034 240.893H110.559V244.643H107.034V240.893Z" fill="white"/>
<path opacity="0.99" d="M102.302 240.893H105.826V244.643H102.302V240.893Z" fill="white"/>
<path opacity="0.62" d="M97.5696 240.893H101.094V244.643H97.5696V240.893Z" fill="white"/>
<path opacity="0.87" d="M92.8372 240.893H96.3613V244.643H92.8372V240.893Z" fill="white"/>
<path opacity="0.14" d="M88.2044 240.893H91.7285V244.643H88.2044V240.893Z" fill="white"/>
<path opacity="0.12" d="M83.4719 240.893H86.9961V244.643H83.4719V240.893Z" fill="white"/>
<path opacity="0.11" d="M78.7394 240.893H82.2637V244.643H78.7394V240.893Z" fill="white"/>
<path opacity="0.39" d="M74.1088 240.893H77.6328V244.643H74.1088V240.893Z" fill="white"/>
<path opacity="0.58" d="M69.3763 240.893H72.9004V244.643H69.3763V240.893Z" fill="white"/>
<path opacity="0.54" d="M64.6439 240.893H68.168V244.643H64.6439V240.893Z" fill="white"/>
<path opacity="0.99" d="M111.665 245.822H115.189V249.572H111.665V245.822Z" fill="white"/>
<path opacity="0.28" d="M107.034 245.822H110.559V249.572H107.034V245.822Z" fill="white"/>
<path opacity="0.78" d="M102.302 245.822H105.826V249.572H102.302V245.822Z" fill="white"/>
<path opacity="0.65" d="M97.5696 245.822H101.094V249.572H97.5696V245.822Z" fill="white"/>
<path opacity="0.32" d="M92.8372 245.822H96.3613V249.572H92.8372V245.822Z" fill="white"/>
<path opacity="0.55" d="M88.2044 245.822H91.7285V249.572H88.2044V245.822Z" fill="white"/>
<path opacity="0.4" d="M83.4719 245.822H86.9961V249.572H83.4719V245.822Z" fill="white"/>
<path opacity="0.22" d="M78.7394 245.822H82.2637V249.572H78.7394V245.822Z" fill="white"/>
<path opacity="0.87" d="M74.1088 245.822H77.6328V249.572H74.1088V245.822Z" fill="white"/>
<path opacity="0.02" d="M69.3763 245.822H72.9004V249.572H69.3763V245.822Z" fill="white"/>
<path opacity="0.39" d="M64.6439 245.822H68.168V249.572H64.6439V245.822Z" fill="white"/>
<path opacity="0.89" d="M111.665 250.75H115.189V254.501H111.665V250.75Z" fill="white"/>
<path opacity="0.97" d="M107.034 250.75H110.559V254.501H107.034V250.75Z" fill="white"/>
<path opacity="0.79" d="M102.302 250.75H105.826V254.501H102.302V250.75Z" fill="white"/>
<path opacity="0.41" d="M97.5696 250.75H101.094V254.501H97.5696V250.75Z" fill="white"/>
<path opacity="0.13" d="M92.8372 250.75H96.3613V254.501H92.8372V250.75Z" fill="white"/>
<path opacity="0.9" d="M88.2044 250.75H91.7285V254.501H88.2044V250.75Z" fill="white"/>
<path opacity="0.98" d="M83.4719 250.75H86.9961V254.501H83.4719V250.75Z" fill="white"/>
<path opacity="0.67" d="M78.7394 250.75H82.2637V254.501H78.7394V250.75Z" fill="white"/>
<path opacity="0.65" d="M74.1088 250.75H77.6328V254.501H74.1088V250.75Z" fill="white"/>
<path opacity="0.89" d="M69.3763 250.75H72.9004V254.501H69.3763V250.75Z" fill="white"/>
<path opacity="0.98" d="M64.6439 250.75H68.168V254.501H64.6439V250.75Z" fill="white"/>
<path opacity="0.29" d="M111.665 255.679H115.189V259.429H111.665V255.679Z" fill="white"/>
<path opacity="0.74" d="M107.034 255.679H110.559V259.429H107.034V255.679Z" fill="white"/>
<path opacity="0.64" d="M102.302 255.679H105.826V259.429H102.302V255.679Z" fill="white"/>
<path opacity="0.65" d="M97.5696 255.679H101.094V259.429H97.5696V255.679Z" fill="white"/>
<path opacity="0.07" d="M92.8372 255.679H96.3613V259.429H92.8372V255.679Z" fill="white"/>
<path opacity="0.16" d="M88.2044 255.679H91.7285V259.429H88.2044V255.679Z" fill="white"/>
<path opacity="0.84" d="M83.4719 255.679H86.9961V259.429H83.4719V255.679Z" fill="white"/>
<path opacity="0.88" d="M78.7394 255.679H82.2637V259.429H78.7394V255.679Z" fill="white"/>
<path opacity="0.57" d="M74.1088 255.679H77.6328V259.429H74.1088V255.679Z" fill="white"/>
<path opacity="0.31" d="M69.3763 255.679H72.9004V259.429H69.3763V255.679Z" fill="white"/>
<path opacity="0.03" d="M64.6439 255.679H68.168V259.429H64.6439V255.679Z" fill="white"/>
<path opacity="0.3" d="M111.665 260.608H115.189V264.358H111.665V260.608Z" fill="white"/>
<path opacity="0.59" d="M107.034 260.608H110.559V264.358H107.034V260.608Z" fill="white"/>
<path opacity="0.93" d="M102.302 260.608H105.826V264.358H102.302V260.608Z" fill="white"/>
<path opacity="0.06" d="M97.5696 260.608H101.094V264.358H97.5696V260.608Z" fill="white"/>
<path opacity="0.74" d="M92.8372 260.608H96.3613V264.358H92.8372V260.608Z" fill="white"/>
<path opacity="0.22" d="M88.2044 260.608H91.7285V264.358H88.2044V260.608Z" fill="white"/>
<path opacity="0.51" d="M83.4719 260.608H86.9961V264.358H83.4719V260.608Z" fill="white"/>
<path opacity="0.7" d="M78.7394 260.608H82.2637V264.358H78.7394V260.608Z" fill="white"/>
<path opacity="0.47" d="M74.1088 260.608H77.6328V264.358H74.1088V260.608Z" fill="white"/>
<path opacity="0.08" d="M69.3763 260.608H72.9004V264.358H69.3763V260.608Z" fill="white"/>
<path opacity="0.93" d="M64.6439 260.608H68.168V264.358H64.6439V260.608Z" fill="white"/>
<path opacity="0.81" d="M111.665 265.537H115.189V269.287H111.665V265.537Z" fill="white"/>
<path opacity="0.9" d="M107.034 265.537H110.559V269.287H107.034V265.537Z" fill="white"/>
<path opacity="0.55" d="M102.302 265.537H105.826V269.287H102.302V265.537Z" fill="white"/>
<path opacity="0.14" d="M97.5696 265.537H101.094V269.287H97.5696V265.537Z" fill="white"/>
<path opacity="0.66" d="M92.8372 265.537H96.3613V269.287H92.8372V265.537Z" fill="white"/>
<path opacity="0.92" d="M88.2044 265.537H91.7285V269.287H88.2044V265.537Z" fill="white"/>
<path opacity="0.4" d="M83.4719 265.537H86.9961V269.287H83.4719V265.537Z" fill="white"/>
<path opacity="0.6" d="M78.7394 265.537H82.2637V269.287H78.7394V265.537Z" fill="white"/>
<path opacity="0.99" d="M74.1088 265.537H77.6328V269.287H74.1088V265.537Z" fill="white"/>
<path opacity="0.68" d="M69.3763 265.537H72.9004V269.287H69.3763V265.537Z" fill="white"/>
<path opacity="0.01" d="M64.6439 265.537H68.168V269.287H64.6439V265.537Z" fill="white"/>
<path d="M171.173 167.388H204.4V278.181H171.173V167.388Z" fill="#333333"/>
<path d="M189.297 161.816H204.4V168.031H189.297V161.816Z" fill="#333333"/>
<path d="M195.64 158.173H204.4V161.816H195.64V158.173Z" fill="#333333"/>
<path opacity="0.25" d="M185.168 175.21H190.605V180.996H185.168V175.21Z" fill="white"/>
<path opacity="0.15" d="M185.168 189.461H190.605V195.247H185.168V189.461Z" fill="white"/>
<path opacity="0.19" d="M185.168 217.855H190.605V223.641H185.168V217.855Z" fill="white"/>
<path opacity="0.17" d="M185.168 231.999H190.605V237.785H185.168V231.999Z" fill="white"/>
<path opacity="0.22" d="M185.168 246.143H190.605V251.929H185.168V246.143Z" fill="white"/>
<path d="M185.168 260.394H190.605V266.18H185.168V260.394Z" fill="white"/>
<path d="M195.842 229.106H226.955V238.857H195.842V229.106Z" fill="#333333"/>
<path d="M180.336 229.106H195.842V238.857H180.336V229.106Z" fill="#4D4D4D"/>
<path d="M226.955 229.106L217.289 224.177L195.842 229.106H226.955Z" fill="#333333"/>
<path d="M217.289 224.177L195.842 229.106H180.336L217.289 224.177Z" fill="#4D4D4D"/>
<path d="M188.592 235.964H234.104V280.323H188.592V235.964Z" fill="#333333"/>
<path d="M173.488 235.964H188.592V280.323H173.488V235.964Z" fill="#4D4D4D"/>
<path opacity="0.81" d="M177.012 239.071H185.168V242.286H177.012V239.071Z" fill="white"/>
<path opacity="0.76" d="M177.012 244.964H185.168V248.179H177.012V244.964Z" fill="white"/>
<path opacity="0.32" d="M177.012 250.857H185.168V254.072H177.012V250.857Z" fill="white"/>
<path opacity="0.49" d="M177.012 256.858H185.168V260.072H177.012V256.858Z" fill="white"/>
<path opacity="0.99" d="M177.012 268.644H185.168V271.859H177.012V268.644Z" fill="white"/>
<path opacity="0.1" d="M218.698 239.071H226.854V242.286H218.698V239.071Z" fill="white"/>
<path opacity="0.04" d="M207.321 239.071H215.477V242.286H207.321V239.071Z" fill="white"/>
<path opacity="0.07" d="M195.84 239.071H203.996V242.286H195.84V239.071Z" fill="white"/>
<path opacity="0.06" d="M218.698 244.964H226.854V248.179H218.698V244.964Z" fill="white"/>
<path opacity="0.44" d="M207.321 244.964H215.477V248.179H207.321V244.964Z" fill="white"/>
<path opacity="0.24" d="M195.84 244.964H203.996V248.179H195.84V244.964Z" fill="white"/>
<path opacity="0.55" d="M218.698 250.857H226.854V254.072H218.698V250.857Z" fill="white"/>
<path opacity="0.02" d="M207.321 250.857H215.477V254.072H207.321V250.857Z" fill="white"/>
<path opacity="0.14" d="M195.84 250.857H203.996V254.072H195.84V250.857Z" fill="white"/>
<path opacity="0.43" d="M218.698 256.858H226.854V260.072H218.698V256.858Z" fill="white"/>
<path opacity="0.41" d="M207.321 256.858H215.477V260.072H207.321V256.858Z" fill="white"/>
<path opacity="0.46" d="M195.84 256.858H203.996V260.072H195.84V256.858Z" fill="white"/>
<path opacity="0.45" d="M218.698 262.751H226.854V265.966H218.698V262.751Z" fill="white"/>
<path opacity="0.33" d="M207.321 262.751H215.477V265.966H207.321V262.751Z" fill="white"/>
<path opacity="0.05" d="M195.84 262.751H203.996V265.966H195.84V262.751Z" fill="white"/>
<path opacity="0.27" d="M218.698 268.644H226.854V271.859H218.698V268.644Z" fill="white"/>
<path opacity="0.15" d="M207.321 268.644H215.477V271.859H207.321V268.644Z" fill="white"/>
<path opacity="0.7" d="M195.84 268.644H203.996V271.859H195.84V268.644Z" fill="white"/>
<path d="M410.008 191.604H438.201V284.074H410.008V191.604Z" fill="#333333"/>
<path d="M377.889 191.604H409.908V284.074H377.889V191.604Z" fill="#4D4D4D"/>
<path d="M410.008 199.426H438.201V201.033H410.008V199.426Z" fill="#4D4D4D"/>
<path d="M377.889 199.426H409.908V201.033H377.889V199.426Z" fill="#333333"/>
<path opacity="0.47" d="M432.864 202.854H435.885V206.069H432.864V202.854Z" fill="white"/>
<path opacity="0.26" d="M428.735 202.854H431.756V206.069H428.735V202.854Z" fill="white"/>
<path opacity="0.32" d="M424.608 202.854H427.629V206.069H424.608V202.854Z" fill="white"/>
<path opacity="0.25" d="M420.479 202.854H423.5V206.069H420.479V202.854Z" fill="white"/>
<path opacity="0.12" d="M412.223 202.854H415.244V206.069H412.223V202.854Z" fill="white"/>
<path opacity="0.32" d="M432.864 207.248H435.885V210.462H432.864V207.248Z" fill="white"/>
<path opacity="0.22" d="M424.608 207.248H427.629V210.462H424.608V207.248Z" fill="white"/>
<path opacity="0.47" d="M420.479 207.248H423.5V210.462H420.479V207.248Z" fill="white"/>
<path opacity="0.22" d="M416.35 207.248H419.371V210.462H416.35V207.248Z" fill="white"/>
<path opacity="0.32" d="M412.223 207.248H415.244V210.462H412.223V207.248Z" fill="white"/>
<path opacity="0.37" d="M432.864 211.641H435.885V214.855H432.864V211.641Z" fill="white"/>
<path opacity="0.34" d="M428.735 211.641H431.756V214.855H428.735V211.641Z" fill="white"/>
<path opacity="0.18" d="M424.608 211.641H427.629V214.855H424.608V211.641Z" fill="white"/>
<path opacity="0.28" d="M420.479 211.641H423.5V214.855H420.479V211.641Z" fill="white"/>
<path opacity="0.2" d="M412.223 211.641H415.244V214.855H412.223V211.641Z" fill="white"/>
<path opacity="0.18" d="M432.864 216.034H435.885V219.248H432.864V216.034Z" fill="white"/>
<path opacity="0.33" d="M424.608 216.034H427.629V219.248H424.608V216.034Z" fill="white"/>
<path opacity="0.05" d="M420.479 216.034H423.5V219.248H420.479V216.034Z" fill="white"/>
<path opacity="0.08" d="M416.35 216.034H419.371V219.248H416.35V216.034Z" fill="white"/>
<path opacity="0.08" d="M420.479 220.427H423.5V223.642H420.479V220.427Z" fill="white"/>
<path opacity="0.02" d="M416.35 220.427H419.371V223.642H416.35V220.427Z" fill="white"/>
<path opacity="0.03" d="M432.864 224.82H435.885V228.035H432.864V224.82Z" fill="white"/>
<path opacity="0.46" d="M428.735 224.82H431.756V228.035H428.735V224.82Z" fill="white"/>
<path opacity="0.05" d="M424.608 224.82H427.629V228.035H424.608V224.82Z" fill="white"/>
<path opacity="0.2" d="M420.479 224.82H423.5V228.035H420.479V224.82Z" fill="white"/>
<path opacity="0.23" d="M416.35 224.82H419.371V228.035H416.35V224.82Z" fill="white"/>
<path opacity="0.17" d="M432.864 229.213H435.885V232.428H432.864V229.213Z" fill="white"/>
<path opacity="0.08" d="M428.735 229.213H431.756V232.428H428.735V229.213Z" fill="white"/>
<path opacity="0.14" d="M424.608 229.213H427.629V232.428H424.608V229.213Z" fill="white"/>
<path opacity="0.24" d="M416.35 229.213H419.371V232.428H416.35V229.213Z" fill="white"/>
<path opacity="0.28" d="M432.864 233.606H435.885V236.821H432.864V233.606Z" fill="white"/>
<path opacity="0.3" d="M428.735 233.606H431.756V236.821H428.735V233.606Z" fill="white"/>
<path opacity="0.23" d="M424.608 233.606H427.629V236.821H424.608V233.606Z" fill="white"/>
<path opacity="0.02" d="M420.479 233.606H423.5V236.821H420.479V233.606Z" fill="white"/>
<path opacity="0.04" d="M416.35 233.606H419.371V236.821H416.35V233.606Z" fill="white"/>
<path opacity="0.3" d="M412.223 233.606H415.244V236.821H412.223V233.606Z" fill="white"/>
<path opacity="0.08" d="M428.735 237.892H431.756V241.107H428.735V237.892Z" fill="white"/>
<path opacity="0.4" d="M412.223 237.892H415.244V241.107H412.223V237.892Z" fill="white"/>
<path opacity="0.31" d="M432.864 242.286H435.885V245.5H432.864V242.286Z" fill="white"/>
<path opacity="0.31" d="M428.735 242.286H431.756V245.5H428.735V242.286Z" fill="white"/>
<path opacity="0.12" d="M424.608 242.286H427.629V245.5H424.608V242.286Z" fill="white"/>
<path opacity="0.19" d="M416.35 242.286H419.371V245.5H416.35V242.286Z" fill="white"/>
<path opacity="0.43" d="M412.223 242.286H415.244V245.5H412.223V242.286Z" fill="white"/>
<path opacity="0.12" d="M432.864 246.678H435.885V249.893H432.864V246.678Z" fill="white"/>
<path opacity="0.42" d="M420.479 246.678H423.5V249.893H420.479V246.678Z" fill="white"/>
<path opacity="0.31" d="M412.223 246.678H415.244V249.893H412.223V246.678Z" fill="white"/>
<path opacity="0.23" d="M432.864 251.072H435.885V254.286H432.864V251.072Z" fill="white"/>
<path opacity="0.31" d="M420.479 251.072H423.5V254.286H420.479V251.072Z" fill="white"/>
<path opacity="0.33" d="M412.223 251.072H415.244V254.286H412.223V251.072Z" fill="white"/>
<path opacity="0.49" d="M432.864 255.465H435.885V258.679H432.864V255.465Z" fill="white"/>
<path opacity="0.06" d="M428.735 255.465H431.756V258.679H428.735V255.465Z" fill="white"/>
<path opacity="0.17" d="M420.479 255.465H423.5V258.679H420.479V255.465Z" fill="white"/>
<path opacity="0.01" d="M416.35 255.465H419.371V258.679H416.35V255.465Z" fill="white"/>
<path opacity="0.48" d="M412.223 255.465H415.244V258.679H412.223V255.465Z" fill="white"/>
<path opacity="0.05" d="M432.864 259.858H435.885V263.072H432.864V259.858Z" fill="white"/>
<path opacity="0.23" d="M428.735 259.858H431.756V263.072H428.735V259.858Z" fill="white"/>
<path opacity="0.28" d="M424.608 259.858H427.629V263.072H424.608V259.858Z" fill="white"/>
<path opacity="0.02" d="M420.479 259.858H423.5V263.072H420.479V259.858Z" fill="white"/>
<path opacity="0.17" d="M416.35 259.858H419.371V263.072H416.35V259.858Z" fill="white"/>
<path opacity="0.42" d="M412.223 259.858H415.244V263.072H412.223V259.858Z" fill="white"/>
<path opacity="0.13" d="M432.864 264.251H435.885V267.466H432.864V264.251Z" fill="white"/>
<path opacity="0.11" d="M424.608 264.251H427.629V267.466H424.608V264.251Z" fill="white"/>
<path opacity="0.02" d="M420.479 264.251H423.5V267.466H420.479V264.251Z" fill="white"/>
<path opacity="0.3" d="M412.223 264.251H415.244V267.466H412.223V264.251Z" fill="white"/>
<path opacity="0.23" d="M432.864 268.644H435.885V271.859H432.864V268.644Z" fill="white"/>
<path opacity="0.01" d="M428.735 268.644H431.756V271.859H428.735V268.644Z" fill="white"/>
<path opacity="0.19" d="M424.608 268.644H427.629V271.859H424.608V268.644Z" fill="white"/>
<path opacity="0.05" d="M420.479 268.644H423.5V271.859H420.479V268.644Z" fill="white"/>
<path opacity="0.2" d="M412.223 268.644H415.244V271.859H412.223V268.644Z" fill="white"/>
<path opacity="0.08" d="M416.35 202.854H419.371V206.069H416.35V202.854Z" fill="white"/>
<path opacity="0.1" d="M428.735 207.248H431.756V210.462H428.735V207.248Z" fill="white"/>
<path opacity="0.08" d="M416.35 211.641H419.371V214.855H416.35V211.641Z" fill="white"/>
<path opacity="0.1" d="M428.735 216.034H431.756V219.248H428.735V216.034Z" fill="white"/>
<path opacity="0.01" d="M412.223 216.034H415.244V219.248H412.223V216.034Z" fill="white"/>
<path opacity="0.17" d="M432.864 220.427H435.885V223.642H432.864V220.427Z" fill="white"/>
<path opacity="0.01" d="M428.735 220.427H431.756V223.642H428.735V220.427Z" fill="white"/>
<path opacity="0.15" d="M424.608 220.427H427.629V223.642H424.608V220.427Z" fill="white"/>
<path opacity="0.12" d="M412.223 220.427H415.244V223.642H412.223V220.427Z" fill="white"/>
<path opacity="0.13" d="M420.479 229.213H423.5V232.428H420.479V229.213Z" fill="white"/>
<path opacity="0.07" d="M412.223 229.213H415.244V232.428H412.223V229.213Z" fill="white"/>
<path opacity="0.13" d="M432.864 237.892H435.885V241.107H432.864V237.892Z" fill="white"/>
<path opacity="0.02" d="M424.608 237.892H427.629V241.107H424.608V237.892Z" fill="white"/>
<path opacity="0.02" d="M420.479 237.892H423.5V241.107H420.479V237.892Z" fill="white"/>
<path opacity="0.14" d="M416.35 237.892H419.371V241.107H416.35V237.892Z" fill="white"/>
<path opacity="0.09" d="M424.608 246.678H427.629V249.893H424.608V246.678Z" fill="white"/>
<path opacity="0.02" d="M416.35 246.678H419.371V249.893H416.35V246.678Z" fill="white"/>
<path opacity="0.19" d="M424.608 251.072H427.629V254.286H424.608V251.072Z" fill="white"/>
<path opacity="0.06" d="M416.35 251.072H419.371V254.286H416.35V251.072Z" fill="white"/>
<path opacity="0.16" d="M424.608 255.465H427.629V258.679H424.608V255.465Z" fill="white"/>
<path opacity="0.19" d="M428.735 264.251H431.756V267.466H428.735V264.251Z" fill="white"/>
<path opacity="0.04" d="M416.35 264.251H419.371V267.466H416.35V264.251Z" fill="white"/>
<path opacity="0.04" d="M416.35 268.644H419.371V271.859H416.35V268.644Z" fill="white"/>
<g opacity="0.7">
<path opacity="0.7" d="M403.867 201.033H406.988V280.002H403.867V201.033Z" fill="#E6E6E6"/>
<path opacity="0.7" d="M398.531 201.033H401.652V280.002H398.531V201.033Z" fill="#E6E6E6"/>
<path opacity="0.7" d="M393.093 201.033H396.215V280.002H393.093V201.033Z" fill="#E6E6E6"/>
<path opacity="0.7" d="M387.656 201.033H390.777V280.002H387.656V201.033Z" fill="#E6E6E6"/>
<path opacity="0.7" d="M382.218 201.033H385.34V280.002H382.218V201.033Z" fill="#E6E6E6"/>
</g>
<path d="M472.839 146.28L479.082 128.707L462.368 146.28H472.839Z" fill="#4D4D4D"/>
<path d="M487.439 146.28L479.082 128.707L472.839 146.28H487.439Z" fill="#333333"/>
<path d="M472.839 146.28H487.439V165.031H472.839V146.28Z" fill="#333333"/>
<path d="M462.368 146.28H472.84V165.031H462.368V146.28Z" fill="#4D4D4D"/>
<path d="M458.037 230.606H502.24V284.502H458.037V230.606Z" fill="#333333"/>
<path d="M464.078 192.032H496.098V230.606H464.078V192.032Z" fill="#333333"/>
<path d="M468.711 153.459H491.467V192.032H468.711V153.459Z" fill="#333333"/>
<path d="M453.103 153.459H468.811V192.032H453.103V153.459Z" fill="#4D4D4D"/>
<path d="M430.851 230.606H458.037V284.502H430.851V230.606Z" fill="#4D4D4D"/>
<path d="M443.437 192.032H464.078V230.606H443.437V192.032Z" fill="#4D4D4D"/>
<path opacity="0.53" d="M458.541 156.245H463.273V161.281H458.541V156.245Z" fill="white"/>
<path opacity="0.34" d="M458.541 162.566H463.273V167.602H458.541V162.566Z" fill="white"/>
<path opacity="0.9" d="M458.541 168.781H463.273V173.817H458.541V168.781Z" fill="white"/>
<path opacity="0.14" d="M458.541 174.996H463.273V180.032H458.541V174.996Z" fill="white"/>
<path d="M458.541 181.318H463.273V186.354H458.541V181.318Z" fill="white"/>
<path opacity="0.29" d="M455.018 195.354H459.75V200.39H455.018V195.354Z" fill="white"/>
<path opacity="0.81" d="M447.768 195.354H452.5V200.39H447.768V195.354Z" fill="white"/>
<path opacity="0.18" d="M455.018 201.676H459.75V206.712H455.018V201.676Z" fill="white"/>
<path opacity="0.41" d="M447.768 201.676H452.5V206.712H447.768V201.676Z" fill="white"/>
<path opacity="0.03" d="M447.768 208.105H452.5V213.141H447.768V208.105Z" fill="white"/>
<path opacity="0.85" d="M455.018 214.534H459.75V219.57H455.018V214.534Z" fill="white"/>
<path opacity="0.06" d="M447.768 214.534H452.5V219.57H447.768V214.534Z" fill="white"/>
<path opacity="0.94" d="M455.018 220.856H459.75V225.892H455.018V220.856Z" fill="white"/>
<path opacity="0.25" d="M447.768 220.856H452.5V225.892H447.768V220.856Z" fill="white"/>
<path opacity="0.6" d="M448.371 233.928H453.104V238.964H448.371V233.928Z" fill="white"/>
<path opacity="0.83" d="M442.027 233.928H446.76V238.964H442.027V233.928Z" fill="white"/>
<path opacity="0.74" d="M435.684 233.928H440.416V238.964H435.684V233.928Z" fill="white"/>
<path opacity="0.35" d="M442.027 240.035H446.76V245.071H442.027V240.035Z" fill="white"/>
<path opacity="0.54" d="M435.684 240.035H440.416V245.071H435.684V240.035Z" fill="white"/>
<path opacity="0.2" d="M448.371 246.143H453.104V251.179H448.371V246.143Z" fill="white"/>
<path opacity="0.04" d="M442.027 246.143H446.76V251.179H442.027V246.143Z" fill="white"/>
<path opacity="0.86" d="M435.684 246.143H440.416V251.179H435.684V246.143Z" fill="white"/>
<path opacity="0.06" d="M448.371 252.25H453.104V257.287H448.371V252.25Z" fill="white"/>
<path opacity="0.01" d="M442.027 252.25H446.76V257.287H442.027V252.25Z" fill="white"/>
<path opacity="0.39" d="M435.684 252.25H440.416V257.287H435.684V252.25Z" fill="white"/>
<path opacity="0.1" d="M448.371 258.465H453.104V263.501H448.371V258.465Z" fill="white"/>
<path d="M442.027 258.465H446.76V263.501H442.027V258.465Z" fill="white"/>
<path opacity="0.62" d="M435.684 258.465H440.416V263.501H435.684V258.465Z" fill="white"/>
<path opacity="0.48" d="M448.371 264.787H453.104V269.823H448.371V264.787Z" fill="white"/>
<path opacity="0.27" d="M442.027 264.787H446.76V269.823H442.027V264.787Z" fill="white"/>
<path opacity="0.42" d="M435.684 264.787H440.416V269.823H435.684V264.787Z" fill="white"/>
<path opacity="0.27" d="M492.775 233.928H497.508V238.964H492.775V233.928Z" fill="white"/>
<path opacity="0.11" d="M487.439 195.354H492.172V200.39H487.439V195.354Z" fill="white"/>
<path opacity="0.41" d="M483.713 156.245H488.445V161.281H483.713V156.245Z" fill="white"/>
<path opacity="0.38" d="M477.773 156.245H482.506V161.281H477.773V156.245Z" fill="white"/>
<path opacity="0.02" d="M471.73 156.245H476.463V161.281H471.73V156.245Z" fill="white"/>
<path opacity="0.46" d="M483.713 162.566H488.445V167.602H483.713V162.566Z" fill="white"/>
<path opacity="0.31" d="M477.773 162.566H482.506V167.602H477.773V162.566Z" fill="white"/>
<path opacity="0.61" d="M471.73 162.566H476.463V167.602H471.73V162.566Z" fill="white"/>
<path opacity="0.03" d="M483.713 168.781H488.445V173.817H483.713V168.781Z" fill="white"/>
<path opacity="0.03" d="M477.773 168.781H482.506V173.817H477.773V168.781Z" fill="white"/>
<path opacity="0.46" d="M471.73 168.781H476.463V173.817H471.73V168.781Z" fill="white"/>
<path opacity="0.32" d="M483.713 174.996H488.445V180.032H483.713V174.996Z" fill="white"/>
<path opacity="0.14" d="M477.773 174.996H482.506V180.032H477.773V174.996Z" fill="white"/>
<path opacity="0.3" d="M471.73 174.996H476.463V180.032H471.73V174.996Z" fill="white"/>
<path opacity="0.04" d="M483.713 181.318H488.445V186.354H483.713V181.318Z" fill="white"/>
<path opacity="0.64" d="M477.773 181.318H482.506V186.354H477.773V181.318Z" fill="white"/>
<path opacity="0.05" d="M471.73 181.318H476.463V186.354H471.73V181.318Z" fill="white"/>
<path opacity="0.15" d="M481.398 195.354H486.131V200.39H481.398V195.354Z" fill="white"/>
<path opacity="0.15" d="M475.355 195.354H480.088V200.39H475.355V195.354Z" fill="white"/>
<path opacity="0.52" d="M469.416 195.354H474.148V200.39H469.416V195.354Z" fill="white"/>
<path opacity="0.58" d="M487.439 201.676H492.172V206.712H487.439V201.676Z" fill="white"/>
<path opacity="0.62" d="M481.398 201.676H486.131V206.712H481.398V201.676Z" fill="white"/>
<path opacity="0.04" d="M475.355 201.676H480.088V206.712H475.355V201.676Z" fill="white"/>
<path opacity="0.06" d="M469.416 201.676H474.148V206.712H469.416V201.676Z" fill="white"/>
<path opacity="0.3" d="M487.439 208.105H492.172V213.141H487.439V208.105Z" fill="white"/>
<path opacity="0.01" d="M481.398 208.105H486.131V213.141H481.398V208.105Z" fill="white"/>
<path opacity="0.37" d="M475.355 208.105H480.088V213.141H475.355V208.105Z" fill="white"/>
<path opacity="0.62" d="M469.416 208.105H474.148V213.141H469.416V208.105Z" fill="white"/>
<path opacity="0.54" d="M487.439 214.534H492.172V219.57H487.439V214.534Z" fill="white"/>
<path opacity="0.21" d="M481.398 214.534H486.131V219.57H481.398V214.534Z" fill="white"/>
<path opacity="0.41" d="M475.355 214.534H480.088V219.57H475.355V214.534Z" fill="white"/>
<path opacity="0.1" d="M469.416 214.534H474.148V219.57H469.416V214.534Z" fill="white"/>
<path opacity="0.17" d="M487.439 220.856H492.172V225.892H487.439V220.856Z" fill="white"/>
<path opacity="0.17" d="M481.398 220.856H486.131V225.892H481.398V220.856Z" fill="white"/>
<path opacity="0.13" d="M475.355 220.856H480.088V225.892H475.355V220.856Z" fill="white"/>
<path opacity="0.5" d="M469.416 220.856H474.148V225.892H469.416V220.856Z" fill="white"/>
<path opacity="0.06" d="M486.734 233.928H491.467V238.964H486.734V233.928Z" fill="white"/>
<path opacity="0.27" d="M480.793 233.928H485.525V238.964H480.793V233.928Z" fill="white"/>
<path opacity="0.51" d="M474.752 233.928H479.484V238.964H474.752V233.928Z" fill="white"/>
<path opacity="0.42" d="M468.711 233.928H473.443V238.964H468.711V233.928Z" fill="white"/>
<path opacity="0.64" d="M462.77 233.928H467.502V238.964H462.77V233.928Z" fill="white"/>
<path opacity="0.29" d="M492.775 240.035H497.508V245.071H492.775V240.035Z" fill="white"/>
<path opacity="0.6" d="M486.734 240.035H491.467V245.071H486.734V240.035Z" fill="white"/>
<path opacity="0.2" d="M480.793 240.035H485.525V245.071H480.793V240.035Z" fill="white"/>
<path opacity="0.24" d="M474.752 240.035H479.484V245.071H474.752V240.035Z" fill="white"/>
<path opacity="0.62" d="M468.711 240.035H473.443V245.071H468.711V240.035Z" fill="white"/>
<path opacity="0.62" d="M462.77 240.035H467.502V245.071H462.77V240.035Z" fill="white"/>
<path opacity="0.25" d="M492.775 246.143H497.508V251.179H492.775V246.143Z" fill="white"/>
<path opacity="0.36" d="M486.734 246.143H491.467V251.179H486.734V246.143Z" fill="white"/>
<path opacity="0.16" d="M480.793 246.143H485.525V251.179H480.793V246.143Z" fill="white"/>
<path opacity="0.1" d="M474.752 246.143H479.484V251.179H474.752V246.143Z" fill="white"/>
<path opacity="0.04" d="M468.711 246.143H473.443V251.179H468.711V246.143Z" fill="white"/>
<path opacity="0.44" d="M462.77 246.143H467.502V251.179H462.77V246.143Z" fill="white"/>
<path opacity="0.68" d="M492.775 252.25H497.508V257.287H492.775V252.25Z" fill="white"/>
<path opacity="0.01" d="M486.734 252.25H491.467V257.287H486.734V252.25Z" fill="white"/>
<path opacity="0.29" d="M480.793 252.25H485.525V257.287H480.793V252.25Z" fill="white"/>
<path opacity="0.66" d="M474.752 252.25H479.484V257.287H474.752V252.25Z" fill="white"/>
<path opacity="0.12" d="M468.711 252.25H473.443V257.287H468.711V252.25Z" fill="white"/>
<path opacity="0.34" d="M462.77 252.25H467.502V257.287H462.77V252.25Z" fill="white"/>
<path opacity="0.36" d="M492.775 258.465H497.508V263.501H492.775V258.465Z" fill="white"/>
<path opacity="0.5" d="M486.734 258.465H491.467V263.501H486.734V258.465Z" fill="white"/>
<path opacity="0.07" d="M480.793 258.465H485.525V263.501H480.793V258.465Z" fill="white"/>
<path opacity="0.64" d="M474.752 258.465H479.484V263.501H474.752V258.465Z" fill="white"/>
<path opacity="0.4" d="M468.711 258.465H473.443V263.501H468.711V258.465Z" fill="white"/>
<path opacity="0.27" d="M462.77 258.465H467.502V263.501H462.77V258.465Z" fill="white"/>
<path opacity="0.09" d="M492.775 264.787H497.508V269.823H492.775V264.787Z" fill="white"/>
<path opacity="0.47" d="M486.734 264.787H491.467V269.823H486.734V264.787Z" fill="white"/>
<path opacity="0.57" d="M480.793 264.787H485.525V269.823H480.793V264.787Z" fill="white"/>
<path opacity="0.12" d="M474.752 264.787H479.484V269.823H474.752V264.787Z" fill="white"/>
<path opacity="0.23" d="M468.711 264.787H473.443V269.823H468.711V264.787Z" fill="white"/>
<path opacity="0.36" d="M462.77 264.787H467.502V269.823H462.77V264.787Z" fill="white"/>
<path d="M361.777 280.002H424.406L361.777 221.927V280.002Z" fill="#333333"/>
<path d="M496.098 281.181H582.893L496.098 200.819V281.181Z" fill="#333333"/>
<path d="M368.725 266.716H387.051V272.716H368.725V266.716Z" fill="#4D4D4D"/>
<path d="M370.84 268.537H385.037L380.103 259.751H375.774L370.84 268.537Z" fill="#4D4D4D"/>
<path d="M447.062 275.18C447.062 279.359 450.183 282.788 454.009 282.788C457.836 282.788 460.957 279.359 460.957 275.18C460.957 271.002 457.836 267.573 454.009 267.573C450.183 267.466 447.062 270.894 447.062 275.18Z" fill="#333333"/>
<path d="M311.03 274.752C311.03 277.966 313.346 280.538 316.266 280.538C319.186 280.538 321.502 277.966 321.502 274.752C321.502 271.537 319.186 268.966 316.266 268.966C313.346 269.073 311.03 271.644 311.03 274.752Z" fill="#333333"/>
<path d="M260.08 271.859C260.08 274.645 262.195 277.002 264.712 277.002C267.229 277.002 269.344 274.752 269.344 271.859C269.344 269.073 267.229 266.716 264.712 266.716C262.195 266.716 260.08 269.073 260.08 271.859Z" fill="#333333"/>
<path d="M422.293 272.18C422.293 275.073 424.407 277.431 427.126 277.431C429.744 277.431 431.959 275.073 431.959 272.18C431.959 269.287 429.844 266.93 427.126 266.93C424.407 266.93 422.293 269.287 422.293 272.18Z" fill="#333333"/>
</svg>
