<?xml version="1.0" encoding="UTF-8"?>
<!DOCTYPE svg PUBLIC "-//W3C//DTD SVG 1.0//EN" "http://www.w3.org/TR/2001/REC-SVG-20010904/DTD/svg10.dtd">
<!-- Creator: CorelDRAW 2018 (64-Bit) -->
<svg xmlns="http://www.w3.org/2000/svg" xml:space="preserve" width="30px" height="30px" version="1.0" style="shape-rendering:geometricPrecision; text-rendering:geometricPrecision; image-rendering:optimizeQuality; fill-rule:evenodd; clip-rule:evenodd"
viewBox="0 0 38 38"
 xmlns:xlink="http://www.w3.org/1999/xlink">
 <defs>
  <style type="text/css">
   <![CDATA[
    .fil0 {fill:#E31E24}
    .fil1 {fill:#F1F1F1}
   ]]>
  </style>
 </defs>
 <g id="Слой_x0020_1">
  <metadata id="CorelCorpID_0Corel-Layer"/>
  <g id="_2687771865264">
   <path class="fil0" d="M19 0c11,0 19,9 19,19 0,11 -8,19 -19,19 -10,0 -19,-8 -19,-19 0,-10 9,-19 19,-19z"/>
   <path class="fil1" d="M19 8c-5,0 -8,3 -8,7 0,5 7,15 8,15 0,1 0,1 0,1 0,0 0,0 0,-1 1,0 8,-10 8,-15 0,-4 -3,-7 -8,-7z"/>
   <path class="fil0" d="M19 10c-3,0 -6,2 -6,5 0,4 3,6 6,6 3,0 6,-2 6,-6 0,-3 -3,-5 -6,-5z"/>
  </g>
 </g>
</svg>
