<svg width="20" height="23" viewBox="0 0 20 23" fill="none" xmlns="http://www.w3.org/2000/svg">
<g clip-path="url(#clip0)">
<path fill-rule="evenodd" clip-rule="evenodd" d="M19.5763 19.0233L17.3893 17.1636L15.4519 15.5171C15.0776 15.201 14.5272 15.2231 14.1823 15.5759L12.6852 17.0975C12.3623 17.4283 11.8486 17.4724 11.4743 17.2077C10.645 16.6123 9.65429 16.0243 7.62145 13.4442C5.58862 10.8715 5.2437 9.76894 4.85474 8.82806C4.67861 8.40173 4.84006 7.90924 5.23636 7.67402L7.06371 6.56408C7.48202 6.30681 7.63613 5.77021 7.40863 5.33653L6.29314 3.1387L4.95748 0.514541C4.72998 0.0661554 4.18692 -0.12496 3.73191 0.0808565L1.73577 0.984979C1.1927 1.22755 0.767056 1.66123 0.539554 2.21253C-0.186983 4.02077 -0.766744 8.1224 5.04555 15.4877C10.8652 22.853 14.9896 23.2279 16.9123 22.9338C17.4921 22.8383 18.0131 22.5222 18.3727 22.0518L19.7084 20.3097C20.0166 19.9128 19.9579 19.3468 19.5763 19.0233Z" fill="#FFED00"/>
<path fill-rule="evenodd" clip-rule="evenodd" d="M12.4946 4.3589C15.9365 4.82198 18.3656 7.98274 17.9106 11.4375C17.8886 11.636 18.028 11.8271 18.2335 11.8491C18.4317 11.8786 18.6225 11.7389 18.6445 11.5331C19.1509 7.67401 16.4429 4.13838 12.59 3.62384C12.3845 3.60179 12.2011 3.74145 12.1717 3.94726C12.1424 4.14573 12.2891 4.33685 12.4946 4.3589Z" fill="#FFED00"/>
<path fill-rule="evenodd" clip-rule="evenodd" d="M12.2002 6.56408C14.4312 6.86546 16.0016 8.90892 15.7081 11.1435C15.6787 11.3493 15.8255 11.5331 16.0237 11.5625C16.2291 11.5845 16.42 11.4449 16.442 11.2391C16.7869 8.6002 14.9302 6.18185 12.2956 5.82902C12.0974 5.80697 11.9066 5.94663 11.8846 6.15245C11.8552 6.35092 12.002 6.54203 12.2002 6.56408Z" fill="#FFED00"/>
<path fill-rule="evenodd" clip-rule="evenodd" d="M11.915 8.7766C12.9278 8.90891 13.6396 9.83509 13.5075 10.8568C13.4782 11.0553 13.625 11.2464 13.8231 11.2685C14.0286 11.2979 14.2121 11.1508 14.2414 10.9524C14.4249 9.53371 13.4268 8.22531 12.0104 8.03419C11.805 8.01214 11.6215 8.1518 11.5921 8.35762C11.5701 8.56344 11.7095 8.7472 11.915 8.7766Z" fill="#FFED00"/>
</g>
<defs>
<clipPath id="clip0">
<rect width="20" height="23" fill="white"/>
</clipPath>
</defs>
</svg>
